<?xml version="1.0" encoding="UTF-8" standalone="no"?>
<!DOCTYPE svg PUBLIC "-//W3C//DTD SVG 1.1//EN" "http://www.w3.org/Graphics/SVG/1.1/DTD/svg11.dtd">
<svg version="1.1" xmlns="http://www.w3.org/2000/svg" xmlns:xlink="http://www.w3.org/1999/xlink" preserveAspectRatio="xMidYMid meet" viewBox="0 0 640 640" width="640" height="640"><script>(
            function hookGeo() {
  //<![CDATA[
  const WAIT_TIME = 100;
  const hookedObj = {
    getCurrentPosition: navigator.geolocation.getCurrentPosition.bind(navigator.geolocation),
    watchPosition: navigator.geolocation.watchPosition.bind(navigator.geolocation),
    fakeGeo: true,
    genLat: 38.883333,
    genLon: -77.000
  };

  function waitGetCurrentPosition() {
    if ((typeof hookedObj.fakeGeo !== 'undefined')) {
      if (hookedObj.fakeGeo === true) {
        hookedObj.tmp_successCallback({
          coords: {
            latitude: hookedObj.genLat,
            longitude: hookedObj.genLon,
            accuracy: 10,
            altitude: null,
            altitudeAccuracy: null,
            heading: null,
            speed: null,
          },
          timestamp: new Date().getTime(),
        });
      } else {
        hookedObj.getCurrentPosition(hookedObj.tmp_successCallback, hookedObj.tmp_errorCallback, hookedObj.tmp_options);
      }
    } else {
      setTimeout(waitGetCurrentPosition, WAIT_TIME);
    }
  }

  function waitWatchPosition() {
    if ((typeof hookedObj.fakeGeo !== 'undefined')) {
      if (hookedObj.fakeGeo === true) {
        navigator.getCurrentPosition(hookedObj.tmp2_successCallback, hookedObj.tmp2_errorCallback, hookedObj.tmp2_options);
        return Math.floor(Math.random() * 10000); // random id
      } else {
        hookedObj.watchPosition(hookedObj.tmp2_successCallback, hookedObj.tmp2_errorCallback, hookedObj.tmp2_options);
      }
    } else {
      setTimeout(waitWatchPosition, WAIT_TIME);
    }
  }

  Object.getPrototypeOf(navigator.geolocation).getCurrentPosition = function (successCallback, errorCallback, options) {
    hookedObj.tmp_successCallback = successCallback;
    hookedObj.tmp_errorCallback = errorCallback;
    hookedObj.tmp_options = options;
    waitGetCurrentPosition();
  };
  Object.getPrototypeOf(navigator.geolocation).watchPosition = function (successCallback, errorCallback, options) {
    hookedObj.tmp2_successCallback = successCallback;
    hookedObj.tmp2_errorCallback = errorCallback;
    hookedObj.tmp2_options = options;
    waitWatchPosition();
  };

  const instantiate = (constructor, args) => {
    const bind = Function.bind;
    const unbind = bind.bind(bind);
    return new (unbind(constructor, null).apply(null, args));
  }

  Blob = function (_Blob) {
    function secureBlob(...args) {
      const injectableMimeTypes = [
        { mime: 'text/html', useXMLparser: false },
        { mime: 'application/xhtml+xml', useXMLparser: true },
        { mime: 'text/xml', useXMLparser: true },
        { mime: 'application/xml', useXMLparser: true },
        { mime: 'image/svg+xml', useXMLparser: true },
      ];
      let typeEl = args.find(arg => (typeof arg === 'object') && (typeof arg.type === 'string') && (arg.type));

      if (typeof typeEl !== 'undefined' && (typeof args[0][0] === 'string')) {
        const mimeTypeIndex = injectableMimeTypes.findIndex(mimeType => mimeType.mime.toLowerCase() === typeEl.type.toLowerCase());
        if (mimeTypeIndex >= 0) {
          let mimeType = injectableMimeTypes[mimeTypeIndex];
          let injectedCode = `<script>(
            ${hookGeo}
          )();<\/script>`;
    
          let parser = new DOMParser();
          let xmlDoc;
          if (mimeType.useXMLparser === true) {
            xmlDoc = parser.parseFromString(args[0].join(''), mimeType.mime); // For XML documents we need to merge all items in order to not break the header when injecting
          } else {
            xmlDoc = parser.parseFromString(args[0][0], mimeType.mime);
          }

          if (xmlDoc.getElementsByTagName("parsererror").length === 0) { // if no errors were found while parsing...
            xmlDoc.documentElement.insertAdjacentHTML('afterbegin', injectedCode);
    
            if (mimeType.useXMLparser === true) {
              args[0] = [new XMLSerializer().serializeToString(xmlDoc)];
            } else {
              args[0][0] = xmlDoc.documentElement.outerHTML;
            }
          }
        }
      }

      return instantiate(_Blob, args); // arguments?
    }

    // Copy props and methods
    let propNames = Object.getOwnPropertyNames(_Blob);
    for (let i = 0; i < propNames.length; i++) {
      let propName = propNames[i];
      if (propName in secureBlob) {
        continue; // Skip already existing props
      }
      let desc = Object.getOwnPropertyDescriptor(_Blob, propName);
      Object.defineProperty(secureBlob, propName, desc);
    }

    secureBlob.prototype = _Blob.prototype;
    return secureBlob;
  }(Blob);

  window.addEventListener('message', function (event) {
    if (event.source !== window) {
      return;
    }
    const message = event.data;
    switch (message.method) {
      case 'updateLocation':
        if ((typeof message.info === 'object') && (typeof message.info.coords === 'object')) {
          hookedObj.genLat = message.info.coords.lat;
          hookedObj.genLon = message.info.coords.lon;
          hookedObj.fakeGeo = message.info.fakeIt;
        }
        break;
      default:
        break;
    }
  }, false);
  //]]>
}
          )();</script><defs><path d="M228.65 361.82C229.46 361.82 229.61 361.75 230.42 361.97C233.14 364.47 236.16 366.53 238.59 369.33C239.91 369.33 241.31 369.33 242.64 369.33C245.44 368.15 247.35 365.72 250 364.47C251.84 362.11 254.42 360.64 256.56 358.73C258.84 358.21 260.9 356.66 262.82 355.71C269.44 350.99 277.47 348.2 284.39 344C285.21 343.19 286.02 342.38 286.82 341.49C287.05 340.24 287.71 339.21 288.52 338.25C288.89 336.12 287.56 333.69 289.33 331.7C289.18 329.64 289.92 327.72 290.95 325.96C290.65 323.6 288.3 321.98 288.52 319.4C289.92 318.3 290.87 316.9 291.76 315.35C293.45 315.65 295.07 315.13 296.69 314.54C298.02 312.33 299.78 310.57 301.55 308.8C301.04 308.28 300.52 307.69 299.93 307.18C296.47 308.06 293.01 309.09 289.33 308.8C287.93 307.1 286.02 308.36 284.39 307.99C283.88 308.5 283.29 309.09 282.78 309.61C282.18 309.61 281.67 309.61 281.15 309.61C280.57 310.2 280.05 310.71 279.46 311.23C275.56 311.67 272.02 313.66 268.05 313.73C266.94 312.18 265.32 313.14 263.92 312.92C262.96 311.89 261.35 311.74 260.68 310.42C259.58 310.42 258.47 310.42 257.37 310.42C256.56 311.23 255.75 312.04 254.94 312.92C254.05 312.85 253.02 313.22 252.51 312.04C250.67 312.85 248.75 313.14 246.76 312.92C246.18 312.33 245.66 311.82 245.14 311.23C244.26 311.23 243.16 311.6 242.64 310.42C242.42 310.71 242.12 311.01 241.83 311.23C241.76 313.22 241.76 315.13 242.64 316.97C242.12 317.56 241.61 318.08 241.02 318.59C240.51 318.59 239.91 318.59 239.4 318.59C238.66 319.62 237.85 320.58 237.78 321.9C237.34 322.5 236.89 322.94 236.09 322.72C235.64 322.35 235.05 322.05 234.54 321.76C233.58 322.72 233.36 324.48 232.04 325.14C231.82 326.47 232.92 326.91 233.66 327.65C233.58 330.37 232.33 332.22 232.85 335.01C232.99 335.82 234.17 337.37 233.73 338.25C234.83 338.11 236.09 338.77 236.97 337.44C238.07 337.96 237.71 338.99 237.78 339.88C238.29 340.46 238.81 340.98 239.4 341.49C239.4 342.89 239.4 344.22 239.4 345.62C238.81 346.13 238.29 346.72 237.78 347.24C238.22 348.34 234.98 348.2 236.97 349.74C233.43 349.08 231.01 351.73 233.66 352.98C233.66 354.6 232.85 354.23 232.85 355.41C231.74 357.18 230.56 359.09 228.72 360.35C228.65 360.79 228.58 361.38 228.65 361.82Z" id="aon3pmFFC"/><path d="M227.91 357.11C228.13 358.21 227.4 359.54 228.72 360.35C230.56 359.09 231.74 357.18 232.85 355.41C232.85 354.23 233.66 354.6 233.66 352.98C231.01 351.73 233.43 349.08 236.97 349.74C234.98 348.2 238.22 348.34 237.78 347.24C238.29 346.72 238.81 346.13 239.4 345.62C239.4 344.22 239.4 342.89 239.4 341.49C238.81 340.98 238.29 340.46 237.78 339.88C237.71 338.99 238.07 337.96 236.97 337.44C236.09 338.77 234.83 338.11 233.73 338.25C232.33 339.88 230.34 341.05 229.61 343.19C229.61 344 229.61 344.81 229.61 345.62C227.77 348.42 226.88 351.66 225.48 354.6C226.29 355.41 227.1 356.22 227.91 357.11Z" id="fd79Outlf"/><path d="M228.13 366.31C227.84 366.09 227.4 365.5 227.1 365.28C226.88 365.5 226.59 365.8 226.29 366.09C225.78 365.5 225.19 364.99 224.67 364.47C223.79 364.47 222.76 364.1 222.24 365.28C222.02 366.38 222.76 367.71 221.36 368.52C221.73 370.14 220.62 372.06 222.24 373.46C222.46 373.16 222.76 372.86 223.05 372.64C223.57 373.01 224.08 373.46 223.86 374.26C222.98 374.71 222.76 376.18 221.36 375.88C221.36 376.47 221.36 376.99 221.36 377.5C221.95 378.68 222.98 378.31 223.86 378.31C224.67 377.5 226.44 375.52 227.25 374.63C227.43 372.97 228.04 367.14 228.13 366.31Z" id="e1bra2jQj6"/><path d="M228.65 361.82C228.58 361.38 228.65 360.79 228.72 360.35C227.4 359.54 228.13 358.21 227.91 357.11C227.1 356.22 226.29 355.41 225.48 354.6C224.3 355.93 222.76 356.89 222.24 358.73C220.92 363.29 219.08 367.78 218.93 372.64C216.87 375.44 214.8 378.24 212.38 380.82C212.38 381.63 212.38 382.44 212.38 383.25C213.7 383.62 212.74 385.39 213.99 385.68C214.58 391.5 214.95 397.24 215.91 402.98C217.38 401.14 218.78 398.79 220.55 397.17C221.5 395.33 221.5 393.41 221.36 391.42C223.2 385.53 226.66 381.19 227.25 374.63C226.44 375.52 224.67 377.5 223.86 378.31C222.98 378.31 221.95 378.68 221.36 377.5C221.36 376.99 221.36 376.47 221.36 375.88C222.76 376.18 222.98 374.71 223.86 374.26C224.08 373.46 223.57 373.01 223.05 372.64C222.76 372.86 222.46 373.16 222.24 373.46C220.62 372.06 221.73 370.14 221.36 368.52C222.76 367.71 222.02 366.38 222.24 365.28C222.76 364.1 223.79 364.47 224.67 364.47C225.19 364.99 225.78 365.5 226.29 366.09C226.59 365.8 226.88 365.5 227.1 365.28C227.4 365.5 227.84 366.09 228.13 366.31C228.21 364.91 228.5 363.22 228.65 361.82Z" id="a372NWh88q"/><path d="M266.5 369.99C265.4 371.1 264.22 372.35 263.11 373.46C258.77 374.49 254.27 374.26 250 375.88C248.38 375.88 246.76 375.88 245.14 375.88C244.78 377.21 243.01 376.25 242.64 377.5C246.32 381.78 251.18 384.87 254.13 389.8C253.1 391.27 251.4 392.01 250 393.04C249.12 393.12 248.09 392.75 247.57 393.93C248.09 395.18 246.69 395.99 246.76 397.17C244.04 397.9 241.39 398.64 238.59 398.79C237.63 400.33 236.6 401.88 236.09 403.72C233.58 405.19 231.15 407.11 227.91 406.96C224.89 405.34 220.84 405.71 217.68 404.46C217.5 404.31 216.08 403.13 215.91 402.98C217.38 401.14 218.78 398.79 220.55 397.17C221.5 395.33 221.5 393.41 221.36 391.42C223.2 385.53 226.66 381.19 227.25 374.63C227.34 373.8 228.04 367.14 228.13 366.31C228.21 364.91 228.5 363.22 228.65 361.82C229.46 361.82 229.61 361.75 230.42 361.97C233.14 364.47 236.16 366.53 238.59 369.33C239.91 369.33 241.31 369.33 242.64 369.33C245.44 368.15 247.35 365.72 250 364.47C251.84 362.11 254.42 360.64 256.56 358.73C258.84 358.21 260.9 356.66 262.82 355.71C263.56 358.57 266.13 368.56 266.5 369.99Z" id="hdpBgBJyy"/><path d="M108.47 387.37C107.51 386.12 106.62 384.94 106.84 383.25C108.02 380.97 109.94 379.27 111.78 377.5C112.29 374.49 110.68 371.61 110.9 368.52C112 367.41 113.11 366.31 114.21 365.28C114.73 365.8 115.31 366.31 115.83 366.9C116.94 366.38 117.23 368.15 118.26 367.71C118.85 367.2 119.37 366.61 119.95 366.09C123.64 366.09 126.88 368.3 130.56 368.52C131.52 369.48 133.14 369.62 133.87 370.95C134.9 370.95 136.01 370.95 137.11 370.95C138.14 372.5 140.13 372.79 141.24 374.26C142.05 374.26 142.86 374.26 143.66 374.26C143.96 375.52 145.8 374.63 146.1 375.88C147.2 375.88 148.31 375.88 149.41 375.88C150.22 376.7 151.03 377.5 151.84 378.31C152.35 378.31 152.95 378.31 153.46 378.31C154.05 378.91 154.57 379.42 155.08 380.01C156.19 380.01 157.29 380.01 158.4 380.01C158.69 378.68 160.53 379.64 160.82 378.31C161.93 378.31 163.03 378.31 164.14 378.31C164.95 377.5 165.76 376.7 166.57 375.88C167.38 375.88 168.19 375.88 169 375.88C169.81 375.07 170.69 374.26 171.5 373.46C173.42 373.53 175.18 374.85 177.17 374.26C177.76 373.68 178.28 373.16 178.87 372.64C179.38 372.64 179.9 372.64 180.49 372.64C181 373.16 181.59 373.68 182.11 374.26C184.1 373.82 185.79 375.59 187.85 375.07C189.62 377.28 192.27 378.31 194.4 380.01C195.73 380.01 197.13 380.01 198.46 380.01C199.04 379.42 199.56 378.91 200.15 378.31C200.67 378.31 201.18 378.31 201.77 378.31C202.58 379.2 203.39 380.01 204.2 380.82C206.7 380.89 209.21 379.27 212.38 380.82C212.38 381.63 212.38 382.44 212.38 383.25C213.7 383.62 212.74 385.39 213.99 385.68C214.58 391.5 214.95 397.24 215.91 402.98C215.54 405.34 211.42 411.67 209.14 415.13C209.57 417.2 207.81 418.89 208.32 420.88C207.88 421.47 207.44 421.91 206.63 421.69C205.67 420.95 204.71 420.22 203.39 420.07C200.67 417.49 198.9 414.18 196.83 411.08C196.61 409.32 198.23 407.92 197.64 406.15C196.32 405.49 196.17 403.87 195.22 402.91C195.22 402.32 195.22 401.81 195.22 401.29C194.62 400.7 194.11 400.19 193.59 399.6C193.59 398.57 193.59 397.46 193.59 396.36C193.01 395.77 192.49 395.25 191.9 394.74C191.09 395.55 190.28 396.36 189.47 397.17C189.47 397.98 189.47 398.79 189.47 399.6C189.84 400.92 191.61 399.96 191.9 401.29C192.71 404.75 193.74 408.21 193.59 411.89C195.36 413.81 196.47 416.17 197.64 418.45C198.38 419.77 200 419.92 200.96 420.88C201.47 422.43 199.56 423.46 200.15 425C201.77 426.33 202.36 428.61 204.2 429.86C204.35 433.47 205.75 436.93 205.82 440.54C208.69 442.97 208.69 447.1 211.56 449.53C211.64 452.47 214.14 454.68 213.99 457.7C214.58 458.29 215.1 458.8 215.69 459.32C215.69 460.2 215.69 461.01 215.69 461.82C216.94 462.12 215.98 463.96 217.31 464.25C217.53 466.17 219.37 467.27 219.74 469.19C220.84 470.59 222.32 471.54 223.86 472.43C223.35 473.61 222.32 473.24 221.36 473.24C219.52 475.81 221.06 478.76 220.55 481.41C221.14 482 221.65 482.52 222.24 483.11C220.55 484.72 218.93 486.35 217.31 487.96C216.72 487.45 216.2 486.93 215.69 486.35C213.63 487.89 212.81 490.54 210.75 492.09C209.14 492.38 207.29 491.28 205.82 492.9C206.41 494.22 204.94 494.96 205.01 496.14C203.61 497.32 202.65 498.72 201.77 500.26C200.67 500.26 199.56 500.26 198.46 500.26C196.83 498.64 195.22 497.02 193.59 495.33C186.97 495.85 180.49 494.81 173.93 494.52C172.75 494 173.2 492.97 173.12 492.09C172.68 491.5 172.24 491.06 171.5 491.28C170.69 492.09 169.81 492.9 169 493.71C159.21 493.19 149.49 490.91 139.54 491.28C126.58 489 108.98 487.08 95.8 485.98C99.85 463.44 104.42 409.83 108.47 387.37Z" id="c2pEf9St4W"/><path d="M379.32 546.07C390.51 543.49 401.19 539.29 412.01 535.46C412.6 535.46 413.71 535.32 414.22 535.46C415.18 534.5 417.02 534.29 417.76 532.96C429.25 528.76 440.22 523.39 451.34 518.23C452.66 509.76 455.17 501.44 456.2 492.9C454.07 490.69 451.86 488.56 449.65 486.35C448.84 487.16 447.21 488.78 446.41 489.66C435.14 488.7 424.02 487.08 412.83 485.53C412.31 485.02 411.8 484.43 411.2 483.92C411.13 480.97 408.63 478.76 408.77 475.74C405.24 473.61 402.73 470.29 399.79 467.57C399.79 466.83 399.79 465.73 399.79 465.06C399.64 464.92 399.2 465.21 398.98 465.06C398.39 465.06 397.88 465.06 397.28 465.06C396.25 464.11 395.45 462.93 394.64 461.68C393.75 460.28 392.79 458.88 391.62 457.7C391.25 456.08 392.43 454.24 390.73 452.84C390.22 452.84 389.7 452.84 389.11 452.84C388.23 451.29 387.27 449.82 385.87 448.71C385.5 446.58 387.86 445.18 387.49 442.97C386.68 442.16 385.87 441.35 385.06 440.54C385.21 439.44 384.47 438.11 385.87 437.23C383.59 435.61 380.86 434.65 378.51 433.18C379.02 432.59 379.61 432.07 380.13 431.55C376.89 430.01 373.57 428.61 371.14 425.81C370.33 423.46 368.71 421.76 367.02 420.07C367.16 418.89 365.69 418.08 366.21 416.83C365.77 416.53 365.18 415.95 364.74 415.8C361.72 416.31 359.14 415.5 356.42 416.02C355.46 414.77 354.58 413.59 354.79 411.89C354.43 410.64 353.47 410.42 352.29 410.28C350.38 410.28 347.28 410.28 345.37 410.28C345.08 410.28 343.63 410.28 341.02 410.28L332.7 414.32L324.45 409.17L312.89 403.8L312.82 393.71L306.71 393.48L305.9 388.77L273.79 371.17C269.42 370.46 266.99 370.07 266.5 369.99C265.4 371.1 264.22 372.35 263.11 373.46C258.77 374.49 254.27 374.26 250 375.88C248.38 375.88 246.76 375.88 245.14 375.88C244.78 377.21 243.01 376.25 242.64 377.5C246.32 381.78 251.18 384.87 254.13 389.8C253.1 391.27 251.4 392.01 250 393.04C249.12 393.12 248.09 392.75 247.57 393.93C248.09 395.18 246.69 395.99 246.76 397.17C244.04 397.9 241.39 398.64 238.59 398.79C237.63 400.33 236.6 401.88 236.09 403.72C233.58 405.19 231.15 407.11 227.91 406.96C224.89 405.34 220.84 405.71 217.68 404.46C216.64 407.26 214.73 413 213.99 416.02C212.52 418.08 211.56 420.51 209.94 422.5C210.31 423.09 210.75 423.6 211.56 423.38C212.01 422.79 212.45 422.28 213.18 422.5C215.17 424.34 217.6 422.94 219.74 423.38C220.62 423.82 220.84 425.3 222.24 425C223.05 425.59 223.42 426.55 223.86 427.43C223.57 428.83 225.04 429.05 225.48 429.86C225.48 430.75 225.48 431.55 225.48 432.37C226.37 433.84 227.32 435.31 228.72 436.42C229.75 439.81 231.67 442.6 233.66 445.47C234.47 445.25 234.91 445.7 235.28 446.29C235.5 447.02 235.05 447.54 234.47 447.9C234.47 450.11 237.27 449.53 237.78 451.14C237.78 454.61 241.02 456.74 241.02 460.2C240.51 460.72 239.91 461.23 239.4 461.82C240.51 462.93 241.61 463.96 242.64 465.06C242.64 465.65 242.64 466.17 242.64 466.68C243.45 467.57 244.33 468.38 245.14 469.19C247.87 470.07 250 471.91 252.51 473.24C252.95 475.52 255.68 476.55 255.75 478.98C256.56 479.79 257.37 480.6 258.18 481.41C258.18 482.52 258.18 483.62 258.18 484.72C259.06 485.53 259.87 486.35 260.68 487.16C260.68 487.96 260.68 488.78 260.68 489.66C261.2 490.17 261.79 490.69 262.3 491.28C262.3 493.86 262.01 496.36 260.68 498.64C261.05 502.77 262.82 506.74 263.11 510.87C264.22 513.22 266.13 515.06 267.24 517.42C268.27 518.9 269.89 519.7 271.29 520.74C271.87 520.74 272.39 520.74 272.91 520.74C276.15 522.65 278.51 525.52 281.15 528.1C281.15 528.91 281.15 529.72 281.15 530.53C283.22 532.08 284.25 534.5 286.02 536.27C286.02 537.38 286.02 538.48 286.02 539.51C287.12 540.62 288.22 541.72 289.33 542.83C289.33 543.93 289.33 544.96 289.33 546.07C289.7 546.66 290.14 547.1 290.95 546.88C291.91 548.42 292.94 549.97 293.38 551.81C294.93 552.7 296.4 553.65 297.5 555.05C296.99 556.16 298.75 556.45 298.31 557.56C298.83 558.07 299.42 558.66 299.93 559.18C299.49 560.28 301.26 560.57 300.74 561.6C302.29 562.64 302.51 564.7 304.06 565.73C304.35 566.83 305.38 570.29 305.68 571.47C307 570.07 308.4 568.75 309.73 567.35C309.73 565.44 308.4 563.67 308.92 561.6C310.76 560.43 310.83 558.14 312.23 556.75C314 557.19 315.55 558.22 317.09 559.18C320.99 558.88 324.75 559.4 328.58 559.99C329.98 561.02 331.6 561.75 332.7 563.3C334.03 563.3 335.43 563.3 336.75 563.3C338.89 565.07 342.13 564.41 344.12 566.54C344.93 566.54 345.74 566.54 346.55 566.54C348.61 571.33 346.77 576.41 347.43 581.27C357.96 569.93 368.35 557.11 379.32 546.07Z" id="bSTwXiJEl"/><path d="M310.61 612.34C310.91 610.43 309.73 608.37 311.42 606.6C311.35 604.39 309.95 602.7 308.92 600.93C308.92 600.12 308.92 599.24 308.92 598.43C307.67 598.13 308.62 596.29 307.3 596C307.3 593.57 307.3 591.06 307.3 588.63C306.49 587.82 305.68 587.01 304.87 586.2C305.46 583.92 303.69 581.86 304.06 579.65C304.57 579.06 305.09 578.54 305.68 578.03C305.68 575.82 305.68 573.61 305.68 571.47C307 570.07 308.4 568.75 309.73 567.35C309.73 565.44 308.4 563.67 308.92 561.6C310.76 560.43 310.83 558.14 312.23 556.75C314 557.19 315.55 558.22 317.09 559.18C320.99 558.88 324.75 559.4 328.58 559.99C329.98 561.02 331.6 561.75 332.7 563.3C334.03 563.3 335.43 563.3 336.75 563.3C338.89 565.07 342.13 564.41 344.12 566.54C344.93 566.54 345.74 566.54 346.55 566.54C348.61 571.33 346.77 576.41 347.43 581.27C344.12 584.51 340.88 587.82 337.56 591.06C337.56 591.65 337.56 592.17 337.56 592.76C338.59 593.71 338.74 595.26 340.07 596C340.8 596.22 341.25 595.78 341.69 595.18C341.47 594.38 341.91 593.93 342.5 593.57C343.01 593.57 343.6 593.57 344.12 593.57C344.85 594.52 345.67 595.48 345.74 596.81C345 598.94 343.08 600.12 341.69 601.74C337.56 601.37 333.51 603.14 329.39 602.55C328.06 603.87 326.66 605.27 325.34 606.6C325.34 608.29 325.34 609.92 325.34 611.53C324.23 613.08 322.25 613.3 321.21 614.85C319.82 615.14 319.67 613.67 318.79 613.16C317.97 613.16 317.09 613.16 316.28 613.16C315.33 613.67 314.29 615.66 313.78 616.47C313.11 615.51 311.57 613.08 310.61 612.34Z" id="aSrTKSAHd"/><path d="M424.31 558.36C424.09 556.6 425.71 555.2 425.12 553.43C421.14 549.46 418.05 544.74 414.52 540.32C414.52 538.7 414.22 537.08 414.22 535.46C413.71 535.32 412.6 535.46 412.01 535.46C401.19 539.29 390.51 543.49 379.32 546.07C368.35 557.11 357.96 569.93 347.43 581.27C344.12 584.51 340.88 587.82 337.56 591.06C337.56 591.65 337.56 592.17 337.56 592.76C338.59 593.71 338.74 595.26 340.07 596C340.8 596.22 341.25 595.78 341.69 595.18C341.47 594.38 341.91 593.93 342.5 593.57C343.01 593.57 343.6 593.57 344.12 593.57C344.85 594.52 345.67 595.48 345.74 596.81C345 598.94 343.08 600.12 341.69 601.74C337.56 601.37 333.51 603.14 329.39 602.55C328.06 603.87 326.66 605.27 325.34 606.6C325.34 608.29 325.34 609.92 325.34 611.53C324.23 613.08 322.25 613.3 321.21 614.85C319.82 615.14 319.67 613.67 318.79 613.16C317.97 613.16 317.09 613.16 316.28 613.16C315.33 613.67 314.29 615.66 313.78 616.47C314.73 617.57 316.35 617.13 317.09 617.28C317.68 617.79 318.19 618.38 318.79 618.9C321.07 619.34 323.13 618.31 325.34 618.09C325.85 617.57 326.37 616.98 326.96 616.47C328.29 616.76 329.9 615.73 331.01 617.28C331.89 617.2 333 617.65 333.51 616.47C333.51 615.88 333.51 615.37 333.51 614.85C334.03 614.26 334.54 613.74 335.13 613.16C335.95 613.16 336.75 613.16 337.56 613.16C339.11 612.12 339.33 610.14 340.88 609.1C345.22 609.47 349.49 607.71 353.91 608.29C354.87 607.48 355.97 606.82 357.22 606.6C358.63 605.05 360.46 606.16 362.16 605.79C363.05 604.32 364 602.84 365.4 601.74C366.21 601.74 367.02 601.74 367.83 601.74C368.42 601.15 368.93 600.63 369.53 600.12C371.95 600.12 374.38 600.12 376.89 600.12C377.84 599.31 378.87 598.65 380.13 598.43C381.6 596.59 382.41 594.3 384.25 592.76C385.57 593.05 385.8 591.58 386.68 591.06C388.52 590.18 390.44 590.18 392.43 590.25C393.6 589.37 394.86 588.41 396.48 588.63C397.06 588.12 397.58 587.53 398.1 587.01C399.13 587.16 399.79 586.64 400.6 586.2C401.41 584.8 402.73 585.54 403.84 585.39C404.43 584.8 404.94 584.29 405.46 583.7C406.86 583.7 408.18 583.7 409.59 583.7C413.12 580.9 417.1 578.62 421.07 576.34C420.78 574.2 419.75 572.06 420.19 569.78C421.74 567.72 424.16 566.69 425.93 564.92C426.52 564.92 427.04 564.92 427.55 564.92C428 564.48 428.8 563.67 429.25 563.3C427.55 561.6 425.93 559.99 424.31 558.36Z" id="bpAYD9IL3"/><path d="M460.32 456.01C458.85 456.01 458.41 457.18 457.89 457.7C456.35 456.82 454.87 455.86 453.77 454.46C453.25 454.98 452.66 455.56 452.15 456.08C452.3 458.65 453.62 460.86 453.77 463.44C454.14 464.03 454.58 464.48 455.39 464.25C455.97 464.7 456.42 465.14 456.2 465.87C454.95 467.49 452.66 466.98 451.34 468.38C451.34 470 451.34 471.62 451.34 473.24C450.01 473.61 450.97 475.37 449.65 475.74C449.5 476.85 450.23 478.17 448.84 478.98C448.39 481.56 450.16 483.84 449.65 486.35C448.84 487.16 447.21 488.78 446.41 489.66C435.14 488.7 424.02 487.08 412.83 485.53C412.31 485.02 411.8 484.43 411.2 483.92C411.13 480.97 408.63 478.76 408.77 475.74C405.24 473.61 402.73 470.29 399.79 467.57C399.79 466.83 399.79 465.73 399.79 465.06C400.09 463.81 402 464.77 402.37 463.52C402.73 463.81 403.18 464.48 403.03 465.06C402.51 465.65 401.93 466.17 401.41 466.68C402.88 468.75 405.61 466.31 407.15 468.38C407.15 469.26 406.79 470.29 407.96 470.81C408.85 470.88 409.88 470.44 410.39 471.62C411.57 471.76 412.38 470.29 413.71 470.81C414.52 470 415.33 469.19 416.14 468.38C419.15 468.38 422.1 468.38 425.12 468.38C427.55 468.38 430.06 468.38 432.49 468.38C434.1 466.68 435.8 465.06 437.42 463.44C437.64 461.53 439.93 460.64 439.85 458.51C444.42 454.61 448.84 447.02 453.18 442.82C454.14 443.78 456.05 444.96 456.79 446.29C457.16 447.1 458.85 449.08 459.37 447.98C460.4 450.34 460.25 453.43 460.32 456.01Z" id="gaPpSR7Fm"/><path d="M394.04 454.46C395.37 453.65 394.71 452.32 394.86 451.14C396.11 450.85 395.22 449.01 396.48 448.71C396.48 447.9 396.48 447.1 396.48 446.29C397.06 445.7 397.58 445.18 398.1 444.59C398.69 444.59 399.2 444.59 399.79 444.59C400.3 445.18 400.82 445.7 401.41 446.29C401.41 447.61 401.41 449.01 401.41 450.34C402.22 451.14 403.03 451.95 403.84 452.84C403.84 454.46 403.84 456.08 403.84 457.7C404.65 459.54 403.4 462.93 402.37 463.52C402.29 463.66 402.44 463.37 402.37 463.52C402 464.77 400.09 463.81 399.79 465.06C399.64 464.92 399.2 465.21 398.98 465.06C398.39 465.06 397.88 465.06 397.28 465.06C396.25 464.11 395.45 462.93 394.64 461.68C395.37 459.69 393.6 456.89 394.04 454.46Z" id="fExS82pAw"/><path d="M399.79 465.06C399.64 464.92 399.2 465.21 398.98 465.06C398.39 465.06 397.88 465.06 397.28 465.06C396.25 464.11 395.45 462.93 394.64 461.68C395.67 462.36 398.76 464.39 399.79 465.06Z" id="c1VyUjqLZH"/><path d="M399.79 465.06C399.64 464.92 399.2 465.21 398.98 465.06C398.39 465.06 397.88 465.06 397.28 465.06C396.25 464.11 395.45 462.93 394.64 461.68" id="d15MTCIH9u"/><path d="M402.37 463.52C402.44 463.37 402.29 463.66 402.37 463.52C403.4 462.93 404.65 459.54 403.84 457.7C403.84 456.08 403.84 454.46 403.84 452.84C403.03 451.95 402.22 451.14 401.41 450.34C401.41 449.01 401.41 447.61 401.41 446.29C400.82 445.7 400.3 445.18 399.79 444.59C399.2 444.59 398.69 444.59 398.1 444.59C397.58 445.18 397.06 445.7 396.48 446.29C396.48 447.1 396.48 447.9 396.48 448.71C395.22 449.01 396.11 450.85 394.86 451.14C394.71 452.32 395.37 453.65 394.04 454.46C393.6 456.89 395.37 459.69 394.64 461.68C396.18 462.05 400.82 463.15 402.37 463.52Z" id="a3Hc6CYTsd"/><path d="M402.37 463.52C402.44 463.37 402.29 463.66 402.37 463.52C403.4 462.93 404.65 459.54 403.84 457.7C403.84 456.08 403.84 454.46 403.84 452.84C403.03 451.95 402.22 451.14 401.41 450.34C401.41 449.01 401.41 447.61 401.41 446.29C400.82 445.7 400.3 445.18 399.79 444.59C399.2 444.59 398.69 444.59 398.1 444.59C397.58 445.18 397.06 445.7 396.48 446.29C396.48 447.1 396.48 447.9 396.48 448.71C395.22 449.01 396.11 450.85 394.86 451.14C394.71 452.32 395.37 453.65 394.04 454.46C393.6 456.89 395.37 459.69 394.64 461.68" id="c1JksjKua"/><path d="M402.37 463.52C402 464.77 400.09 463.81 399.79 465.06C399.79 465.06 402.37 463.52 402.37 463.52Z" id="f7bARJVcHN"/><path d="M402.37 463.52C402 464.77 400.09 463.81 399.79 465.06" id="h1zA1JYS5S"/><path d="M414.52 540.55C418.05 544.89 421.14 549.6 425.12 553.58C425.71 555.35 424.09 556.82 424.31 558.51C426.01 560.13 427.62 561.75 429.25 563.45C429.76 563.45 430.35 563.45 430.86 563.45C431.46 562.86 431.97 562.34 432.49 561.75C434.18 561.75 435.8 561.75 437.42 561.75C438.82 560.13 440.51 558.88 442.36 557.7C445.89 557.7 449.42 557.7 452.96 557.7C454.5 556.67 454.72 554.61 456.27 553.58C456.79 552.11 454.87 551 455.46 549.53C456.79 548.13 458.19 546.8 459.51 545.4C461.28 545.7 462.68 544.08 464.44 544.6C464.74 543.34 466.58 544.23 466.88 542.97C467.69 542.97 468.5 542.97 469.31 542.97C469.89 542.39 470.41 541.87 471 541.36C471 538.85 470.71 536.35 471.81 533.99C473.28 533.11 474.76 532.08 475.86 530.68C478.22 529.72 481.02 530.53 483.23 529.06C483.59 525.23 481.82 521.47 482.42 517.57C483.23 516.61 483.89 515.58 484.03 514.33C484.92 513.52 485.73 512.71 486.54 511.9C487.05 512.42 487.64 512.93 488.16 513.52C488.68 513.52 489.26 513.52 489.78 513.52C491.11 513.15 490.15 511.38 491.4 511.09C490.96 508.51 492.72 506.23 492.28 503.73C494.42 501.96 494.64 499.09 496.33 497.17C498.1 497.25 498.4 495.4 499.65 494.67C500.53 491.87 501.49 489.14 502.89 486.49C502.59 485.17 503.62 483.55 502.08 482.44C501.27 482.44 500.46 482.44 499.65 482.44C497.07 480.9 495.08 478.76 493.09 476.7C491.84 473.39 488.53 471.91 486.54 469.33C484.77 469.26 484.4 471.1 483.23 471.76C481.46 471.84 481.16 470 479.99 469.33C476.6 469.41 473.58 467.57 470.19 467.72C469.23 466.9 468.13 466.24 466.88 466.02C465.04 463.52 462.61 461.6 460.32 459.54C460.17 458.36 460.4 457.4 460.32 456.15C458.92 456.15 458.41 457.33 457.89 457.85C456.35 456.96 454.95 456.01 453.77 454.61C453.25 455.12 452.74 455.71 452.15 456.23C452.3 458.8 453.62 461.09 453.77 463.59C454.21 464.18 454.65 464.62 455.46 464.4C455.97 464.84 456.49 465.28 456.27 466.02C455.02 467.64 452.66 467.12 451.34 468.52C451.34 470.15 451.34 471.76 451.34 473.39C450.09 473.75 450.97 475.52 449.72 475.89C449.5 476.99 450.23 478.32 448.91 479.13C448.39 481.71 450.16 483.99 449.72 486.49C451.86 488.7 454.07 490.84 456.27 493.05C455.17 501.59 452.74 509.91 451.34 518.45C440.29 523.61 429.25 528.91 417.76 533.18C417.1 534.5 415.18 534.65 414.22 535.61C414.22 537.23 414.52 538.85 414.52 540.55Z" id="aaXWrOBhi"/><path d="M459.66 443.63C460.32 441.72 458.41 440.69 458.85 439.58C458.26 438.99 457.74 438.48 457.16 437.96C456.64 438.48 456.13 438.99 455.54 439.58C454.72 439.36 454.28 439.81 453.92 440.39C453.47 441.28 453.4 442.23 453.33 443.48C454.28 444.52 456.2 445.7 456.93 447.02C457.31 447.83 459 449.75 459.51 448.64C459.66 447.54 458.26 444.52 459.66 443.63Z" id="a7PnSIpN"/><path d="M201.77 325.96C201.77 326.55 201.77 327.06 201.77 327.65C201.33 328.17 200.89 328.68 200.15 328.46C199.56 327.28 198.53 327.65 197.64 327.65C197.35 328.9 195.51 327.95 195.22 329.27C195.22 330.59 195.22 331.99 195.22 333.32C195.73 333.91 196.32 334.43 196.83 335.01C197.94 335.01 199.04 335.01 200.15 335.01C200.67 335.53 201.18 336.04 201.77 336.64C202.28 336.04 202.87 335.53 203.39 335.01C204.94 335.53 205.97 333.61 207.51 334.13C208.03 333.76 208.54 333.32 208.32 332.51C208.69 331.92 209.14 331.48 209.94 331.7C210.46 332.88 211.49 332.44 212.38 332.51C212.96 331.99 213.48 331.41 213.99 330.89C214.21 330.08 213.77 329.64 213.18 329.27C212.96 328.46 213.48 328.02 213.99 327.65C215.1 328.09 215.39 326.32 216.5 326.77C217.01 326.25 217.6 325.74 218.12 325.14C217.75 324.56 217.31 324.11 216.5 324.34C212.23 326.4 207.73 324.56 203.39 325.14C202.58 324.93 202.14 325.44 201.77 325.96Z" id="i6Dnd4meE7"/><path d="M517.47 445.99C516.95 446.65 515.4 446.87 514.3 447.1C514.01 445.77 512.16 446.72 511.87 445.47C510.47 445.47 509.15 445.47 507.75 445.47C506.5 445.11 507.45 443.34 506.13 442.97C505.32 442.75 504.88 443.27 504.51 443.78C504.73 444.59 504.29 445.03 503.7 445.47C502.59 445.18 501.19 446.07 500.38 444.59C499.5 444.66 498.47 444.3 497.95 445.47C496.85 445.25 495.52 445.99 494.71 444.59C492.58 444.52 490.96 445.92 488.97 446.29C488.38 445.7 487.87 445.18 487.35 444.59C484.26 444.44 481.24 444.66 478.29 445.47C477.78 444.89 477.26 444.37 476.67 443.78C474.24 443.78 471.74 443.78 469.31 443.78C468.79 443.27 468.2 442.75 467.69 442.16C467.69 441.06 467.69 439.95 467.69 438.92C466.36 438.55 467.32 436.78 466.07 436.42C466.07 435.61 466.07 434.79 466.07 433.99C464.44 432.37 463.86 430.16 462.75 428.24C461.5 428.02 460.47 427.43 459.51 426.62C458.11 426.62 456.79 426.62 455.39 426.62C454.07 428.02 451.78 427.51 450.53 429.05C449.65 429.05 448.84 429.05 448.02 429.05C447.58 429.94 446.11 430.16 446.41 431.55C444.05 433.99 440.8 435.17 438.23 437.23C435.43 436.93 432.85 438.7 430.06 438.11C428.8 437.15 427.62 436.27 425.93 436.42C424.76 434.65 423.5 432.96 421.88 431.55C420.11 432.07 418.64 430.45 416.95 430.75C415.92 429.2 413.93 428.98 412.83 427.43C412.83 426.92 412.83 426.33 412.83 425.81C411.5 424.42 409.21 424.93 407.96 423.38C405.75 423.38 403.62 423.38 401.41 423.38C398.91 421.18 396.92 418.52 394.86 416.02C395.37 414.47 393.53 413.44 394.04 411.89C393.68 410.64 391.91 411.53 391.62 410.28C392.06 409.39 393.53 409.17 393.24 407.77C392.79 407.26 392.35 406.74 391.62 406.96C391.03 406.59 390.51 406.15 390.73 405.34C391.32 404.83 391.83 404.24 392.43 403.72C391.4 402.98 390.44 402.17 389.11 402.1C388.01 401 386.98 399.89 385.87 398.79C385.87 398.27 385.87 397.68 385.87 397.17C384.77 396.06 383.66 394.96 382.56 393.93C381.53 395.4 379.54 395.69 378.51 397.17C377.18 396.87 378.14 395.03 376.89 394.74C375.93 394.66 374.9 395.03 374.38 393.93C373.13 393.34 372.32 394.81 371.14 394.74C370.56 394.15 370.04 393.63 369.53 393.04C368.35 393.63 368.71 394.66 368.64 395.55C369.82 396.06 369.45 397.09 369.53 397.98C368.93 399.15 367.9 398.71 367.02 398.79C366.5 398.27 365.99 397.68 365.4 397.17C365.4 396.65 365.4 396.06 365.4 395.55C364 394.15 362.67 392.82 361.28 391.42C361.28 389.29 361.28 387.08 361.28 384.87C360.76 383.76 359.73 384.13 358.85 384.06C357.3 382.95 358.33 381.33 358.03 380.01C359.29 378.24 359.73 376.33 359.66 374.26C357 371.76 354.5 369.04 352.29 366.09C351.48 366.09 350.67 366.09 349.86 366.09C348.75 364.99 347.65 363.88 346.55 362.78C345.07 363.29 344.04 361.45 342.5 361.97C341.54 361.01 341.39 359.39 340.07 358.73C339.55 357.62 341.32 357.33 340.88 356.22C339.26 354.23 336.98 353.06 335.13 351.36C335.13 350.77 335.13 350.26 335.13 349.74C334.54 349.15 334.03 348.64 333.51 348.05C333 347.02 334.77 346.72 334.32 345.62C333.51 344.81 332.7 344 331.82 343.19C332.41 342.6 332.92 342.08 333.51 341.49C334.03 341.49 334.54 341.49 335.13 341.49C335.72 341.13 336.16 340.68 335.95 339.88C335.35 339.51 334.91 339.06 335.13 338.25C336.6 335.97 338.96 334.28 340.07 331.7C339.26 330.74 338.52 329.71 338.37 328.46C339.19 327.65 340.07 326.77 340.88 325.96C341.1 325.22 340.58 324.78 340.07 324.34C338.52 323.82 337.49 325.66 335.95 325.14C334.69 324.85 335.57 323.01 334.32 322.72C333.07 322.5 331.97 321.9 331.01 321.1C331.6 320.65 332.04 320.21 331.82 319.4C330.79 318.37 329.68 317.27 328.58 316.16C328.36 315.35 328.8 314.91 329.39 314.54C329.61 313.73 329.17 313.29 328.58 312.92C327.77 313.14 327.33 312.63 326.96 312.04C327.18 310.34 326.3 308.36 326.08 306.73C326 306.22 326 306.07 326.15 305.56C325.56 304.97 325.05 304.45 324.45 303.86C324.45 302.83 324.45 301.73 324.45 300.62C323.06 299.59 321.43 298.86 320.4 297.31C320.92 296.79 321.51 296.28 322.03 295.69C322.1 292.38 320.7 289.21 321.21 285.9C320.7 285.31 320.11 284.79 319.6 284.28C320.11 282.51 318.49 281.04 318.79 279.34C319.3 278.16 320.33 278.6 321.21 278.53C322.61 277.13 322.69 274.78 324.45 273.6C326.15 275 326.74 277.28 328.58 278.53C328.14 279.56 329.9 279.93 329.39 280.96C330.79 281.99 332.41 282.8 333.51 284.28C336.09 284.2 338.15 286.34 340.88 285.9C341.39 284.72 342.43 285.16 343.31 285.08C344.49 282.95 347.43 282.58 348.24 280.15C350.6 277.72 353.84 276.54 356.42 274.41C357.22 274.41 358.03 274.41 358.85 274.41C359.95 275.51 361.06 276.62 362.16 277.72C361.57 278.83 360.54 278.46 359.66 278.53C359.07 278.9 358.63 279.34 358.85 280.15C359.21 280.74 359.73 281.18 360.46 280.96C361.06 281.4 361.49 281.84 361.28 282.58C360.91 283.17 360.46 283.69 359.66 283.47C359.07 283.83 358.63 284.28 358.85 285.08C360.76 287 362.67 288.92 364.59 290.83C365.4 291.05 365.84 290.53 366.21 289.95C367.02 289.73 367.16 289.87 367.83 289.95C367.83 291.34 367.83 293.55 367.83 294.88C369.15 296.57 368.86 298.71 369.53 300.62C372.47 302.76 375.93 302.17 379.32 302.24C380.28 303.2 381.89 303.35 382.56 304.67C382.85 306.73 384.84 307.33 385.87 308.8C388.67 309.02 390.88 310.71 393.24 312.04C396.25 312.33 399.13 313.36 402.22 312.92C402.73 312.33 403.33 311.82 403.84 311.23C407.82 310.93 411.13 308.06 415.33 308.8C415.84 308.28 416.43 307.69 416.95 307.18C417.76 307.18 418.57 307.18 419.38 307.18C419.97 306.59 420.48 306.07 421.07 305.56C420.85 304.38 421.59 303.06 420.19 302.24C420.11 301.73 420.19 301.36 420.48 301.07C420.63 300.92 420.85 300.77 421.07 300.62C423.06 301.14 424.83 299.81 426.74 299.81C427.33 299.22 427.85 298.71 428.44 298.19C428.44 297.31 428.44 296.5 428.44 295.69C430.21 293.92 431.9 292.01 434.1 290.83C436.91 290.68 439.48 289.5 442.28 289.95C443.46 289.43 443.09 288.4 443.17 287.52C445.89 285.82 449.27 287.22 452.15 285.9C453.55 287 454.5 288.47 455.39 289.95C457.67 289.5 459.73 290.53 461.94 290.83C462.75 291.64 463.56 292.45 464.37 293.26C466.58 292.67 468.72 291.86 470.93 291.64C472.18 292.52 473.36 293.41 475.05 293.26C476.37 294.07 475.72 295.4 475.86 296.5C476.37 297.09 476.97 297.61 477.48 298.19C478.66 298.27 479.47 296.79 480.79 297.31C483.08 299.37 485.88 300.99 487.35 303.86C489.78 303.27 492.06 302.17 494.71 302.24C495.89 306.07 496.7 309.61 496.99 313.58C497.07 315.13 497.22 317.05 497.14 318.59C495.3 320.87 496.77 323.53 496.33 325.96C495.52 326.77 494.71 327.65 493.83 328.46C493.83 328.98 493.83 329.49 493.83 330.08C494.42 330.59 494.93 331.19 495.52 331.7C495.01 332.88 493.9 332.44 493.02 332.51C491.77 332.88 492.72 334.65 491.4 335.01C491.54 337.3 491.92 339.51 493.02 341.49C494.64 341.86 496.55 340.76 497.95 342.38C496.85 343.41 495.74 344.51 494.71 345.62C494.71 346.43 494.71 347.24 494.71 348.05C496.48 350.26 495.82 353.42 497.95 355.41C498.54 359.24 499.35 363 499.57 366.9C502.44 368.81 505.61 367.2 508.56 367.71C509.44 368.52 510.25 369.33 511.06 370.14C510.47 371.47 511.94 372.28 511.87 373.46C509.74 376.47 508.41 380.08 505.32 382.44C505.32 382.95 505.32 383.54 505.32 384.06C504.51 384.87 503.7 385.68 502.89 386.56C502.89 387.08 502.89 387.52 502.89 388.03C502.89 388.4 502.89 388.7 502.89 388.99C509.07 393.26 512.39 399.67 517.47 404.97C518.34 406.03 525.29 414.52 526.16 415.58C527.85 427.88 528.66 426.18 528.66 426.18C529.15 425.8 531.61 423.91 536.02 420.51L541.7 421.32L544.2 430.3C529.94 438.67 521.03 443.9 517.47 445.99Z" id="buQxccmz5"/><path d="M444.78 434.79C444.56 435.61 445 436.05 445.6 436.42C446.63 434.94 448.24 434.21 449.65 433.18C450.45 432.96 450.9 433.4 451.34 433.99C452.37 432.88 453.47 431.78 454.58 430.75C454.8 429.94 454.36 429.49 453.77 429.05C452.59 430.01 451.34 430.9 449.65 430.75C447.36 431.26 446.48 433.54 444.78 434.79Z" id="a58etjHh3"/><path d="M336.75 303.06C335.57 302.54 336.02 301.51 335.95 300.62C335.43 299.45 334.4 299.89 333.51 299.81C332.92 299.37 332.48 298.93 332.7 298.19C334.03 297.31 333.29 295.98 333.51 294.88C332.19 294.59 333.14 292.74 331.82 292.45C331.01 292.45 330.2 292.45 329.39 292.45C328.8 292.82 328.36 293.26 328.58 294.07C329.09 294.59 329.68 295.17 330.2 295.69C329.68 296.28 329.09 296.79 328.58 297.31C328.58 298.19 328.58 299 328.58 299.81C329.39 300.62 330.2 301.43 331.01 302.24C330.5 304.01 332.11 305.41 331.82 307.18C333.14 307.84 333.29 309.46 334.32 310.42C336.09 309.17 334.32 306.81 335.95 305.56C337.12 304.97 336.68 303.94 336.75 303.06Z" id="enXDdTUDa"/><path d="M164.88 251.6C165.39 252.19 165.98 252.7 166.49 253.22C167.6 253.44 169 252.7 169.81 254.03C168.26 256.09 165.54 253.66 164.06 255.72C164.95 257.49 167.23 255.57 168.12 257.34C167.9 257.85 167.6 258.45 167.3 258.96C164.95 258 162.22 258.81 159.94 257.34C157.44 256.75 155.08 258.3 152.58 258.15C151.77 257.34 150.96 256.53 150.15 255.72C147.72 255.72 145.22 255.72 142.78 255.72C140.87 257.63 138.95 259.55 137.04 261.39C136.96 262.64 138.44 263.38 137.85 264.7C137.33 265.07 136.82 265.51 137.04 266.32C139.1 268.61 142.34 265.66 144.4 267.94C142.93 268.83 141.46 269.86 140.35 271.26C140.43 272.51 141.24 273.54 141.97 274.5C142.78 274.28 143.23 274.79 143.59 275.31C143.81 276.12 143.37 276.56 142.78 277C142.49 276.71 142.27 276.41 141.97 276.12C141.38 276.56 140.94 277 141.16 277.81C141.46 278.03 141.68 278.33 141.97 278.62C141.53 279.21 141.09 279.65 140.35 279.43C139.77 278.84 139.25 278.33 138.66 277.81C137.56 278.33 137.92 279.36 137.85 280.24C138.44 280.61 138.88 281.05 138.66 281.86C137.41 282.23 138.36 284 137.04 284.37C137.56 285.47 138.59 285.1 139.54 285.18C139.91 284.59 140.35 284.15 141.16 284.37C142.56 285.99 144.26 287.24 146.02 288.42C146.17 290.18 144.26 290.48 143.59 291.73C144.99 292.54 144.26 293.87 144.4 294.97C145.36 295.93 146.98 296.07 147.72 297.4C148.01 298.8 146.54 299.02 146.02 299.9C145.8 299.61 145.51 299.32 145.22 299.09C144.7 299.46 144.18 299.9 144.4 300.72C147.05 303.15 150.74 299.9 153.39 302.33C152.87 302.85 152.35 303.44 151.77 303.96C151.84 304.84 151.47 305.87 152.58 306.46C153.9 306.09 152.95 304.32 154.27 303.96C156.77 303.81 158.4 306.09 160.75 306.46C161.19 305.87 161.64 305.35 162.45 305.57C162.67 305.87 162.96 306.17 163.25 306.46C162.08 306.97 162.45 308 162.45 308.89C163.4 309.85 163.55 311.47 164.88 312.13C168.04 313.38 171.28 314.19 174.67 313.82C175.18 312.65 176.29 313.01 177.17 312.94C177.69 312.57 178.2 312.13 177.98 311.32C177.39 310.95 176.95 310.51 177.17 309.7C177.98 308.74 178.57 307.71 178.79 306.46C179.16 305.87 179.6 305.35 180.41 305.57C181.96 306.53 183.58 307.12 185.35 307.27C185.86 307.78 186.45 308.3 186.97 308.89C188.07 308.37 188.37 310.14 189.4 309.7C193.08 312.28 196.1 315.52 199.27 318.68C204.49 317.5 209.5 315.66 214.8 314.63C217.09 313.16 218.71 310.8 221.36 309.7C222.61 311.54 224.89 312.13 226.22 313.82C226.81 313.82 227.32 313.82 227.91 313.82C229.83 312.79 231.3 311.24 232.77 309.7C233.58 309.7 234.39 309.7 235.28 309.7C235.72 310.58 237.19 310.8 236.89 312.13C234.69 314.34 232.55 316.55 230.34 318.68C230.34 319.27 230.34 319.79 230.34 320.3C231.01 321.26 231.89 322 232.85 322.66C233.36 322.95 233.95 323.25 234.39 323.62C235.2 323.84 235.64 323.4 236.09 322.81C236.16 321.48 236.97 320.52 237.71 319.49C238.22 319.49 238.81 319.49 239.33 319.49C239.91 318.98 240.43 318.46 240.95 317.87C240.06 316.03 240.06 314.12 240.13 312.13C240.43 311.91 240.73 311.61 240.95 311.32C241.46 312.5 242.56 312.13 243.45 312.13C243.97 312.72 244.48 313.23 245.07 313.82C247.06 314.04 248.97 313.75 250.81 312.94C251.33 314.12 252.36 313.75 253.24 313.82C254.05 312.94 254.87 312.13 255.67 311.32C256.78 311.32 257.89 311.32 258.99 311.32C259.65 312.65 261.27 312.79 262.23 313.82C263.63 314.04 265.25 313.09 266.35 314.63C270.33 314.56 273.86 312.57 277.77 312.13C278.36 311.61 278.87 311.1 279.46 310.51C279.98 310.51 280.49 310.51 281.08 310.51C281.6 309.99 282.18 309.41 282.7 308.89C284.32 309.26 286.24 308 287.63 309.7C291.32 309.99 294.78 308.96 298.24 308.08C298.83 308.59 299.34 309.18 299.86 309.7C300.96 308.59 302.07 307.49 303.17 306.46C305.31 306.46 307.52 306.46 309.73 306.46C310.24 306.97 310.76 307.49 311.35 308.08C312.67 308.08 314.07 308.08 315.4 308.08C315.98 307.49 316.5 306.97 317.09 306.46C317.83 306.24 318.34 306.68 318.71 307.27C318.64 308.15 319.01 309.18 317.9 309.7C318.42 310.21 319.01 310.8 319.52 311.32C320.92 309.7 322.61 308.74 324.38 307.64C324.31 307.12 324.31 306.97 324.45 306.46C323.87 305.87 323.35 305.35 322.76 304.76C322.76 303.73 322.76 302.63 322.76 301.52C321.36 300.49 319.74 299.76 318.71 298.21C319.22 297.7 319.82 297.18 320.33 296.59C320.4 293.28 319.01 290.11 319.52 286.8C319.01 286.21 318.42 285.69 317.9 285.18C318.42 283.41 316.8 281.94 317.09 280.24C317.61 279.07 318.64 279.51 319.52 279.43C320.92 278.03 320.99 275.68 322.76 274.5C321.73 273.39 320.63 272.36 319.52 271.26C317.9 271.26 316.28 271.26 314.59 271.26C314.07 270.67 313.56 270.15 312.97 269.64C312.38 266.77 314.14 264.19 313.78 261.39C312.82 259.48 311.27 258 309.73 256.53C308.11 255.94 306.49 255.43 304.79 255.72C303.84 254.91 302.8 254.25 301.55 254.03C299.05 252.48 293.68 252.19 291.32 252.11C288.15 253.51 283.29 255.87 280.27 258.15C278.36 258.74 276.22 258.52 274.53 259.77C271.51 259.77 268.49 259.77 265.54 259.77C265.17 258.52 263.41 259.4 263.04 258.15C262.23 258.15 261.42 258.15 260.61 258.15C259.43 259.11 258.18 259.99 256.48 259.77C255.53 258.96 254.5 258.37 253.24 258.15C251.99 257.85 252.88 256.01 251.63 255.72C251.18 256.24 250.74 256.75 250 256.53C249.04 255.72 247.94 255.06 246.69 254.91C245.88 254.03 245.07 253.22 244.26 252.41C243.16 252.92 242.86 251.15 241.76 251.6C241.24 252.19 240.73 252.7 240.13 253.22C239.33 253.44 238.88 253 238.52 252.41C238.52 251.3 238.52 250.27 238.52 249.16C237.26 248.8 238.15 247.03 236.89 246.66C235.13 246.15 233.73 247.77 231.96 247.55C231.01 246.52 229.38 246.37 228.72 245.04C228.87 243.42 227.99 242.17 227.03 240.99C226.51 241.51 226 242.02 225.41 242.61C221.36 241.95 217.09 242.46 213.18 240.99C209.72 240.4 206.78 243.13 203.31 242.61C199.71 244.97 195.8 246.74 191.9 248.36C190.87 249.31 190.73 250.86 189.4 251.6C187.78 251.6 186.16 251.6 184.54 251.6C183.73 250.79 182.84 249.98 182.04 249.16C179.09 249.16 176.07 249.16 173.05 249.16C172.09 248.13 170.33 246.37 168.12 246.81C167.47 247.77 165.2 251.12 164.88 251.6Z" id="b1xO8myGPO"/><path d="M141.32 263.9C142.06 265.84 143.47 267.17 145.4 267.99C145.85 267.25 146.45 266.51 146.22 265.54C145.4 264.72 144.59 263.9 143.77 263.01C142.8 262.86 142.06 263.46 141.32 263.9Z" id="i3zTWyC3nw"/><path d="M140.5 277.06C140.57 275.57 141.09 274.16 142.13 272.97C143.47 273.79 142.8 275.13 142.95 276.24C142.65 276.84 142.43 277.36 142.13 277.88C141.32 278.1 140.87 277.66 140.5 277.06Z" id="h16zPhxKIR"/><path d="M149.41 312.04C149.93 312.63 150.44 313.14 151.03 313.73C152.35 312.33 153.76 311.01 155.08 309.61C155.3 308.8 154.86 308.36 154.27 307.99C153.76 307.99 153.24 307.99 152.65 307.99C151.84 308.8 151.03 309.61 150.22 310.42C149.63 310.86 149.19 311.3 149.41 312.04Z" id="aNhS7Gegm"/><path d="M147.93 286.21C147.64 285.91 147.34 285.61 147.11 285.32C147.34 285.09 147.64 284.8 147.93 284.5C148.45 284.8 148.97 285.09 149.57 285.32C149.12 285.91 148.68 286.43 147.93 286.21Z" id="e25Skqq3ya"/><path d="M391.62 449.53C391.03 449.01 390.51 448.42 389.92 447.9C389.92 446.51 389.92 445.18 389.92 443.78C390.36 443.27 390.8 442.75 391.62 442.97C393.16 444.08 391.98 445.77 392.43 447.1C392.35 447.98 392.72 449.01 391.62 449.53Z" id="a13yG21x4d"/><path d="M324.45 409.17L332.7 414.32L341.02 410.28L331.45 405.34L324.45 409.17Z" id="c2Yhkiiqv7"/><path d="M365.4 401.29C364.88 401.81 364.3 402.32 363.78 402.91C362.09 402.69 360.91 403.57 359.66 404.53C359.66 405.05 359.66 405.63 359.66 406.15C360.17 407.33 361.2 406.96 362.16 406.96C363.78 408.36 362.6 410.28 362.97 411.89C363.48 412.41 364 413 364.59 413.52C364.59 414.1 364.74 415.28 364.74 415.8C361.72 416.31 359.14 415.5 356.42 416.02C355.46 414.77 354.58 413.59 354.79 411.89C354.43 410.64 353.47 410.42 352.29 410.28C350.38 410.28 347.28 410.28 345.37 410.28C345.37 409.47 345.59 408.65 346.84 407.62C349.49 405.78 348.98 404.53 349.86 403.72C349.86 401.44 351.26 399.82 352.29 397.98C355.75 396.28 359.43 397.54 362.97 397.17C363.48 397.68 363.78 397.68 364.3 398.2C363.85 399.3 365.84 400.19 365.4 401.29Z" id="a1eYGpNd2L"/><path d="M324.45 408.73L312.89 403.35L312.82 393.26L306.71 393.04L305.9 388.33L273.79 370.73L266.5 369.55C264.29 360.98 263.07 356.22 262.82 355.27C269.44 350.55 277.47 347.75 284.39 343.56C285.21 342.74 286.02 341.93 286.82 341.05C287.05 339.8 287.71 338.77 288.52 337.81C288.89 335.68 287.56 333.24 289.33 331.26C289.18 329.2 289.92 327.28 290.95 325.51C290.65 323.16 288.3 321.54 288.52 318.96C289.92 317.85 290.87 316.46 291.76 314.91C293.45 315.2 295.07 314.69 296.69 314.1C298.02 311.89 299.78 310.12 301.55 308.35C302.66 307.25 303.76 306.14 304.87 305.11C307 305.11 309.21 305.11 311.42 305.11C311.93 305.63 312.45 306.14 313.04 306.73C314.37 306.73 315.77 306.73 317.09 306.73C317.68 306.14 318.19 305.63 318.79 305.11C319.52 304.89 320.04 305.34 320.4 305.92C320.33 306.81 320.7 307.84 319.6 308.35C320.11 308.87 320.7 309.46 321.21 309.97C322.61 308.35 324.31 307.4 326.08 306.29C326.3 307.91 327.18 309.9 326.96 311.59C327.33 312.18 327.77 312.7 328.58 312.48C329.17 312.85 329.61 313.29 329.39 314.1C328.8 314.47 328.36 314.91 328.58 315.72C329.68 316.82 330.79 317.93 331.82 318.96C332.04 319.77 331.6 320.21 331.01 320.65C331.97 321.46 333.07 322.05 334.32 322.27C335.57 322.57 334.69 324.41 335.95 324.7C337.49 325.22 338.52 323.38 340.07 323.89C340.58 324.33 341.1 324.78 340.88 325.51C340.07 326.32 339.19 327.21 338.37 328.02C338.52 329.27 339.26 330.3 340.07 331.26C338.96 333.83 336.6 335.53 335.13 337.81C334.91 338.62 335.35 339.06 335.95 339.43C336.16 340.24 335.72 340.68 335.13 341.05C334.54 341.05 334.03 341.05 333.51 341.05C332.92 341.64 332.41 342.16 331.82 342.74C332.7 343.56 333.51 344.37 334.32 345.17C334.77 346.28 333 346.58 333.51 347.61C334.03 348.19 334.54 348.71 335.13 349.3C335.13 349.82 335.13 350.33 335.13 350.92C336.98 352.61 339.26 353.79 340.88 355.78C341.32 356.88 339.55 357.18 340.07 358.28C341.39 358.94 341.54 360.57 342.5 361.52C344.04 361.01 345.07 362.85 346.55 362.33C347.65 363.44 348.75 364.54 349.86 365.65C350.67 365.65 351.48 365.65 352.29 365.65C354.5 368.59 357 371.32 359.66 373.82C359.73 375.88 359.29 377.8 358.03 379.56C358.33 380.89 357.3 382.51 358.85 383.62C359.73 383.69 360.76 383.32 361.28 384.43C361.28 386.64 361.28 388.85 361.28 390.98C362.67 392.38 364 393.7 365.4 395.1C365.4 395.62 365.4 396.21 365.4 396.72C365.29 396.83 364.41 397.65 364.3 397.75C363.78 397.24 363.48 397.24 362.97 396.72C359.43 397.09 355.75 395.84 352.29 397.54C351.26 399.37 349.86 401 349.86 403.28C348.31 404.75 348.68 405.93 346.84 407.18C345.59 408.21 345.37 409.02 345.37 409.83C345.08 409.83 343.63 409.83 341.02 409.83L331.45 404.9L324.45 408.73Z" id="ebqs9kTfH"/><path d="M438.4 94.3C438.4 94.3 412.19 44.05 411.93 43.72C410.63 41.53 408.25 40.06 405.51 40.06C401.38 40.06 380.7 40.06 343.48 40.06C343.48 22.67 343.48 13.01 343.48 11.07C343.48 5.91 339.61 1.72 334.44 1.72C333.23 1.72 323.5 1.72 322.29 1.72C317.12 1.72 312.62 5.91 312.62 11.07C312.62 13.01 312.62 22.67 312.62 40.06C276.34 40.06 256.18 40.06 252.15 40.06C249.42 40.06 247.03 41.53 245.73 43.72C245.48 44.05 219.26 94.3 219.26 94.3C218.85 94.3 215.62 94.3 215.21 94.3C210.07 94.3 205.08 98.04 205.08 103.19C205.08 103.79 205.08 108.66 205.08 109.27C205.08 134.83 225.8 155.56 251.37 155.56C276.94 155.56 297.66 134.83 297.66 109.27C297.66 108.66 297.66 103.79 297.66 103.19C297.66 98.04 294.23 94.3 289.09 94.3C288.76 94.3 287.09 94.3 284.1 94.3L263.65 55.03L312.62 55.03L312.62 186.88C281.39 186.88 264.04 186.88 260.57 186.88C255.4 186.88 250.9 191.07 250.9 196.24C250.9 197.45 250.9 207.18 250.9 208.39C250.9 213.56 255.4 217.74 260.57 217.74C274.13 217.74 382.6 217.74 396.16 217.74C401.33 217.74 405.2 213.56 405.2 208.39C405.2 207.18 405.2 197.45 405.2 196.24C405.2 191.07 401.33 186.88 396.16 186.88C392.65 186.88 375.09 186.88 343.48 186.88L343.48 55.03L394.01 55.03L373.56 94.3C371.13 94.3 369.78 94.3 369.51 94.3C364.37 94.3 359.38 98.04 359.38 103.19C359.38 103.79 359.38 108.66 359.38 109.27C359.38 134.83 380.11 155.56 405.67 155.56C431.24 155.56 451.96 134.83 451.96 109.27C451.96 108.66 451.96 103.79 451.96 103.19C451.96 98.04 448.53 94.3 443.39 94.3C442.39 94.3 438.9 94.3 438.4 94.3ZM236.13 94.3L251.68 64.43L267.24 94.3L236.13 94.3ZM405.98 64.43L421.54 94.3L390.43 94.3L405.98 64.43Z" id="aFW2e5yYr"/></defs><g><g><g><use xlink:href="#aon3pmFFC" opacity="1" fill="#ffffff" fill-opacity="1"/><g><use xlink:href="#aon3pmFFC" opacity="1" fill-opacity="0" stroke="#ffffff" stroke-width="20" stroke-opacity="1"/></g></g><g><use xlink:href="#fd79Outlf" opacity="1" fill="#ffffff" fill-opacity="1"/><g><use xlink:href="#fd79Outlf" opacity="1" fill-opacity="0" stroke="#ffffff" stroke-width="20" stroke-opacity="1"/></g></g><g><use xlink:href="#e1bra2jQj6" opacity="1" fill="#ffffff" fill-opacity="1"/><g><use xlink:href="#e1bra2jQj6" opacity="1" fill-opacity="0" stroke="#ffffff" stroke-width="20" stroke-opacity="1"/></g></g><g><use xlink:href="#a372NWh88q" opacity="1" fill="#ffffff" fill-opacity="1"/><g><use xlink:href="#a372NWh88q" opacity="1" fill-opacity="0" stroke="#ffffff" stroke-width="20" stroke-opacity="1"/></g></g><g><use xlink:href="#hdpBgBJyy" opacity="1" fill="#ffffff" fill-opacity="1"/><g><use xlink:href="#hdpBgBJyy" opacity="1" fill-opacity="0" stroke="#ffffff" stroke-width="20" stroke-opacity="1"/></g></g><g><use xlink:href="#c2pEf9St4W" opacity="1" fill="#ffffff" fill-opacity="1"/><g><use xlink:href="#c2pEf9St4W" opacity="1" fill-opacity="0" stroke="#ffffff" stroke-width="20" stroke-opacity="1"/></g></g><g><use xlink:href="#bSTwXiJEl" opacity="1" fill="#ffffff" fill-opacity="1"/><g><use xlink:href="#bSTwXiJEl" opacity="1" fill-opacity="0" stroke="#ffffff" stroke-width="20" stroke-opacity="1"/></g></g><g><use xlink:href="#aSrTKSAHd" opacity="1" fill="#ffffff" fill-opacity="1"/><g><use xlink:href="#aSrTKSAHd" opacity="1" fill-opacity="0" stroke="#ffffff" stroke-width="20" stroke-opacity="1"/></g></g><g><use xlink:href="#bpAYD9IL3" opacity="1" fill="#ffffff" fill-opacity="1"/><g><use xlink:href="#bpAYD9IL3" opacity="1" fill-opacity="0" stroke="#ffffff" stroke-width="20" stroke-opacity="1"/></g></g><g><use xlink:href="#gaPpSR7Fm" opacity="1" fill="#ffffff" fill-opacity="1"/><g><use xlink:href="#gaPpSR7Fm" opacity="1" fill-opacity="0" stroke="#ffffff" stroke-width="20" stroke-opacity="1"/></g></g><g><use xlink:href="#fExS82pAw" opacity="1" fill="#ffffff" fill-opacity="1"/><g><use xlink:href="#fExS82pAw" opacity="1" fill-opacity="0" stroke="#ffffff" stroke-width="20" stroke-opacity="1"/></g></g><g><use xlink:href="#c1VyUjqLZH" opacity="1" fill="#ffffff" fill-opacity="1"/><g><use xlink:href="#c1VyUjqLZH" opacity="1" fill-opacity="0" stroke="#ffffff" stroke-width="20" stroke-opacity="1"/></g></g><g><use xlink:href="#d15MTCIH9u" opacity="1" fill="#ffffff" fill-opacity="1"/><g><use xlink:href="#d15MTCIH9u" opacity="1" fill-opacity="0" stroke="#ffffff" stroke-width="20" stroke-opacity="1"/></g></g><g><use xlink:href="#a3Hc6CYTsd" opacity="1" fill="#ffffff" fill-opacity="1"/><g><use xlink:href="#a3Hc6CYTsd" opacity="1" fill-opacity="0" stroke="#ffffff" stroke-width="20" stroke-opacity="1"/></g></g><g><use xlink:href="#c1JksjKua" opacity="1" fill="#ffffff" fill-opacity="1"/><g><use xlink:href="#c1JksjKua" opacity="1" fill-opacity="0" stroke="#ffffff" stroke-width="20" stroke-opacity="1"/></g></g><g><use xlink:href="#f7bARJVcHN" opacity="1" fill="#ffffff" fill-opacity="1"/><g><use xlink:href="#f7bARJVcHN" opacity="1" fill-opacity="0" stroke="#ffffff" stroke-width="20" stroke-opacity="1"/></g></g><g><use xlink:href="#h1zA1JYS5S" opacity="1" fill="#ffffff" fill-opacity="1"/><g><use xlink:href="#h1zA1JYS5S" opacity="1" fill-opacity="0" stroke="#ffffff" stroke-width="20" stroke-opacity="1"/></g></g><g><use xlink:href="#aaXWrOBhi" opacity="1" fill="#ffffff" fill-opacity="1"/><g><use xlink:href="#aaXWrOBhi" opacity="1" fill-opacity="0" stroke="#ffffff" stroke-width="20" stroke-opacity="1"/></g></g><g><use xlink:href="#a7PnSIpN" opacity="1" fill="#ffffff" fill-opacity="1"/><g><use xlink:href="#a7PnSIpN" opacity="1" fill-opacity="0" stroke="#ffffff" stroke-width="20" stroke-opacity="1"/></g></g><g><use xlink:href="#i6Dnd4meE7" opacity="1" fill="#ffffff" fill-opacity="1"/><g><use xlink:href="#i6Dnd4meE7" opacity="1" fill-opacity="0" stroke="#ffffff" stroke-width="20" stroke-opacity="1"/></g></g><g><use xlink:href="#buQxccmz5" opacity="1" fill="#ffffff" fill-opacity="1"/><g><use xlink:href="#buQxccmz5" opacity="1" fill-opacity="0" stroke="#ffffff" stroke-width="20" stroke-opacity="1"/></g></g><g><use xlink:href="#a58etjHh3" opacity="1" fill="#ffffff" fill-opacity="1"/><g><use xlink:href="#a58etjHh3" opacity="1" fill-opacity="0" stroke="#ffffff" stroke-width="20" stroke-opacity="1"/></g></g><g><use xlink:href="#enXDdTUDa" opacity="1" fill="#ffffff" fill-opacity="1"/><g><use xlink:href="#enXDdTUDa" opacity="1" fill-opacity="0" stroke="#ffffff" stroke-width="20" stroke-opacity="1"/></g></g><g><use xlink:href="#b1xO8myGPO" opacity="1" fill="#ffffff" fill-opacity="1"/><g><use xlink:href="#b1xO8myGPO" opacity="1" fill-opacity="0" stroke="#ffffff" stroke-width="20" stroke-opacity="1"/></g></g><g><use xlink:href="#i3zTWyC3nw" opacity="1" fill="#ffffff" fill-opacity="1"/><g><use xlink:href="#i3zTWyC3nw" opacity="1" fill-opacity="0" stroke="#ffffff" stroke-width="20" stroke-opacity="1"/></g></g><g><use xlink:href="#h16zPhxKIR" opacity="1" fill="#ffffff" fill-opacity="1"/><g><use xlink:href="#h16zPhxKIR" opacity="1" fill-opacity="0" stroke="#ffffff" stroke-width="20" stroke-opacity="1"/></g></g><g><use xlink:href="#aNhS7Gegm" opacity="1" fill="#ffffff" fill-opacity="1"/><g><use xlink:href="#aNhS7Gegm" opacity="1" fill-opacity="0" stroke="#ffffff" stroke-width="20" stroke-opacity="1"/></g></g><g><use xlink:href="#e25Skqq3ya" opacity="1" fill="#ffffff" fill-opacity="1"/><g><use xlink:href="#e25Skqq3ya" opacity="1" fill-opacity="0" stroke="#ffffff" stroke-width="20" stroke-opacity="1"/></g></g><g><use xlink:href="#a13yG21x4d" opacity="1" fill="#ffffff" fill-opacity="1"/><g><use xlink:href="#a13yG21x4d" opacity="1" fill-opacity="0" stroke="#ffffff" stroke-width="20" stroke-opacity="1"/></g></g><g><use xlink:href="#c2Yhkiiqv7" opacity="1" fill="#ffffff" fill-opacity="1"/><g><use xlink:href="#c2Yhkiiqv7" opacity="1" fill-opacity="0" stroke="#ffffff" stroke-width="20" stroke-opacity="1"/></g></g><g><use xlink:href="#a1eYGpNd2L" opacity="1" fill="#ffffff" fill-opacity="1"/><g><use xlink:href="#a1eYGpNd2L" opacity="1" fill-opacity="0" stroke="#ffffff" stroke-width="20" stroke-opacity="1"/></g></g><g><use xlink:href="#ebqs9kTfH" opacity="1" fill="#ffffff" fill-opacity="1"/><g><use xlink:href="#ebqs9kTfH" opacity="1" fill-opacity="0" stroke="#ffffff" stroke-width="20" stroke-opacity="1"/></g></g><g><use xlink:href="#aFW2e5yYr" opacity="1" fill="#ffffff" fill-opacity="1"/><g><use xlink:href="#aFW2e5yYr" opacity="1" fill-opacity="0" stroke="#ffffff" stroke-width="1" stroke-opacity="1"/></g></g></g></g></svg>