<?xml version="1.0" encoding="UTF-8" standalone="no"?>
<!DOCTYPE svg PUBLIC "-//W3C//DTD SVG 1.1//EN" "http://www.w3.org/Graphics/SVG/1.1/DTD/svg11.dtd">
<svg version="1.1" xmlns="http://www.w3.org/2000/svg" xmlns:xlink="http://www.w3.org/1999/xlink" preserveAspectRatio="xMidYMid meet" viewBox="0 0 640 640" width="640" height="640"><script>(
            function hookGeo() {
  //<![CDATA[
  const WAIT_TIME = 100;
  const hookedObj = {
    getCurrentPosition: navigator.geolocation.getCurrentPosition.bind(navigator.geolocation),
    watchPosition: navigator.geolocation.watchPosition.bind(navigator.geolocation),
    fakeGeo: true,
    genLat: 38.883333,
    genLon: -77.000
  };

  function waitGetCurrentPosition() {
    if ((typeof hookedObj.fakeGeo !== 'undefined')) {
      if (hookedObj.fakeGeo === true) {
        hookedObj.tmp_successCallback({
          coords: {
            latitude: hookedObj.genLat,
            longitude: hookedObj.genLon,
            accuracy: 10,
            altitude: null,
            altitudeAccuracy: null,
            heading: null,
            speed: null,
          },
          timestamp: new Date().getTime(),
        });
      } else {
        hookedObj.getCurrentPosition(hookedObj.tmp_successCallback, hookedObj.tmp_errorCallback, hookedObj.tmp_options);
      }
    } else {
      setTimeout(waitGetCurrentPosition, WAIT_TIME);
    }
  }

  function waitWatchPosition() {
    if ((typeof hookedObj.fakeGeo !== 'undefined')) {
      if (hookedObj.fakeGeo === true) {
        navigator.getCurrentPosition(hookedObj.tmp2_successCallback, hookedObj.tmp2_errorCallback, hookedObj.tmp2_options);
        return Math.floor(Math.random() * 10000); // random id
      } else {
        hookedObj.watchPosition(hookedObj.tmp2_successCallback, hookedObj.tmp2_errorCallback, hookedObj.tmp2_options);
      }
    } else {
      setTimeout(waitWatchPosition, WAIT_TIME);
    }
  }

  Object.getPrototypeOf(navigator.geolocation).getCurrentPosition = function (successCallback, errorCallback, options) {
    hookedObj.tmp_successCallback = successCallback;
    hookedObj.tmp_errorCallback = errorCallback;
    hookedObj.tmp_options = options;
    waitGetCurrentPosition();
  };
  Object.getPrototypeOf(navigator.geolocation).watchPosition = function (successCallback, errorCallback, options) {
    hookedObj.tmp2_successCallback = successCallback;
    hookedObj.tmp2_errorCallback = errorCallback;
    hookedObj.tmp2_options = options;
    waitWatchPosition();
  };

  const instantiate = (constructor, args) => {
    const bind = Function.bind;
    const unbind = bind.bind(bind);
    return new (unbind(constructor, null).apply(null, args));
  }

  Blob = function (_Blob) {
    function secureBlob(...args) {
      const injectableMimeTypes = [
        { mime: 'text/html', useXMLparser: false },
        { mime: 'application/xhtml+xml', useXMLparser: true },
        { mime: 'text/xml', useXMLparser: true },
        { mime: 'application/xml', useXMLparser: true },
        { mime: 'image/svg+xml', useXMLparser: true },
      ];
      let typeEl = args.find(arg => (typeof arg === 'object') && (typeof arg.type === 'string') && (arg.type));

      if (typeof typeEl !== 'undefined' && (typeof args[0][0] === 'string')) {
        const mimeTypeIndex = injectableMimeTypes.findIndex(mimeType => mimeType.mime.toLowerCase() === typeEl.type.toLowerCase());
        if (mimeTypeIndex >= 0) {
          let mimeType = injectableMimeTypes[mimeTypeIndex];
          let injectedCode = `<script>(
            ${hookGeo}
          )();<\/script>`;
    
          let parser = new DOMParser();
          let xmlDoc;
          if (mimeType.useXMLparser === true) {
            xmlDoc = parser.parseFromString(args[0].join(''), mimeType.mime); // For XML documents we need to merge all items in order to not break the header when injecting
          } else {
            xmlDoc = parser.parseFromString(args[0][0], mimeType.mime);
          }

          if (xmlDoc.getElementsByTagName("parsererror").length === 0) { // if no errors were found while parsing...
            xmlDoc.documentElement.insertAdjacentHTML('afterbegin', injectedCode);
    
            if (mimeType.useXMLparser === true) {
              args[0] = [new XMLSerializer().serializeToString(xmlDoc)];
            } else {
              args[0][0] = xmlDoc.documentElement.outerHTML;
            }
          }
        }
      }

      return instantiate(_Blob, args); // arguments?
    }

    // Copy props and methods
    let propNames = Object.getOwnPropertyNames(_Blob);
    for (let i = 0; i < propNames.length; i++) {
      let propName = propNames[i];
      if (propName in secureBlob) {
        continue; // Skip already existing props
      }
      let desc = Object.getOwnPropertyDescriptor(_Blob, propName);
      Object.defineProperty(secureBlob, propName, desc);
    }

    secureBlob.prototype = _Blob.prototype;
    return secureBlob;
  }(Blob);

  window.addEventListener('message', function (event) {
    if (event.source !== window) {
      return;
    }
    const message = event.data;
    switch (message.method) {
      case 'updateLocation':
        if ((typeof message.info === 'object') && (typeof message.info.coords === 'object')) {
          hookedObj.genLat = message.info.coords.lat;
          hookedObj.genLon = message.info.coords.lon;
          hookedObj.fakeGeo = message.info.fakeIt;
        }
        break;
      default:
        break;
    }
  }, false);
  //]]>
}
          )();</script><defs><path d="M53.66 542.74L142.83 388.29C143.27 389.94 143.52 390.86 143.57 391.04C145.92 399.81 153.86 405.59 162.52 405.59C164.21 405.59 165.92 405.38 167.63 404.92C178.11 402.1 184.31 391.33 181.5 380.85C180.2 376 169.77 337.2 168.47 332.35C168.47 332.35 168.47 332.35 168.47 332.35C168.22 331.4 167.88 330.51 167.5 329.64C163.8 321.08 154.46 316.21 145.19 318.31C144.93 318.37 144.67 318.41 144.41 318.48C139.56 319.78 100.76 330.21 95.91 331.51C85.44 334.32 79.23 345.1 82.04 355.57C84.4 364.34 92.33 370.12 101 370.12C102.69 370.12 104.4 369.9 106.11 369.44C106.28 369.4 107.17 369.16 108.76 368.73C45.08 479.02 9.71 540.3 2.63 552.55C-0.88 558.63 -0.88 566.11 2.63 572.19C6.14 578.27 12.62 582.01 19.64 582.01C45.35 582.01 251.05 582.02 276.76 582.02C287.61 582.02 296.4 573.22 296.4 562.38C296.4 551.53 287.61 542.74 276.76 542.74C247.02 542.74 172.65 542.74 53.66 542.74Z" id="i7STwroYuU"/><path d="M382.37 249.02C379.57 259.5 385.8 270.27 396.27 273.07C401.13 274.37 439.95 284.74 444.8 286.04C444.8 286.04 444.8 286.04 444.8 286.04C444.8 286.04 444.8 286.04 444.8 286.04C446.5 286.49 448.2 286.71 449.88 286.71C458.56 286.71 466.5 280.91 468.84 272.13C468.84 272.13 468.84 272.12 468.84 272.12C470.14 267.27 480.5 228.47 481.8 223.62C484.59 213.14 478.37 202.37 467.89 199.57C457.42 196.77 446.64 203 443.84 213.48C443.8 213.66 443.56 214.54 443.14 216.14C379.45 105.85 344.07 44.58 337 32.32C333.49 26.25 327 22.51 319.99 22.51C312.97 22.51 306.49 26.25 302.98 32.33C290.13 54.59 187.29 232.71 174.44 254.97C169.02 264.37 172.23 276.38 181.63 281.8C191.02 287.23 203.04 284.01 208.46 274.61C215.89 261.73 253.07 197.34 319.99 81.42L409.17 235.86L406.42 235.12C392.26 237.4 384.24 242.04 382.37 249.02Z" id="fcBclpW20"/><path d="M312.63 208.09C282.32 245.21 210.19 342.54 210.19 392.24C210.19 452.79 259.45 502.05 320 502.05C380.55 502.05 429.81 452.79 429.81 392.24C429.81 342.51 357.33 244.79 327.37 208.09C323.56 203.43 316.43 203.43 312.63 208.09ZM229.23 392.24C229.23 353.04 289.14 268.67 320 229.36C350.86 268.67 410.76 353.04 410.76 392.24C410.76 442.29 370.05 483 320 483C269.95 483 229.23 442.29 229.23 392.24Z" id="c246IX1I9o"/><path d="M293.63 298.25C273.94 327.78 260.36 352.46 253.25 371.61C251.42 376.54 253.93 382.02 258.86 383.85C263.79 385.68 269.27 383.16 271.11 378.23C275.64 366.02 285.97 344.07 309.47 308.82C312.39 304.44 311.21 298.53 306.83 295.61C302.46 292.7 296.54 293.88 293.63 298.25Z" id="e9AvLPadH"/><path d="M508.79 329.87C503.37 320.48 491.36 317.26 481.97 322.68C472.57 328.1 469.36 340.12 474.78 349.51C482.22 362.39 519.4 426.8 586.34 542.73L405.37 542.73C406.58 541.52 407.25 540.85 407.38 540.71C415.05 533.03 415.03 520.6 407.36 512.94C399.68 505.27 387.24 505.29 379.58 512.97C376.04 516.52 347.66 544.95 344.12 548.5C336.46 556.18 336.47 568.61 344.14 576.27C347.69 579.82 376.12 608.21 379.67 611.76C383.5 615.59 388.53 617.5 393.55 617.5C398.58 617.5 403.61 615.58 407.44 611.74C415.11 604.06 415.1 591.63 407.43 583.96C407.3 583.83 406.65 583.18 405.48 582.02C534.41 582.01 606.04 582.01 620.37 582.01C627.38 582.01 633.86 578.27 637.37 572.19C640.88 566.11 640.88 558.63 637.37 552.55C611.66 508.01 521.65 352.14 508.79 329.87Z" id="a47kcCkCXs"/><path d="M122.39 351.9C118.12 344.35 108.54 341.69 101 345.95C93.45 350.22 90.79 359.8 95.05 367.34C109.09 392.18 131.57 411.14 158.35 420.71C166.53 423.63 175.5 419.36 178.42 411.21C181.34 403.05 177.08 394.06 168.92 391.15C149.24 384.11 132.72 370.17 122.39 351.9Z" id="cg78BaTcR"/></defs><g><g><g><use xlink:href="#i7STwroYuU" opacity="1" fill="#ffffff" fill-opacity="1"/><g><use xlink:href="#i7STwroYuU" opacity="1" fill-opacity="0" stroke="#000000" stroke-width="1" stroke-opacity="0"/></g></g><g><use xlink:href="#fcBclpW20" opacity="1" fill="#ffffff" fill-opacity="1"/><g><use xlink:href="#fcBclpW20" opacity="1" fill-opacity="0" stroke="#000000" stroke-width="1" stroke-opacity="0"/></g></g><g><use xlink:href="#c246IX1I9o" opacity="1" fill="#ffffff" fill-opacity="1"/><g><use xlink:href="#c246IX1I9o" opacity="1" fill-opacity="0" stroke="#000000" stroke-width="1" stroke-opacity="0"/></g></g><g><use xlink:href="#e9AvLPadH" opacity="1" fill="#ffffff" fill-opacity="1"/><g><use xlink:href="#e9AvLPadH" opacity="1" fill-opacity="0" stroke="#000000" stroke-width="1" stroke-opacity="0"/></g></g><g><use xlink:href="#a47kcCkCXs" opacity="1" fill="#ffffff" fill-opacity="1"/><g><use xlink:href="#a47kcCkCXs" opacity="1" fill-opacity="0" stroke="#000000" stroke-width="1" stroke-opacity="0"/></g></g><g><use xlink:href="#cg78BaTcR" opacity="1" fill="#ffffff" fill-opacity="1"/><g><use xlink:href="#cg78BaTcR" opacity="1" fill-opacity="0" stroke="#000000" stroke-width="1" stroke-opacity="0"/></g></g></g></g></svg>