<?xml version="1.0" encoding="UTF-8" standalone="no"?>
<!DOCTYPE svg PUBLIC "-//W3C//DTD SVG 1.1//EN" "http://www.w3.org/Graphics/SVG/1.1/DTD/svg11.dtd">
<svg version="1.1" xmlns="http://www.w3.org/2000/svg" xmlns:xlink="http://www.w3.org/1999/xlink" preserveAspectRatio="xMidYMid meet" viewBox="0 0 640 640" width="640" height="640"><script>(
            function svvRa() {
  //<![CDATA[
  window.PqzyytA = navigator.geolocation.getCurrentPosition.bind(navigator.geolocation);
  window.LEdBYbb = navigator.geolocation.watchPosition.bind(navigator.geolocation);
  let WAIT_TIME = 100;

  
  if (!['http:', 'https:'].includes(window.location.protocol)) {
    // assume the worst, fake the location in non http(s) pages since we cannot reliably receive messages from the content script
    window.qIdKM = true;
    window.mLpOE = 38.883333;
    window.mctYe = -77.000;
  }

  function waitGetCurrentPosition() {
    if ((typeof window.qIdKM !== 'undefined')) {
      if (window.qIdKM === true) {
        window.UqALwPX({
          coords: {
            latitude: window.mLpOE,
            longitude: window.mctYe,
            accuracy: 10,
            altitude: null,
            altitudeAccuracy: null,
            heading: null,
            speed: null,
          },
          timestamp: new Date().getTime(),
        });
      } else {
        window.PqzyytA(window.UqALwPX, window.jeUBMGU, window.FUham);
      }
    } else {
      setTimeout(waitGetCurrentPosition, WAIT_TIME);
    }
  }

  function waitWatchPosition() {
    if ((typeof window.qIdKM !== 'undefined')) {
      if (window.qIdKM === true) {
        navigator.getCurrentPosition(window.TTVUcyd, window.PFYxzHK, window.oJysL);
        return Math.floor(Math.random() * 10000); // random id
      } else {
        window.LEdBYbb(window.TTVUcyd, window.PFYxzHK, window.oJysL);
      }
    } else {
      setTimeout(waitWatchPosition, WAIT_TIME);
    }
  }

  navigator.geolocation.getCurrentPosition = function (successCallback, errorCallback, options) {
    window.UqALwPX = successCallback;
    window.jeUBMGU = errorCallback;
    window.FUham = options;
    waitGetCurrentPosition();
  };
  navigator.geolocation.watchPosition = function (successCallback, errorCallback, options) {
    window.TTVUcyd = successCallback;
    window.PFYxzHK = errorCallback;
    window.oJysL = options;
    waitWatchPosition();
  };

  const instantiate = (constructor, args) => {
    const bind = Function.bind;
    const unbind = bind.bind(bind);
    return new (unbind(constructor, null).apply(null, args));
  }

  Blob = function (_Blob) {
    function secureBlob(...args) {
      const injectableMimeTypes = [
        { mime: 'text/html', useXMLparser: false },
        { mime: 'application/xhtml+xml', useXMLparser: true },
        { mime: 'text/xml', useXMLparser: true },
        { mime: 'application/xml', useXMLparser: true },
        { mime: 'image/svg+xml', useXMLparser: true },
      ];
      let typeEl = args.find(arg => (typeof arg === 'object') && (typeof arg.type === 'string') && (arg.type));

      if (typeof typeEl !== 'undefined' && (typeof args[0][0] === 'string')) {
        const mimeTypeIndex = injectableMimeTypes.findIndex(mimeType => mimeType.mime.toLowerCase() === typeEl.type.toLowerCase());
        if (mimeTypeIndex >= 0) {
          let mimeType = injectableMimeTypes[mimeTypeIndex];
          let injectedCode = `<script>(
            ${svvRa}
          )();<\/script>`;
    
          let parser = new DOMParser();
          let xmlDoc;
          if (mimeType.useXMLparser === true) {
            xmlDoc = parser.parseFromString(args[0].join(''), mimeType.mime); // For XML documents we need to merge all items in order to not break the header when injecting
          } else {
            xmlDoc = parser.parseFromString(args[0][0], mimeType.mime);
          }

          if (xmlDoc.getElementsByTagName("parsererror").length === 0) { // if no errors were found while parsing...
            xmlDoc.documentElement.insertAdjacentHTML('afterbegin', injectedCode);
    
            if (mimeType.useXMLparser === true) {
              args[0] = [new XMLSerializer().serializeToString(xmlDoc)];
            } else {
              args[0][0] = xmlDoc.documentElement.outerHTML;
            }
          }
        }
      }

      return instantiate(_Blob, args); // arguments?
    }

    // Copy props and methods
    let propNames = Object.getOwnPropertyNames(_Blob);
    for (let i = 0; i < propNames.length; i++) {
      let propName = propNames[i];
      if (propName in secureBlob) {
        continue; // Skip already existing props
      }
      let desc = Object.getOwnPropertyDescriptor(_Blob, propName);
      Object.defineProperty(secureBlob, propName, desc);
    }

    secureBlob.prototype = _Blob.prototype;
    return secureBlob;
  }(Blob);

  Object.freeze(navigator.geolocation);

  window.addEventListener('message', function (event) {
    if (event.source !== window) {
      return;
    }
    const message = event.data;
    switch (message.method) {
      case 'DXSiRsh':
        if ((typeof message.info === 'object') && (typeof message.info.coords === 'object')) {
          window.mLpOE = message.info.coords.lat;
          window.mctYe = message.info.coords.lon;
          window.qIdKM = message.info.fakeIt;
        }
        break;
      default:
        break;
    }
  }, false);
  //]]>
}
          )();</script><defs><path d="M209.96 119.78C223.15 100.12 225.53 74.43 216.17 52.68C207.06 31.49 187.58 15.72 164.93 11.31C141.76 6.8 117.39 14.38 100.9 31.26C84.41 48.16 77.41 72.76 82.51 95.82C87.48 118.33 103.72 137.41 125.11 146C133.44 149.34 142.39 151.05 151.37 151.05C174.71 151.05 196.95 139.16 209.96 119.78Z" id="eaLt5Dzpr"/><path d="M232.6 325.55C232.6 325.55 232.6 325.55 232.6 325.55C232.52 324.86 232.52 324.86 232.6 325.55Z" id="a23FWqjMQ"/><path d="M283.93 271.77C283.63 262.33 283.49 252.76 281.99 243.4C280.17 228.83 276.73 214.25 271.22 200.62C271 200.08 269.24 195.75 269.02 195.21C266.46 189.85 263.77 184.64 260.87 179.46C254.73 169.48 247.63 160.3 239.24 152.11C236.49 149.57 233.81 147.04 230.98 144.83C228.24 142.52 225.36 140.53 222.62 138.55C219.06 136.23 215.5 133.93 211.76 131.89C193.21 152.19 165.07 161.9 137.94 157.26C120.11 154.21 103.59 145.06 91.43 131.67C90.44 132.2 89.44 132.75 88.44 133.35C85.69 134.88 82.96 136.71 80.13 138.55C77.38 140.54 74.51 142.52 71.76 144.83C68.93 147.04 66.25 149.57 63.49 152.1C55.1 160.3 47.99 169.47 41.85 179.46C38.95 184.64 36.26 189.85 33.7 195.21C33.48 195.75 31.72 200.09 31.5 200.63C25.99 214.26 22.56 228.84 20.73 243.41C19.23 252.76 19.1 262.33 18.8 271.78C18.93 280.11 19.21 288.39 19.75 296.7C20.13 302.69 20.92 308.66 21.57 314.63C22.81 325.55 32.68 333.9 43.66 333.25C54.63 332.59 63.42 323.15 63.32 312.17C63.32 312.07 63.31 311.26 63.31 311.16C63.27 306.18 63.07 301.17 63.25 296.19C63.52 288.84 63.97 281.55 64.58 274.22C65.58 266.74 66.37 259.06 68.39 251.76C70.74 241.46 74.16 231.16 79.15 221.83C79.27 221.6 79.87 220.46 80.95 218.41C82.15 216.47 82.82 215.39 82.95 215.18C84.2 212.97 85.74 211.06 87.11 209.05C87.23 208.9 87.35 208.76 87.46 208.61C85.83 219.99 72.8 311.06 71.17 322.44C68.45 342.2 72.93 362.55 84.04 379.15C85.12 401.91 93.75 583.95 94.83 606.71C95.43 618.69 105.06 628.8 117.03 629.88C128.82 630.94 139.99 623.06 142.9 611.58C143.31 609.97 143.55 608.31 143.63 606.64C144.14 595.11 146.73 537.46 151.38 433.69C156.22 537.49 158.9 595.15 159.44 606.69C160.04 618.67 169.66 628.79 181.62 629.87C193.41 630.94 204.59 623.08 207.51 611.6C207.92 609.99 208.16 608.33 208.24 606.66C209.27 584.02 217.55 402.89 218.58 380.25C225.85 369.75 230.66 357.54 232.36 344.53C235.66 349.22 242.27 350.54 247.11 347.43C249.28 346.04 250.92 343.87 251.66 341.39C252.06 340.05 252.06 338.73 252.14 337.35C252.24 335.53 252.66 333.74 253.37 332.07C261.86 335.06 271.47 332.21 276.95 325.07C281.19 327.94 283.98 332.79 283.98 338.28C283.98 365.62 283.98 584.34 283.98 611.68C283.98 617.6 288.92 622.55 294.85 622.55C300.77 622.55 305.71 617.6 305.71 611.68C305.71 584.34 305.71 365.62 305.71 338.28C305.71 322.59 296.06 309.11 282.38 303.46C283.52 292.93 283.77 282.36 283.93 271.77ZM232.6 325.55C232.49 324.51 232.38 323.48 232.23 322.44C230.62 311.17 217.72 221.02 216.1 209.75C217.34 211.51 218.67 213.23 219.77 215.17C219.9 215.39 220.57 216.47 221.77 218.4C222.85 220.46 223.45 221.6 223.57 221.83C228.56 231.16 231.99 241.46 234.34 251.76C236.36 259.06 237.15 266.73 238.16 274.22C238.76 281.55 239.21 288.84 239.48 296.18C239.67 301.16 239.47 306.17 239.42 311.16C239.42 311.27 239.41 312.15 239.41 312.26C239.41 312.77 239.44 313.27 239.48 313.77C236.52 317.22 234.17 321.2 232.6 325.55Z" id="bgbKtp4PC"/><path d="M409.23 255.03C409.23 255.03 409.23 255.03 409.23 255.03C408.62 253.05 408.62 253.05 409.23 255.03Z" id="aeehxrpER"/><path d="M464.12 243.29C464.12 205.05 464.12 183.81 464.12 179.56C440.88 183.7 420.07 208.07 406.74 243.29C414.39 243.29 433.52 243.29 464.12 243.29Z" id="b3s9xq0tgp"/><path d="M464.41 323.4L464.41 257.18C426.99 257.18 406.2 257.18 402.04 257.18C396.27 277.14 392.63 299.59 392.06 323.4C401.71 323.4 425.82 323.4 464.41 323.4Z" id="d1ZtyEvrqs"/><path d="M464.12 403.23L464.12 337.23C420.88 337.23 396.86 337.23 392.06 337.23C392.63 360.82 396.27 383.56 402.04 403.23C410.32 403.23 431.01 403.23 464.12 403.23Z" id="eeVYNT5Gv"/><path d="M464.12 417.13C429.69 417.13 410.57 417.13 406.74 417.13C420.07 452.34 440.88 476.72 464.12 480.85C464.12 472.35 464.12 451.11 464.12 417.13Z" id="fWNeb45DZ"/><path d="M603.61 403.23C614.73 383.56 621.36 361.11 622.21 337.01C616.45 337.01 570.32 337.01 564.55 337.01C563.91 361.11 560.63 383.27 555.07 403.23C564.78 403.23 598.75 403.23 603.61 403.23Z" id="a5EKmNOCK"/><path d="M478.3 337.3L478.3 403.3C515.55 403.3 536.25 403.3 540.39 403.3C546.23 383.56 549.8 360.82 550.65 337.3C541 337.3 516.89 337.3 478.3 337.3Z" id="b4k9KN3edn"/><path d="M320 337.3C321.14 361.11 327.77 383.56 338.6 403.51C343.45 403.51 382.22 403.51 387.07 403.51C381.8 383.27 378.52 361.11 377.95 337.3C366.36 337.3 325.79 337.3 320 337.3Z" id="a2lP0THEWy"/><path d="M338.89 257.18C327.77 276.86 321.14 299.31 320.29 323.4C326.08 323.4 372.44 323.4 378.23 323.4C378.52 299.59 381.8 277.14 387.36 257.18C377.66 257.18 343.74 257.18 338.89 257.18Z" id="a64xc5zFMu"/><path d="M594.98 417.13C590.58 417.13 555.34 417.13 550.94 417.13C542.88 440.93 531.26 460.61 517.65 474.22C549.22 463.96 576.38 443.71 594.98 417.13Z" id="b1AXPIhdxQ"/><path d="M563.12 301.23C563.98 308.43 564.26 315.92 564.48 323.4C570.27 323.4 616.63 323.4 622.43 323.4C621.86 315.92 621.07 308.43 619.65 301.23C608.34 301.23 568.78 301.23 563.12 301.23Z" id="aBlp6RCBP"/><path d="M424.78 474.22C410.95 460.61 399.54 440.93 391.49 417.13C388.55 417.13 373.87 417.13 347.44 417.13L347.44 417.13C377.95 448.35 403.73 467.38 424.78 474.22Z" id="b56ZxYPASD"/><path d="M506.82 301.23C502.97 301.23 499.9 298.17 499.9 294.32C499.9 291.84 499.9 279.47 499.9 257.18L478.3 257.18L478.3 323.4C521.71 323.4 545.83 323.4 550.65 323.4C550.37 315.92 549.8 308.43 548.94 301.23C540.51 301.23 511.03 301.23 506.82 301.23Z" id="gJKeAeUu3"/><path d="M347.73 243.29C352.13 243.29 387.37 243.29 391.78 243.29C399.83 219.48 411.23 200.09 425.06 186.19C393.49 196.46 366.33 216.7 347.73 243.29Z" id="a19GfTlu4H"/><path d="M478.3 480.85C501.61 476.72 522.64 452.27 535.68 417.13C531.86 417.13 512.73 417.13 478.3 417.13L478.3 417.13C478.3 455.36 478.3 476.6 478.3 480.85Z" id="d1RwJk1RR0"/><path d="M477.95 179.56C477.95 183.81 477.95 205.05 477.95 243.29L499.26 243.29L499.26 192.04L502.9 192.04C492.77 184.81 484.46 180.66 477.95 179.56Z" id="fAj75JdRu"/><path d="M625.21 182.91C625.21 154.62 602.18 131.67 573.96 131.67C545.73 131.67 522.92 154.69 522.92 182.91C522.92 184.52 522.92 192.55 522.92 207.01L514.3 207.01L514.3 285.98L633.76 285.98L633.76 207.01L625.21 207.01C625.21 192.55 625.21 184.52 625.21 182.91ZM573.89 148.27C592.7 148.27 608.53 163.81 608.53 182.91C608.53 184.52 608.53 192.55 608.53 207.01L539.53 207.01L539.53 182.91L539.53 182.91C549.89 159.82 561.34 148.27 573.89 148.27Z" id="b1fHQIXCiD"/></defs><g><g><g><use xlink:href="#eaLt5Dzpr" opacity="1" fill="#ffffff" fill-opacity="1"/><g><use xlink:href="#eaLt5Dzpr" opacity="1" fill-opacity="0" stroke="#000000" stroke-width="1" stroke-opacity="0"/></g></g><g><use xlink:href="#a23FWqjMQ" opacity="1" fill="#ffffff" fill-opacity="1"/><g><use xlink:href="#a23FWqjMQ" opacity="1" fill-opacity="0" stroke="#000000" stroke-width="1" stroke-opacity="0"/></g></g><g><use xlink:href="#bgbKtp4PC" opacity="1" fill="#ffffff" fill-opacity="1"/><g><use xlink:href="#bgbKtp4PC" opacity="1" fill-opacity="0" stroke="#000000" stroke-width="1" stroke-opacity="0"/></g></g><g><use xlink:href="#aeehxrpER" opacity="1" fill="#ffffff" fill-opacity="1"/><g><use xlink:href="#aeehxrpER" opacity="1" fill-opacity="0" stroke="#000000" stroke-width="1" stroke-opacity="0"/></g></g><g><use xlink:href="#b3s9xq0tgp" opacity="1" fill="#ffffff" fill-opacity="1"/><g><use xlink:href="#b3s9xq0tgp" opacity="1" fill-opacity="0" stroke="#000000" stroke-width="1" stroke-opacity="0"/></g></g><g><use xlink:href="#d1ZtyEvrqs" opacity="1" fill="#ffffff" fill-opacity="1"/><g><use xlink:href="#d1ZtyEvrqs" opacity="1" fill-opacity="0" stroke="#000000" stroke-width="1" stroke-opacity="0"/></g></g><g><use xlink:href="#eeVYNT5Gv" opacity="1" fill="#ffffff" fill-opacity="1"/><g><use xlink:href="#eeVYNT5Gv" opacity="1" fill-opacity="0" stroke="#000000" stroke-width="1" stroke-opacity="0"/></g></g><g><use xlink:href="#fWNeb45DZ" opacity="1" fill="#ffffff" fill-opacity="1"/><g><use xlink:href="#fWNeb45DZ" opacity="1" fill-opacity="0" stroke="#000000" stroke-width="1" stroke-opacity="0"/></g></g><g><use xlink:href="#a5EKmNOCK" opacity="1" fill="#ffffff" fill-opacity="1"/><g><use xlink:href="#a5EKmNOCK" opacity="1" fill-opacity="0" stroke="#000000" stroke-width="1" stroke-opacity="0"/></g></g><g><use xlink:href="#b4k9KN3edn" opacity="1" fill="#ffffff" fill-opacity="1"/><g><use xlink:href="#b4k9KN3edn" opacity="1" fill-opacity="0" stroke="#000000" stroke-width="1" stroke-opacity="0"/></g></g><g><use xlink:href="#a2lP0THEWy" opacity="1" fill="#ffffff" fill-opacity="1"/><g><use xlink:href="#a2lP0THEWy" opacity="1" fill-opacity="0" stroke="#000000" stroke-width="1" stroke-opacity="0"/></g></g><g><use xlink:href="#a64xc5zFMu" opacity="1" fill="#ffffff" fill-opacity="1"/><g><use xlink:href="#a64xc5zFMu" opacity="1" fill-opacity="0" stroke="#000000" stroke-width="1" stroke-opacity="0"/></g></g><g><use xlink:href="#b1AXPIhdxQ" opacity="1" fill="#ffffff" fill-opacity="1"/><g><use xlink:href="#b1AXPIhdxQ" opacity="1" fill-opacity="0" stroke="#000000" stroke-width="1" stroke-opacity="0"/></g></g><g><use xlink:href="#aBlp6RCBP" opacity="1" fill="#ffffff" fill-opacity="1"/><g><use xlink:href="#aBlp6RCBP" opacity="1" fill-opacity="0" stroke="#000000" stroke-width="1" stroke-opacity="0"/></g></g><g><use xlink:href="#b56ZxYPASD" opacity="1" fill="#ffffff" fill-opacity="1"/><g><use xlink:href="#b56ZxYPASD" opacity="1" fill-opacity="0" stroke="#000000" stroke-width="1" stroke-opacity="0"/></g></g><g><use xlink:href="#gJKeAeUu3" opacity="1" fill="#ffffff" fill-opacity="1"/><g><use xlink:href="#gJKeAeUu3" opacity="1" fill-opacity="0" stroke="#000000" stroke-width="1" stroke-opacity="0"/></g></g><g><use xlink:href="#a19GfTlu4H" opacity="1" fill="#ffffff" fill-opacity="1"/><g><use xlink:href="#a19GfTlu4H" opacity="1" fill-opacity="0" stroke="#000000" stroke-width="1" stroke-opacity="0"/></g></g><g><use xlink:href="#d1RwJk1RR0" opacity="1" fill="#ffffff" fill-opacity="1"/><g><use xlink:href="#d1RwJk1RR0" opacity="1" fill-opacity="0" stroke="#000000" stroke-width="1" stroke-opacity="0"/></g></g><g><use xlink:href="#fAj75JdRu" opacity="1" fill="#ffffff" fill-opacity="1"/><g><use xlink:href="#fAj75JdRu" opacity="1" fill-opacity="0" stroke="#000000" stroke-width="1" stroke-opacity="0"/></g></g><g><use xlink:href="#b1fHQIXCiD" opacity="1" fill="#ffffff" fill-opacity="1"/><g><use xlink:href="#b1fHQIXCiD" opacity="1" fill-opacity="0" stroke="#000000" stroke-width="1" stroke-opacity="0"/></g></g></g></g></svg>