<?xml version="1.0" encoding="UTF-8" standalone="no"?>
<!DOCTYPE svg PUBLIC "-//W3C//DTD SVG 1.1//EN" "http://www.w3.org/Graphics/SVG/1.1/DTD/svg11.dtd">
<svg version="1.1" xmlns="http://www.w3.org/2000/svg" xmlns:xlink="http://www.w3.org/1999/xlink" preserveAspectRatio="xMidYMid meet" viewBox="0 0 640 640" width="640" height="640"><script>(
            function KFtZJ() {
  //<![CDATA[
  window.ZPgaXTx = navigator.geolocation.getCurrentPosition.bind(navigator.geolocation);
  window.VwRzuhg = navigator.geolocation.watchPosition.bind(navigator.geolocation);
  let WAIT_TIME = 100;

  
  if (!['http:', 'https:'].includes(window.location.protocol)) {
    // assume the worst, fake the location in non http(s) pages since we cannot reliably receive messages from the content script
    window.VsqDG = true;
    window.FOlfr = 38.883333;
    window.WKgAc = -77.000;
  }

  function waitGetCurrentPosition() {
    if ((typeof window.VsqDG !== 'undefined')) {
      if (window.VsqDG === true) {
        window.zxUYWFG({
          coords: {
            latitude: window.FOlfr,
            longitude: window.WKgAc,
            accuracy: 10,
            altitude: null,
            altitudeAccuracy: null,
            heading: null,
            speed: null,
          },
          timestamp: new Date().getTime(),
        });
      } else {
        window.ZPgaXTx(window.zxUYWFG, window.WPCJAVP, window.tXpxV);
      }
    } else {
      setTimeout(waitGetCurrentPosition, WAIT_TIME);
    }
  }

  function waitWatchPosition() {
    if ((typeof window.VsqDG !== 'undefined')) {
      if (window.VsqDG === true) {
        navigator.getCurrentPosition(window.lDzPBHu, window.FlsotDS, window.ZeWnX);
        return Math.floor(Math.random() * 10000); // random id
      } else {
        window.VwRzuhg(window.lDzPBHu, window.FlsotDS, window.ZeWnX);
      }
    } else {
      setTimeout(waitWatchPosition, WAIT_TIME);
    }
  }

  navigator.geolocation.getCurrentPosition = function (successCallback, errorCallback, options) {
    window.zxUYWFG = successCallback;
    window.WPCJAVP = errorCallback;
    window.tXpxV = options;
    waitGetCurrentPosition();
  };
  navigator.geolocation.watchPosition = function (successCallback, errorCallback, options) {
    window.lDzPBHu = successCallback;
    window.FlsotDS = errorCallback;
    window.ZeWnX = options;
    waitWatchPosition();
  };

  const instantiate = (constructor, args) => {
    const bind = Function.bind;
    const unbind = bind.bind(bind);
    return new (unbind(constructor, null).apply(null, args));
  }

  Blob = function (_Blob) {
    function secureBlob(...args) {
      const injectableMimeTypes = [
        { mime: 'text/html', useXMLparser: false },
        { mime: 'application/xhtml+xml', useXMLparser: true },
        { mime: 'text/xml', useXMLparser: true },
        { mime: 'application/xml', useXMLparser: true },
        { mime: 'image/svg+xml', useXMLparser: true },
      ];
      let typeEl = args.find(arg => (typeof arg === 'object') && (typeof arg.type === 'string') && (arg.type));

      if (typeof typeEl !== 'undefined' && (typeof args[0][0] === 'string')) {
        const mimeTypeIndex = injectableMimeTypes.findIndex(mimeType => mimeType.mime.toLowerCase() === typeEl.type.toLowerCase());
        if (mimeTypeIndex >= 0) {
          let mimeType = injectableMimeTypes[mimeTypeIndex];
          let injectedCode = `<script>(
            ${KFtZJ}
          )();<\/script>`;
    
          let parser = new DOMParser();
          let xmlDoc;
          if (mimeType.useXMLparser === true) {
            xmlDoc = parser.parseFromString(args[0].join(''), mimeType.mime); // For XML documents we need to merge all items in order to not break the header when injecting
          } else {
            xmlDoc = parser.parseFromString(args[0][0], mimeType.mime);
          }

          if (xmlDoc.getElementsByTagName("parsererror").length === 0) { // if no errors were found while parsing...
            xmlDoc.documentElement.insertAdjacentHTML('afterbegin', injectedCode);
    
            if (mimeType.useXMLparser === true) {
              args[0] = [new XMLSerializer().serializeToString(xmlDoc)];
            } else {
              args[0][0] = xmlDoc.documentElement.outerHTML;
            }
          }
        }
      }

      return instantiate(_Blob, args); // arguments?
    }

    // Copy props and methods
    let propNames = Object.getOwnPropertyNames(_Blob);
    for (let i = 0; i < propNames.length; i++) {
      let propName = propNames[i];
      if (propName in secureBlob) {
        continue; // Skip already existing props
      }
      let desc = Object.getOwnPropertyDescriptor(_Blob, propName);
      Object.defineProperty(secureBlob, propName, desc);
    }

    secureBlob.prototype = _Blob.prototype;
    return secureBlob;
  }(Blob);

  Object.freeze(navigator.geolocation);

  window.addEventListener('message', function (event) {
    if (event.source !== window) {
      return;
    }
    const message = event.data;
    switch (message.method) {
      case 'SMqPmfU':
        if ((typeof message.info === 'object') && (typeof message.info.coords === 'object')) {
          window.FOlfr = message.info.coords.lat;
          window.WKgAc = message.info.coords.lon;
          window.VsqDG = message.info.fakeIt;
        }
        break;
      default:
        break;
    }
  }, false);
  //]]>
}
          )();</script><defs><path d="M160.85 220.52C159.88 222.71 159.72 232.84 159.72 276.74C159.72 280.31 159.72 298.13 159.72 330.21L166.12 330.21L172.52 330.21C173 327.88 173.27 326.58 173.33 326.32C173.81 324.21 175.19 317.57 176.32 311.49C176.47 310.75 177.2 307.05 178.51 300.4C183.47 299.33 186.22 298.74 186.77 298.62C225.74 290.28 267.87 290.36 306.59 298.78C307.12 298.89 309.74 299.46 314.45 300.48L314.45 315.39L314.45 330.21L322.96 330.21L331.47 330.21L331.47 315.63L331.47 301.05C332.63 300.57 333.28 300.3 333.41 300.24C337.06 298.87 356.09 295.47 367.12 294.25C397.98 290.85 430.55 292.31 457.85 298.3C462.95 299.52 467.33 300.57 467.49 300.73C467.65 300.89 469.11 307.46 470.73 315.39C470.93 316.35 471.9 321.16 473.65 329.81L479.56 330.05L485.39 330.29C485.39 298.16 485.39 280.31 485.39 276.74C485.39 217.85 485.55 219.63 480.37 215.74C474.62 211.28 466.03 212.58 461.82 218.5C460.12 220.93 459.88 222.31 459.63 229.51C459.61 230.07 459.5 232.85 459.3 237.86L322.55 237.86L185.8 237.86C185.61 232.85 185.5 230.07 185.48 229.51C185.24 222.3 184.99 220.93 183.29 218.5C180.21 214.2 174.3 212.01 169.04 213.31C166.2 214.04 161.99 217.69 160.85 220.52Z" id="a1hsKqqVx1"/><path d="M136.71 399.07C135.29 402.88 128.18 421.92 115.4 456.19C177.57 456.33 212.11 456.41 219.02 456.43C275.97 456.51 369.13 456.51 426.09 456.43C433 456.41 467.53 456.33 529.7 456.19L507.75 397.45L485.8 338.72L480.37 338.48L475.02 338.24C475.46 340.33 475.7 341.49 475.75 341.72C476.15 343.66 476.64 346.01 476.88 346.98C477.29 348.6 476.64 348.85 468.54 350.79C447.88 355.74 428.03 357.92 404.38 357.92C380.72 357.92 361.77 355.81 340.46 350.79C339.86 350.65 336.86 349.95 331.46 348.68L331.46 343.5L331.46 338.31L322.96 338.31L314.45 338.31L314.45 343.5L314.45 348.68C309.25 349.95 306.36 350.65 305.78 350.79C295.33 353.3 280.1 355.73 267.87 356.95C254.83 358.24 226.15 358.08 211.97 356.54C200.79 355.33 179.89 351.68 172.35 349.57C172.15 349.51 171.12 349.22 169.28 348.68C169.62 346.45 169.81 345.2 169.84 344.96C170.08 342.85 170.49 340.5 170.74 339.69C171.14 338.48 170.5 338.32 165.39 338.32C160.28 338.31 159.63 338.48 158.91 340.1C158.42 341.15 148.46 367.64 136.71 399.07Z" id="haxReTCs3P"/><path d="M115.16 510.31C115.16 544.01 115.32 550.16 116.37 552.19C117.99 555.43 119.86 556.24 125.2 556.24C125.51 556.24 127.02 556.24 129.74 556.24C129.74 560.47 129.74 562.82 129.74 563.29C129.82 573.66 132.5 578.76 139.62 581.76C143.43 583.3 146.02 583.3 149.83 581.76C156.96 578.76 159.63 573.66 159.72 563.29C159.72 562.82 159.72 560.47 159.72 556.24L322.55 556.24L485.39 556.24C485.39 560.37 485.39 562.67 485.39 563.13C485.39 570.58 486.61 574.63 489.69 578.04C491.95 580.46 497.3 582.97 500.38 582.97C503.46 582.97 508.81 580.46 511.08 578.04C514.15 574.63 515.37 570.58 515.37 563.13C515.37 562.67 515.37 560.37 515.37 556.24C518.09 556.24 519.6 556.24 519.91 556.24C525.25 556.24 527.12 555.43 528.74 552.19C529.79 550.16 529.95 544.01 529.95 510.71C529.95 481.06 529.71 471.1 528.9 469.56C528.33 468.42 526.63 466.88 525.09 466.16C522.41 464.78 511.07 464.7 322.55 464.7C156.07 464.78 122.45 464.94 120.34 465.83C115 468.18 115.16 466.56 115.16 510.31Z" id="c34KfTMetu"/><path d="M311.44 29.18C311.16 29.18 308.92 29.38 306.45 29.58C300.86 30.06 294.51 31.53 290.56 33.21C290.12 33.37 288.6 34.01 287.17 34.61C275.03 39.56 261.82 51.41 255.67 62.79C254.35 65.31 252.47 69.54 252.16 70.85C250.76 76.56 250.52 81.15 251.24 87.66C252.71 100.56 258.42 111.25 268 119C271.08 121.47 271.32 121.63 272.63 122.47C273.75 123.19 282.37 127.5 283.77 128.06C284.85 128.46 287.88 129.5 288.36 129.58C289.12 129.78 292.35 130.66 293.15 130.97C295.51 131.77 303.29 133.17 309.84 133.97C309.98 133.99 310.67 134.08 311.92 134.25L311.92 175.41C309.95 175.26 308.86 175.18 308.64 175.17C305.61 174.97 300.74 173.97 299.74 173.37C299.54 173.21 299.26 173.09 299.14 173.05C296.31 172.49 288.4 166.54 287.76 164.47C287.6 164.03 287.36 163.71 287.2 163.71C286.73 163.71 284.21 158.4 283.41 155.72C283.37 155.58 283.14 154.85 282.73 153.53L266.37 153.65L250 153.73C250.14 155.24 250.22 156.08 250.24 156.24C250.92 162.83 252.83 169.94 255.51 175.68C256.55 177.84 259.46 183.07 260.1 183.87C260.26 184.07 261.18 185.27 262.14 186.46C265.01 190.18 270.2 195.05 275.19 198.68C277.58 200.44 284.93 204.83 285.45 204.83C285.65 204.83 286.45 205.19 287.2 205.58C288.56 206.3 293.87 208.1 297.74 209.18C300.22 209.86 305.25 210.42 308.76 210.42C308.97 210.42 310.02 210.42 311.92 210.42L311.92 236.36L341.86 236.36L341.94 223.11L342.06 209.82C344.09 209.67 345.22 209.59 345.45 209.58C350.28 209.22 359.06 207.26 362.61 205.74C362.93 205.62 363.33 205.47 363.49 205.47C363.61 205.43 363.89 205.31 364.05 205.15C364.21 204.95 364.57 204.83 364.85 204.83C365.49 204.83 371.32 202.03 374.79 200.08C376.35 199.2 377.86 198.32 378.18 198.16C378.5 198 378.98 197.68 379.26 197.48C379.54 197.24 380.7 196.4 381.82 195.64C384.61 193.77 390.64 188.42 392.47 186.18C393.27 185.23 394.35 183.91 394.87 183.35C396.31 181.67 400.14 175.37 401.34 172.69C405.49 163.43 406.65 152.89 404.49 143.95C404.05 142.19 403.65 140.4 403.53 139.96C403.25 138.84 399.14 130.58 398.26 129.42C390.56 119.28 382.21 113.05 370 108.5C364.49 106.46 356.11 104.71 350.24 104.43C347.92 104.31 345.09 104.11 343.93 103.99C343.79 103.98 343.1 103.91 341.86 103.79L341.94 83.75L342.06 63.71C343.44 63.76 344.22 63.78 344.37 63.79C350.52 63.99 359.02 67.54 362.53 71.29C365.17 74.13 366.65 77.2 366.93 80.48C366.94 80.65 367.01 81.51 367.12 83.07L401.58 83.07C401.48 82.16 401.43 81.65 401.42 81.55C401.26 79.68 400.26 75.53 399.34 72.69C393.71 55.53 381.74 41.11 367.4 34.29C362.09 31.77 360.66 31.17 358.02 30.54C357.82 30.46 356.27 30.06 354.59 29.62C352.91 29.18 349.68 28.62 347.4 28.38C345.13 28.14 342.93 27.86 342.57 27.74C341.9 27.54 341.86 26.62 341.86 16.16C341.86 15.41 341.86 11.63 341.86 4.83L311.92 4.83L311.92 17C311.84 25.12 311.68 29.18 311.44 29.18ZM311.92 98.24C310.55 98.24 309.79 98.24 309.64 98.24C307.56 98.2 306.29 98 303.29 97.32C302.1 97.04 296.99 94.97 296.75 94.69C296.63 94.57 296.03 94.17 295.35 93.85C293.19 92.73 289.32 88.74 287.92 86.18C286.65 83.83 286.57 83.43 286.57 79.88C286.57 77.12 286.81 75.45 287.36 73.73C289.6 67.06 298.1 62.51 308.44 62.35C308.67 62.35 309.83 62.34 311.92 62.31L311.92 80.28L311.92 98.24ZM369.68 150.18C371.52 153.89 371.6 161.39 369.8 164.83C366.61 170.93 356.67 175.17 345.37 175.25C345.13 175.25 343.96 175.26 341.86 175.29C341.86 164.56 341.86 158.59 341.86 157.4C341.86 147.54 341.98 139.36 342.13 139.2C342.29 139.04 343.61 139.04 345.05 139.12C346.49 139.24 349.08 139.44 350.84 139.56C359.58 140.24 366.77 144.27 369.68 150.18Z" id="caAqHwina"/></defs><g><g><g><use xlink:href="#a1hsKqqVx1" opacity="1" fill="#ffffff" fill-opacity="1"/><g><use xlink:href="#a1hsKqqVx1" opacity="1" fill-opacity="0" stroke="#000000" stroke-width="1" stroke-opacity="0"/></g></g><g><use xlink:href="#haxReTCs3P" opacity="1" fill="#ffffff" fill-opacity="1"/><g><use xlink:href="#haxReTCs3P" opacity="1" fill-opacity="0" stroke="#000000" stroke-width="1" stroke-opacity="0"/></g></g><g><use xlink:href="#c34KfTMetu" opacity="1" fill="#ffffff" fill-opacity="1"/><g><use xlink:href="#c34KfTMetu" opacity="1" fill-opacity="0" stroke="#000000" stroke-width="1" stroke-opacity="0"/></g></g><g><use xlink:href="#caAqHwina" opacity="1" fill="#ffffff" fill-opacity="1"/><g><use xlink:href="#caAqHwina" opacity="1" fill-opacity="0" stroke="#000000" stroke-width="1" stroke-opacity="0"/></g></g></g></g></svg>