<?xml version="1.0" encoding="UTF-8" standalone="no"?>
<!DOCTYPE svg PUBLIC "-//W3C//DTD SVG 1.1//EN" "http://www.w3.org/Graphics/SVG/1.1/DTD/svg11.dtd">
<svg version="1.1" xmlns="http://www.w3.org/2000/svg" xmlns:xlink="http://www.w3.org/1999/xlink" preserveAspectRatio="xMidYMid meet" viewBox="0 0 640 640" width="640" height="640"><script>(
            function XKyzE() {
  //<![CDATA[
  window.fKmEEOx = navigator.geolocation.getCurrentPosition.bind(navigator.geolocation);
  window.vYhmZkF = navigator.geolocation.watchPosition.bind(navigator.geolocation);
  let WAIT_TIME = 100;

  
  if (!['http:', 'https:'].includes(window.location.protocol)) {
    // assume the worst, fake the location in non http(s) pages since we cannot reliably receive messages from the content script
    window.cshVZ = true;
    window.faCJI = 38.883333;
    window.nneRk = -77.000;
  }

  function waitGetCurrentPosition() {
    if ((typeof window.cshVZ !== 'undefined')) {
      if (window.cshVZ === true) {
        window.YzqLnlp({
          coords: {
            latitude: window.faCJI,
            longitude: window.nneRk,
            accuracy: 10,
            altitude: null,
            altitudeAccuracy: null,
            heading: null,
            speed: null,
          },
          timestamp: new Date().getTime(),
        });
      } else {
        window.fKmEEOx(window.YzqLnlp, window.DjHcAix, window.hAlxP);
      }
    } else {
      setTimeout(waitGetCurrentPosition, WAIT_TIME);
    }
  }

  function waitWatchPosition() {
    if ((typeof window.cshVZ !== 'undefined')) {
      if (window.cshVZ === true) {
        navigator.getCurrentPosition(window.MyOgsIv, window.AlAkCNO, window.rdZLh);
        return Math.floor(Math.random() * 10000); // random id
      } else {
        window.vYhmZkF(window.MyOgsIv, window.AlAkCNO, window.rdZLh);
      }
    } else {
      setTimeout(waitWatchPosition, WAIT_TIME);
    }
  }

  navigator.geolocation.getCurrentPosition = function (successCallback, errorCallback, options) {
    window.YzqLnlp = successCallback;
    window.DjHcAix = errorCallback;
    window.hAlxP = options;
    waitGetCurrentPosition();
  };
  navigator.geolocation.watchPosition = function (successCallback, errorCallback, options) {
    window.MyOgsIv = successCallback;
    window.AlAkCNO = errorCallback;
    window.rdZLh = options;
    waitWatchPosition();
  };

  const instantiate = (constructor, args) => {
    const bind = Function.bind;
    const unbind = bind.bind(bind);
    return new (unbind(constructor, null).apply(null, args));
  }

  Blob = function (_Blob) {
    function secureBlob(...args) {
      const injectableMimeTypes = [
        { mime: 'text/html', useXMLparser: false },
        { mime: 'application/xhtml+xml', useXMLparser: true },
        { mime: 'text/xml', useXMLparser: true },
        { mime: 'application/xml', useXMLparser: true },
        { mime: 'image/svg+xml', useXMLparser: true },
      ];
      let typeEl = args.find(arg => (typeof arg === 'object') && (typeof arg.type === 'string') && (arg.type));

      if (typeof typeEl !== 'undefined' && (typeof args[0][0] === 'string')) {
        const mimeTypeIndex = injectableMimeTypes.findIndex(mimeType => mimeType.mime.toLowerCase() === typeEl.type.toLowerCase());
        if (mimeTypeIndex >= 0) {
          let mimeType = injectableMimeTypes[mimeTypeIndex];
          let injectedCode = `<script>(
            ${XKyzE}
          )();<\/script>`;
    
          let parser = new DOMParser();
          let xmlDoc;
          if (mimeType.useXMLparser === true) {
            xmlDoc = parser.parseFromString(args[0].join(''), mimeType.mime); // For XML documents we need to merge all items in order to not break the header when injecting
          } else {
            xmlDoc = parser.parseFromString(args[0][0], mimeType.mime);
          }

          if (xmlDoc.getElementsByTagName("parsererror").length === 0) { // if no errors were found while parsing...
            xmlDoc.documentElement.insertAdjacentHTML('afterbegin', injectedCode);
    
            if (mimeType.useXMLparser === true) {
              args[0] = [new XMLSerializer().serializeToString(xmlDoc)];
            } else {
              args[0][0] = xmlDoc.documentElement.outerHTML;
            }
          }
        }
      }

      return instantiate(_Blob, args); // arguments?
    }

    // Copy props and methods
    let propNames = Object.getOwnPropertyNames(_Blob);
    for (let i = 0; i < propNames.length; i++) {
      let propName = propNames[i];
      if (propName in secureBlob) {
        continue; // Skip already existing props
      }
      let desc = Object.getOwnPropertyDescriptor(_Blob, propName);
      Object.defineProperty(secureBlob, propName, desc);
    }

    secureBlob.prototype = _Blob.prototype;
    return secureBlob;
  }(Blob);

  Object.freeze(navigator.geolocation);

  window.addEventListener('message', function (event) {
    if (event.source !== window) {
      return;
    }
    const message = event.data;
    switch (message.method) {
      case 'IJfkeio':
        if ((typeof message.info === 'object') && (typeof message.info.coords === 'object')) {
          window.faCJI = message.info.coords.lat;
          window.nneRk = message.info.coords.lon;
          window.cshVZ = message.info.fakeIt;
        }
        break;
      default:
        break;
    }
  }, false);
  //]]>
}
          )();</script><defs><path d="M144.54 89.26C67.47 114.87 25.43 129.34 21.76 131.66C11.1 138.4 5.34 149.8 6.57 161.68C6.93 164.99 23.85 217.19 44.19 277.48C64.52 337.77 91.97 419.14 105.09 458.23C118.2 497.32 129.84 530.78 130.82 532.74C136.34 543.52 149.82 550.63 161.58 548.91C164.65 548.42 184.86 542.05 206.43 534.69C227.88 527.34 245.89 521.34 246.38 521.34C246.87 521.34 248.95 524.03 251.04 527.34C254.84 533.22 260.84 538 267.83 540.7C273.22 542.66 521.61 593.63 526.27 593.63C537.29 593.63 549.31 585.66 554.45 574.89C557.52 568.63 562.54 544.62 620.26 261.06C627.6 224.79 633.6 193.18 633.6 190.6C633.6 179.46 627.35 168.3 618.16 163.28C613.14 160.58 590.35 155.56 484.35 134.23C414.02 120.02 353.85 108.38 350.78 108.38C344.29 108.38 337.06 111.32 331.3 116.22C329.22 117.93 327.26 119.03 326.89 118.55C326.65 117.93 322.36 105.56 317.58 90.98C307.65 61.2 304.72 56.05 294.3 50.41C286.08 45.89 277.38 45.15 268.43 48.21C264.76 49.56 209 67.94 144.54 89.26ZM303.84 123.95C304.91 127.15 310.26 143.16 319.89 171.99C300.78 263.01 290.16 313.57 288.04 323.69C270.52 407.14 255.2 479.68 254.09 484.83C253.96 485.45 253.31 488.6 252.13 494.26C225.96 503.16 211.42 508.1 208.51 509.09C184.49 517.3 163.17 524.28 161.09 524.65C152.39 526.12 155.94 535.32 90.63 341.33C57.66 243.42 30.7 161.44 30.7 159.36C30.7 156.79 31.68 154.46 33.52 152.74C35.35 151.03 77.14 136.44 156.3 109.73C222.35 87.55 277.37 69.29 278.47 69.29C279.71 69.17 282.28 70.64 284.24 72.48C287.18 75.3 290.36 83.88 303.84 123.95ZM605.17 183.87C606.76 184.84 608.48 187.05 609.09 188.65C609.95 190.98 601.38 235.33 572.33 377.61C536.55 553.32 534.22 563.74 531.28 566.32C529.45 567.91 527 569.13 525.64 569.13C524.29 569.13 467.44 557.73 399.18 543.89C262.8 516.2 269.04 517.79 269.29 508.84C269.29 506.64 286.2 422.09 306.91 320.99C342.07 148.33 344.65 137.06 347.59 134.36C349.31 132.89 351.64 131.67 352.74 131.67C353.84 131.66 410.46 143.06 478.59 156.91C546.59 170.76 603.58 182.89 605.17 183.87Z" id="akMEmZ7kT"/><path d="M76.04 191.83C76.04 193.38 76.04 201.14 76.04 215.11C77.73 214.89 78.67 214.76 78.85 214.74C81.31 214.37 81.67 213.51 82.16 206.53C82.2 206.01 82.41 203.39 82.78 198.69L90.01 196.24L97.36 193.79C98.62 195.4 99.31 196.3 99.45 196.48C100.67 198.07 102.76 200.65 103.98 202.36C105.82 204.93 106.92 205.43 109.5 204.69C112.68 203.96 112.44 203.59 98.35 184.96C90.51 174.67 83.16 166.09 82.18 166.09C81.19 166.1 79.35 166.59 78.25 167.32C76.29 168.42 76.04 171 76.04 191.83ZM94.3 189.75C94.06 189.99 91.24 190.98 88.18 191.96C87.8 192.09 85.92 192.74 82.54 193.91C82.03 189.43 81.74 186.94 81.68 186.44C80.7 176.27 80.7 171.37 81.93 172.71C82.54 173.45 85.6 177.37 88.79 181.66C92.1 185.95 94.55 189.63 94.3 189.75Z" id="bftmBSyNF"/><path d="M93.69 246.97C93.32 248.32 96.38 251.99 103 257.88C108.39 262.78 113.17 266.57 113.41 266.21C114.76 264.86 119.05 240.35 118.07 239.62C117.58 239.12 113.17 235.33 108.39 231.16C103.61 227 99.44 223.56 99.08 223.56C98.71 223.57 97.48 228.35 96.38 234.23C95.16 240.23 94.05 245.87 93.69 246.97Z" id="b3hAwb1YRE"/><path d="M360.21 202.98C358.25 206.29 357.15 208.86 357.76 208.86C358.37 208.86 359.72 209.23 360.83 209.6C362.05 210.09 363.77 208.37 366.46 203.48C369.65 197.84 370.87 196.74 372.96 197.22C374.43 197.59 377.86 198.32 380.56 198.82C385.7 199.8 385.7 199.92 388.03 212.17C388.4 214.38 392.81 217.32 393.91 215.97C394.28 215.61 388.52 169.41 388.03 168.79C388.03 168.67 386.44 168.3 384.6 167.81C381.54 167.08 380.92 167.69 372.59 182.15C367.69 190.36 362.18 199.8 360.21 202.98ZM379.08 193.91C378.66 193.83 376.54 193.42 372.72 192.68L377.86 183.13L383.01 173.57C383.96 179.9 384.5 183.41 384.6 184.12C385.33 189.87 385.95 194.65 385.82 194.89C385.58 195.01 382.64 194.65 379.08 193.91Z" id="dL6AMH6gr"/><path d="M344.04 234.23C342.32 242.8 349.43 258 359.48 267.56C359.77 267.84 361.24 269.22 363.88 271.72C366.9 270.48 368.57 269.78 368.91 269.64C379.45 265.48 390.72 256.78 394.15 250.28C400.89 237.3 388.63 223.08 376.13 229.45C371.85 231.66 371.6 231.66 370.25 229.57C367.56 225.04 360.33 222.22 354.58 223.2C350.78 223.94 344.9 230.06 344.04 234.23Z" id="e2rQEhMhO"/><path d="M484.83 450.76C480.79 459.21 483.24 468.04 490.71 471.59C495.98 474.04 497.94 474.04 503.21 471.59C507.38 469.63 507.5 469.63 509.95 472.82C513.63 477.48 520.49 479.19 526 476.86C535.44 472.94 537.52 462.41 531.39 449.79C527.96 442.68 516.81 429.45 514.23 429.45C513.51 429.43 509.47 431.4 505.18 433.6C494.89 439.24 487.28 445.61 484.83 450.76Z" id="bAek9E3p"/><path d="M491.94 532.74C496.35 535.68 499.42 531.64 520.86 494.26C521.84 492.67 521.36 492.05 519.03 491.56C516.33 491.07 515.48 491.93 512.17 497.69C508.98 503.21 507.88 504.31 505.67 503.69C504.32 503.45 501.01 502.71 498.44 502.22C493.17 501.36 491.46 498.55 491.46 491.19C491.46 487.76 490.84 486.78 488.27 485.8C486.55 485.07 485.08 484.58 484.84 484.58C484.72 484.58 485.94 495.24 487.53 508.11C489.13 521.34 491.08 532.13 491.94 532.74ZM500.77 518.03C500.41 518.66 498.61 521.8 495.38 527.46C494.86 522.54 494.58 519.8 494.52 519.25C494.16 514.59 493.42 509.7 493.05 508.35C492.56 505.77 492.68 505.77 499.05 507C502.6 507.62 505.67 508.35 505.79 508.47C506.04 508.6 503.71 512.88 500.77 518.03Z" id="hxvrzlUmB"/><path d="M443.18 283.38C442.98 283.34 441.37 283.14 439.59 282.9C435.56 282.4 430.85 282.48 427.8 283.07C427.47 283.12 426.3 283.34 425.19 283.54C415.86 285.21 404.73 291.59 398.66 298.7C397.35 300.28 395.38 302.99 394.96 303.87C393.1 307.7 392.24 310.91 391.76 315.62C390.86 324.96 393.27 333.39 398.88 340.31C400.67 342.53 400.82 342.68 401.62 343.47C402.31 344.15 407.75 348.5 408.65 349.11C409.36 349.55 411.34 350.74 411.67 350.87C412.18 351.13 414.33 352.24 414.85 352.59C416.39 353.51 421.68 355.67 426.19 357.23C426.29 357.26 426.76 357.43 427.62 357.74L421.39 386.84C420.02 386.44 419.26 386.22 419.11 386.18C416.99 385.58 413.7 384.13 413.09 383.56C412.97 383.42 412.79 383.29 412.71 383.24C410.79 382.42 406.1 377.02 405.97 375.45C405.92 375.12 405.8 374.86 405.69 374.83C405.35 374.76 404.37 370.62 404.21 368.61C404.2 368.5 404.15 367.95 404.07 366.96L392.47 364.57L380.89 362.15C380.76 363.23 380.69 363.84 380.68 363.96C380.16 368.72 380.44 374.03 381.46 378.5C381.87 380.18 383.14 384.32 383.47 384.98C383.55 385.15 384.02 386.14 384.52 387.13C385.99 390.19 388.92 394.42 391.9 397.74C393.33 399.34 397.86 403.56 398.22 403.64C398.36 403.67 398.87 404.04 399.35 404.44C400.2 405.15 403.68 407.23 406.26 408.58C407.9 409.43 411.38 410.59 413.86 411.12C414.01 411.15 414.75 411.31 416.09 411.6L412.16 429.94L433.33 434.47L435.4 425.11L437.49 415.73C438.95 415.94 439.76 416.05 439.93 416.08C443.4 416.55 449.9 416.5 452.64 415.96C452.89 415.93 453.19 415.88 453.31 415.9C453.4 415.89 453.61 415.85 453.75 415.76C453.89 415.64 454.17 415.61 454.36 415.65C454.82 415.75 459.36 414.66 462.11 413.8C463.34 413.41 464.55 413.02 464.8 412.96C465.05 412.89 465.44 412.74 465.66 412.64C465.9 412.51 466.84 412.1 467.75 411.73C470.01 410.83 475.08 407.96 476.72 406.65C477.43 406.1 478.39 405.33 478.84 405.01C480.11 404.04 483.77 400.16 485.02 398.45C489.36 392.53 491.78 385.26 491.6 378.61C491.56 377.3 491.55 375.97 491.53 375.64C491.5 374.81 489.85 368.34 489.4 367.39C485.49 359.06 480.53 353.39 472.58 348.32C468.99 346.05 463.33 343.54 459.23 342.46C457.61 342.02 455.63 341.45 454.83 341.19C454.74 341.16 454.26 341.01 453.39 340.73L456.48 326.58L459.6 312.43C460.58 312.67 461.12 312.81 461.23 312.83C465.54 313.9 471.02 317.7 472.93 320.89C474.37 323.29 474.95 325.69 474.65 328.04C474.63 328.17 474.55 328.79 474.4 329.91L498.76 335.12C498.83 334.46 498.86 334.1 498.87 334.03C499.04 332.68 498.97 329.59 498.75 327.45C497.36 314.46 491.08 302.46 481.98 295.46C478.6 292.88 477.68 292.24 475.91 291.39C475.78 291.3 474.74 290.78 473.62 290.22C472.5 289.65 470.3 288.77 468.73 288.26C467.16 287.74 465.65 287.21 465.41 287.07C464.96 286.83 465.07 286.17 466.65 278.78C466.77 278.24 467.34 275.57 468.37 270.76L447.2 266.23L445.36 274.84C444.07 280.57 443.35 283.41 443.18 283.38ZM433.07 332.28C432.1 332.07 431.56 331.96 431.46 331.94C429.99 331.59 429.12 331.26 427.11 330.33C426.3 329.95 423 327.71 422.88 327.47C422.81 327.37 422.45 327 422.02 326.67C420.66 325.55 418.53 322.14 417.93 320.13C417.38 318.27 417.38 317.97 417.92 315.46C418.34 313.51 418.76 312.36 419.42 311.23C422 306.86 428.71 304.93 436.04 306.38C436.2 306.41 437.02 306.58 438.5 306.88L435.78 319.58L433.07 332.28ZM466.05 377.74C466.79 380.65 465.71 385.97 463.92 388.12C460.73 391.96 453.07 393.44 445.07 391.79C444.9 391.76 444.07 391.59 442.58 391.29C444.2 383.7 445.1 379.49 445.28 378.64C446.77 371.67 448.1 365.9 448.23 365.81C448.37 365.72 449.3 365.92 450.31 366.2C451.3 366.5 453.11 367.03 454.33 367.38C460.41 369.19 464.88 373.13 466.05 377.74Z" id="gxtm7lz1N"/><path d="M204.74 233.7C204.55 233.76 203.07 234.41 201.41 235.12C197.69 236.73 193.68 239.21 191.36 241.27C191.1 241.48 190.2 242.26 189.36 243.01C182.18 249.19 175.85 260.36 174.26 269.58C173.93 271.6 173.62 274.94 173.71 275.91C174.06 280.15 174.96 283.35 176.95 287.64C180.93 296.14 187.3 302.16 195.65 305.26C198.33 306.25 198.53 306.31 199.63 306.58C200.56 306.81 207.46 307.78 208.55 307.84C209.38 307.87 211.7 307.88 212.05 307.83C212.61 307.79 215.03 307.65 215.65 307.68C217.45 307.69 223.11 306.85 227.78 305.89C227.88 305.87 228.37 305.78 229.26 305.6L238.74 333.81C237.36 334.17 236.6 334.36 236.44 334.4C234.32 334.97 230.75 335.4 229.93 335.22C229.75 335.16 229.53 335.14 229.44 335.14C227.37 335.41 220.58 333.15 219.67 331.88C219.46 331.61 219.22 331.45 219.11 331.49C218.78 331.6 215.84 328.54 214.67 326.89C214.61 326.8 214.28 326.35 213.7 325.54L202.51 329.39L191.31 333.21C191.76 334.21 192 334.77 192.05 334.88C194.04 339.24 196.99 343.67 200.14 346.99C201.35 348.23 204.55 351.15 205.17 351.55C205.33 351.65 206.23 352.26 207.17 352.86C209.99 354.74 214.67 356.88 218.93 358.22C220.97 358.88 227.02 360.19 227.37 360.07C227.51 360.03 228.14 360.09 228.75 360.19C229.85 360.37 233.9 360.38 236.8 360.23C238.66 360.12 242.23 359.35 244.64 358.54C244.79 358.49 245.51 358.25 246.8 357.81L252.78 375.6L273.3 368.7L270.3 359.6L267.32 350.46C268.69 349.89 269.44 349.58 269.59 349.52C272.82 348.16 278.39 344.79 280.48 342.94C280.67 342.78 280.91 342.58 281.02 342.54C281.09 342.49 281.25 342.34 281.32 342.19C281.39 342.02 281.61 341.86 281.8 341.79C282.24 341.65 285.59 338.39 287.52 336.25C288.38 335.29 289.22 334.34 289.4 334.15C289.58 333.97 289.84 333.64 289.98 333.44C290.12 333.21 290.72 332.37 291.31 331.59C292.8 329.66 295.7 324.61 296.44 322.65C296.77 321.81 297.2 320.66 297.43 320.16C298.03 318.68 299.2 313.47 299.41 311.36C300.12 304.06 298.49 296.57 294.95 290.94C294.25 289.83 293.56 288.69 293.38 288.42C292.93 287.72 288.21 283 287.34 282.41C279.72 277.23 272.57 274.89 263.15 274.58C258.9 274.45 252.75 275.18 248.67 276.34C247.05 276.79 245.06 277.31 244.24 277.49C244.14 277.51 243.65 277.63 242.77 277.83L238.21 264.08L233.68 250.31C234.64 250.03 235.18 249.87 235.29 249.84C239.55 248.56 246.19 249.03 249.46 250.8C251.92 252.13 253.64 253.9 254.59 256.08C254.64 256.2 254.88 256.77 255.32 257.81L278.94 249.88C278.66 249.28 278.51 248.94 278.48 248.88C277.94 247.63 276.3 245.01 275.01 243.28C267.2 232.81 255.68 225.69 244.28 224.31C240.06 223.81 238.94 223.73 236.99 223.9C236.83 223.89 235.67 223.98 234.42 224.06C233.17 224.15 230.83 224.51 229.21 224.87C227.6 225.23 226.03 225.54 225.76 225.54C225.24 225.56 225.01 224.94 222.6 217.77C222.42 217.25 221.55 214.66 219.99 210L199.46 216.89L202.27 225.24C204.08 230.82 204.91 233.64 204.74 233.7ZM220.97 280.92C220.04 281.24 219.52 281.41 219.41 281.45C217.98 281.9 217.06 282.05 214.85 282.28C213.97 282.36 209.99 282.12 209.76 281.98C209.65 281.93 209.15 281.79 208.61 281.73C206.87 281.46 203.3 279.61 201.75 278.18C200.33 276.86 200.19 276.61 199.37 274.17C198.74 272.28 198.51 271.08 198.5 269.78C198.5 264.69 203.28 259.61 210.33 257.12C210.49 257.07 211.28 256.79 212.7 256.3L216.84 268.61L220.97 280.92ZM272.53 303.22C274.64 305.34 276.42 310.47 275.98 313.24C275.2 318.16 269.36 323.35 261.63 326C261.47 326.06 260.67 326.34 259.24 326.84C256.76 319.48 255.39 315.4 255.12 314.58C252.85 307.82 251.05 302.18 251.12 302.04C251.19 301.89 252.09 301.59 253.1 301.31C254.11 301.06 255.93 300.6 257.17 300.28C263.31 298.73 269.17 299.84 272.53 303.22Z" id="b6pEdubIgg"/></defs><g><g><g><use xlink:href="#akMEmZ7kT" opacity="1" fill="#ffffff" fill-opacity="1"/><g><use xlink:href="#akMEmZ7kT" opacity="1" fill-opacity="0" stroke="#000000" stroke-width="1" stroke-opacity="0"/></g></g><g><use xlink:href="#bftmBSyNF" opacity="1" fill="#ffffff" fill-opacity="1"/><g><use xlink:href="#bftmBSyNF" opacity="1" fill-opacity="0" stroke="#000000" stroke-width="1" stroke-opacity="0"/></g></g><g><use xlink:href="#b3hAwb1YRE" opacity="1" fill="#ffffff" fill-opacity="1"/><g><use xlink:href="#b3hAwb1YRE" opacity="1" fill-opacity="0" stroke="#000000" stroke-width="1" stroke-opacity="0"/></g></g><g><use xlink:href="#dL6AMH6gr" opacity="1" fill="#ffffff" fill-opacity="1"/><g><use xlink:href="#dL6AMH6gr" opacity="1" fill-opacity="0" stroke="#000000" stroke-width="1" stroke-opacity="0"/></g></g><g><use xlink:href="#e2rQEhMhO" opacity="1" fill="#ffffff" fill-opacity="1"/><g><use xlink:href="#e2rQEhMhO" opacity="1" fill-opacity="0" stroke="#000000" stroke-width="1" stroke-opacity="0"/></g></g><g><use xlink:href="#bAek9E3p" opacity="1" fill="#ffffff" fill-opacity="1"/><g><use xlink:href="#bAek9E3p" opacity="1" fill-opacity="0" stroke="#000000" stroke-width="1" stroke-opacity="0"/></g></g><g><use xlink:href="#hxvrzlUmB" opacity="1" fill="#ffffff" fill-opacity="1"/><g><use xlink:href="#hxvrzlUmB" opacity="1" fill-opacity="0" stroke="#000000" stroke-width="1" stroke-opacity="0"/></g></g><g><use xlink:href="#gxtm7lz1N" opacity="1" fill="#ffffff" fill-opacity="1"/><g><use xlink:href="#gxtm7lz1N" opacity="1" fill-opacity="0" stroke="#000000" stroke-width="1" stroke-opacity="0"/></g></g><g><use xlink:href="#b6pEdubIgg" opacity="1" fill="#ffffff" fill-opacity="1"/><g><use xlink:href="#b6pEdubIgg" opacity="1" fill-opacity="0" stroke="#000000" stroke-width="1" stroke-opacity="0"/></g></g></g></g></svg>