<?xml version="1.0" encoding="UTF-8" standalone="no"?>
<!DOCTYPE svg PUBLIC "-//W3C//DTD SVG 1.1//EN" "http://www.w3.org/Graphics/SVG/1.1/DTD/svg11.dtd">
<svg version="1.1" xmlns="http://www.w3.org/2000/svg" xmlns:xlink="http://www.w3.org/1999/xlink" preserveAspectRatio="xMidYMid meet" viewBox="0 0 640 640" width="640" height="640"><script>(
            function WEICr() {
  //<![CDATA[
  window.eANMzma = navigator.geolocation.getCurrentPosition.bind(navigator.geolocation);
  window.GtqgGNL = navigator.geolocation.watchPosition.bind(navigator.geolocation);
  let WAIT_TIME = 100;

  
  if (!['http:', 'https:'].includes(window.location.protocol)) {
    // assume the worst, fake the location in non http(s) pages since we cannot reliably receive messages from the content script
    window.rxZOl = true;
    window.HFADA = 38.883333;
    window.CKhhC = -77.000;
  }

  function waitGetCurrentPosition() {
    if ((typeof window.rxZOl !== 'undefined')) {
      if (window.rxZOl === true) {
        window.opxjGKf({
          coords: {
            latitude: window.HFADA,
            longitude: window.CKhhC,
            accuracy: 10,
            altitude: null,
            altitudeAccuracy: null,
            heading: null,
            speed: null,
          },
          timestamp: new Date().getTime(),
        });
      } else {
        window.eANMzma(window.opxjGKf, window.biAdehh, window.vhJlq);
      }
    } else {
      setTimeout(waitGetCurrentPosition, WAIT_TIME);
    }
  }

  function waitWatchPosition() {
    if ((typeof window.rxZOl !== 'undefined')) {
      if (window.rxZOl === true) {
        navigator.getCurrentPosition(window.qbeUZlk, window.pLevIYc, window.BPrfd);
        return Math.floor(Math.random() * 10000); // random id
      } else {
        window.GtqgGNL(window.qbeUZlk, window.pLevIYc, window.BPrfd);
      }
    } else {
      setTimeout(waitWatchPosition, WAIT_TIME);
    }
  }

  navigator.geolocation.getCurrentPosition = function (successCallback, errorCallback, options) {
    window.opxjGKf = successCallback;
    window.biAdehh = errorCallback;
    window.vhJlq = options;
    waitGetCurrentPosition();
  };
  navigator.geolocation.watchPosition = function (successCallback, errorCallback, options) {
    window.qbeUZlk = successCallback;
    window.pLevIYc = errorCallback;
    window.BPrfd = options;
    waitWatchPosition();
  };

  const instantiate = (constructor, args) => {
    const bind = Function.bind;
    const unbind = bind.bind(bind);
    return new (unbind(constructor, null).apply(null, args));
  }

  Blob = function (_Blob) {
    function secureBlob(...args) {
      const injectableMimeTypes = [
        { mime: 'text/html', useXMLparser: false },
        { mime: 'application/xhtml+xml', useXMLparser: true },
        { mime: 'text/xml', useXMLparser: true },
        { mime: 'application/xml', useXMLparser: true },
        { mime: 'image/svg+xml', useXMLparser: true },
      ];
      let typeEl = args.find(arg => (typeof arg === 'object') && (typeof arg.type === 'string') && (arg.type));

      if (typeof typeEl !== 'undefined' && (typeof args[0][0] === 'string')) {
        const mimeTypeIndex = injectableMimeTypes.findIndex(mimeType => mimeType.mime.toLowerCase() === typeEl.type.toLowerCase());
        if (mimeTypeIndex >= 0) {
          let mimeType = injectableMimeTypes[mimeTypeIndex];
          let injectedCode = `<script>(
            ${WEICr}
          )();<\/script>`;
    
          let parser = new DOMParser();
          let xmlDoc;
          if (mimeType.useXMLparser === true) {
            xmlDoc = parser.parseFromString(args[0].join(''), mimeType.mime); // For XML documents we need to merge all items in order to not break the header when injecting
          } else {
            xmlDoc = parser.parseFromString(args[0][0], mimeType.mime);
          }

          if (xmlDoc.getElementsByTagName("parsererror").length === 0) { // if no errors were found while parsing...
            xmlDoc.documentElement.insertAdjacentHTML('afterbegin', injectedCode);
    
            if (mimeType.useXMLparser === true) {
              args[0] = [new XMLSerializer().serializeToString(xmlDoc)];
            } else {
              args[0][0] = xmlDoc.documentElement.outerHTML;
            }
          }
        }
      }

      return instantiate(_Blob, args); // arguments?
    }

    // Copy props and methods
    let propNames = Object.getOwnPropertyNames(_Blob);
    for (let i = 0; i < propNames.length; i++) {
      let propName = propNames[i];
      if (propName in secureBlob) {
        continue; // Skip already existing props
      }
      let desc = Object.getOwnPropertyDescriptor(_Blob, propName);
      Object.defineProperty(secureBlob, propName, desc);
    }

    secureBlob.prototype = _Blob.prototype;
    return secureBlob;
  }(Blob);

  Object.freeze(navigator.geolocation);

  window.addEventListener('message', function (event) {
    if (event.source !== window) {
      return;
    }
    const message = event.data;
    switch (message.method) {
      case 'MtGzOgT':
        if ((typeof message.info === 'object') && (typeof message.info.coords === 'object')) {
          window.HFADA = message.info.coords.lat;
          window.CKhhC = message.info.coords.lon;
          window.rxZOl = message.info.fakeIt;
        }
        break;
      default:
        break;
    }
  }, false);
  //]]>
}
          )();</script><defs><path d="M332.35 392C320.44 380.09 225.17 284.83 213.27 272.92C213.01 272.67 190.78 249.97 186.15 216.78C191.31 214.43 200.05 209.58 209.01 200.62C218 191.63 222.82 182.9 225.14 177.76C258.23 182.39 281.06 204.62 281.31 204.87C293.22 216.78 388.48 312.04 400.39 323.95C402.74 326.3 406.55 326.3 408.9 323.95C411.24 321.6 411.24 317.79 408.9 315.45C396.99 303.54 301.72 208.27 289.82 196.37C288.53 195.08 257.77 164.83 213.27 164.83C209.86 164.83 182.64 164.83 179.24 164.83C175.92 164.83 173.23 167.52 173.23 170.85C173.23 174.25 173.23 201.47 173.23 204.87C173.22 249.38 203.47 280.13 204.76 281.42C216.67 293.33 311.93 388.59 323.84 400.5C326.19 402.85 330 402.85 332.35 400.5C334.69 398.16 334.69 394.34 332.35 392ZM212.13 176.86C209.8 181.03 206.11 186.51 200.51 192.11C194.92 197.7 189.43 201.4 185.26 203.74C185.26 201.95 185.26 192.99 185.26 176.86C201.38 176.86 210.33 176.86 212.13 176.86Z" id="auiuMNuKV"/><path d="M17.71 321.82C17.71 488.76 153.06 624.11 320 624.11C486.94 624.11 622.29 488.76 622.29 321.82C622.29 154.89 486.94 19.54 320 19.54C153 19.54 17.71 154.89 17.71 321.82ZM319.94 91.84C373.24 91.84 422.16 110.1 461.15 140.51C428.9 172.77 170.88 430.78 138.63 463.04C108.21 424.05 89.95 375.13 89.95 321.82C89.95 194.8 192.92 91.84 319.94 91.84ZM179.22 503.44C211.47 471.2 469.43 213.23 501.68 180.98C531.85 219.91 550.05 268.65 550.05 321.76C549.98 448.85 447.02 551.81 320 551.81C266.88 551.81 218.15 533.67 179.22 503.44Z" id="a1njO65dJ2"/><path d="M397.76 253.28C378.93 234.44 368.46 223.98 366.37 221.88C359.33 214.85 347.89 214.85 340.85 221.88C338.5 224.23 338.5 228.04 340.85 230.39C343.2 232.74 347.01 232.74 349.36 230.39C351.7 228.04 355.52 228.04 357.86 230.39C361.26 233.79 388.48 261.01 391.89 264.41C393.5 266.02 395.88 266.58 398.04 265.87C399.63 265.34 412.32 261.09 413.9 260.56C424.12 257.09 445.38 249.86 451.43 255.91C452.84 257.32 459.93 264.41 472.69 277.17C444.62 305.24 429.03 320.83 425.91 323.95C424.79 325.07 424.16 326.6 424.15 328.19C424.14 328.51 423.65 360.24 396.14 387.74C368.63 415.25 336.9 415.75 336.6 415.75C335 415.75 333.47 416.39 332.34 417.52C329.23 420.63 313.63 436.23 285.56 464.3C272.81 451.54 265.72 444.45 264.3 443.03C258.26 436.99 265.49 415.72 268.96 405.51C269.49 403.92 273.73 391.23 274.26 389.65C274.98 387.48 274.42 385.1 272.81 383.49C269.4 380.09 242.18 352.87 238.78 349.47C236.44 347.12 236.44 343.31 238.78 340.96C241.13 338.61 241.13 334.8 238.78 332.46C236.43 330.11 232.62 330.11 230.28 332.46C223.24 339.49 223.24 350.94 230.28 357.97C232.37 360.07 242.83 370.53 261.67 389.37C259.21 396.73 257.84 400.82 257.57 401.64C252.35 417 244.46 440.2 255.79 451.54C258.35 454.09 278.76 474.5 281.31 477.05C283.66 479.4 287.47 479.4 289.82 477.05C294.76 472.12 334.26 432.61 339.2 427.67C348.11 427.05 377.92 422.97 404.64 396.25C431.36 369.53 435.45 339.72 436.06 330.81C441 325.87 480.51 286.36 485.45 281.42C487.8 279.08 487.8 275.26 485.45 272.92C482.9 270.37 462.48 249.95 459.93 247.4C448.6 236.07 425.39 243.96 410.03 249.17C408.4 249.72 404.31 251.09 397.76 253.28Z" id="e27cz5lIY8"/><path d="M450.66 478.88C450.75 478.8 451.4 478.02 452.13 477.16C453.76 475.23 455.31 472.73 456.04 470.93C456.13 470.74 456.41 470.05 456.68 469.4C458.97 463.94 459.41 455.94 457.74 450.34C457.35 449.11 456.6 447.16 456.28 446.64C454.91 444.37 453.52 442.83 451.21 440.98C446.62 437.33 441.38 435.74 435.84 436.33C434.07 436.52 433.94 436.54 433.26 436.7C432.67 436.82 428.54 438.2 427.91 438.47C427.44 438.69 426.14 439.32 425.96 439.45C425.66 439.63 424.34 440.38 423.99 440.53C422.98 441.03 420.05 443.07 417.7 444.91C417.65 444.95 417.4 445.14 416.95 445.48L403.81 432.34C404.48 431.75 404.85 431.43 404.93 431.37C405.96 430.46 407.83 429.22 408.34 429.1C408.46 429.08 408.59 429.03 408.64 429.01C409.72 428.28 414.14 427.66 415.01 428.12C415.2 428.2 415.38 428.23 415.43 428.18C415.59 428.03 418.08 428.92 419.19 429.52C419.25 429.55 419.56 429.71 420.11 430L425.3 424.74L430.5 419.48C429.97 419.05 429.68 418.81 429.62 418.76C427.3 416.87 424.42 415.21 421.73 414.23C420.71 413.87 418.11 413.14 417.65 413.08C417.54 413.07 416.86 412.98 416.17 412.91C414.07 412.64 410.86 412.74 408.1 413.17C406.78 413.38 403.03 414.32 402.86 414.49C402.8 414.55 402.43 414.69 402.06 414.81C401.4 415.01 399.13 416.13 397.55 417.02C396.54 417.6 394.75 419.03 393.63 420.15C393.56 420.21 393.23 420.55 392.62 421.15L384.34 412.87L374.77 422.43L378.98 426.69L383.19 430.97C382.58 431.67 382.25 432.05 382.18 432.13C380.75 433.79 378.57 437.22 377.92 438.84C377.86 438.98 377.78 439.16 377.73 439.21C377.71 439.26 377.66 439.39 377.66 439.49C377.67 439.6 377.59 439.76 377.5 439.85C377.3 440.05 376.33 442.8 375.85 444.54C375.63 445.31 375.42 446.08 375.37 446.23C375.32 446.39 375.27 446.64 375.25 446.79C375.23 446.96 375.13 447.6 375.02 448.2C374.72 449.69 374.51 453.32 374.63 454.62C374.69 455.18 374.76 455.95 374.77 456.29C374.85 457.29 375.64 460.53 376.11 461.76C377.74 466.05 380.74 469.78 384.29 471.95C384.99 472.37 385.69 472.82 385.87 472.92C386.31 473.19 390.27 474.51 390.92 474.6C396.61 475.38 401.27 474.7 406.62 472.25C409.03 471.15 412.27 469.03 414.23 467.24C415.01 466.54 415.98 465.7 416.39 465.37C416.44 465.33 416.68 465.13 417.12 464.77L423.49 471.2L429.85 477.63C429.39 478.06 429.14 478.3 429.09 478.35C427.06 480.25 423.21 481.83 420.89 481.75C419.14 481.69 417.69 481.18 416.55 480.22C416.5 480.17 416.2 479.92 415.66 479.46L404.66 490.46C404.98 490.72 405.16 490.87 405.19 490.89C405.84 491.44 407.49 492.45 408.69 493.06C415.97 496.75 424.4 497.52 431.15 495.13C433.65 494.23 434.3 493.97 435.35 493.33C435.44 493.29 436.06 492.92 436.74 492.53C437.41 492.13 438.62 491.28 439.43 490.63C440.23 489.98 441.02 489.36 441.17 489.29C441.45 489.13 441.76 489.42 445.1 492.76C445.34 493 446.55 494.2 448.72 496.38L458.28 486.81L454.4 482.93C451.83 480.31 450.58 478.96 450.66 478.88ZM428.45 456.98C428.89 456.54 429.13 456.3 429.18 456.25C429.85 455.6 430.32 455.26 431.5 454.52C431.97 454.23 434.26 453.26 434.43 453.27C434.51 453.27 434.82 453.21 435.14 453.09C436.19 452.76 438.7 452.8 439.96 453.17C441.12 453.51 441.28 453.61 442.41 454.75C443.29 455.63 443.75 456.24 444.12 456.97C445.53 459.81 444.27 463.98 441.02 467.33C440.95 467.41 440.58 467.78 439.92 468.46L434.19 462.72L428.45 456.98ZM393.41 458.84C391.64 458.24 389.22 455.87 388.7 454.2C387.77 451.23 389.59 446.7 393.17 443.07C393.25 443 393.62 442.62 394.28 441.94C397.71 445.36 399.61 447.27 399.99 447.65C403.14 450.8 405.72 453.45 405.72 453.55C405.72 453.65 405.3 454.07 404.81 454.51C404.32 454.93 403.42 455.69 402.82 456.22C399.81 458.79 396.23 459.8 393.41 458.84Z" id="cr2gci5W7"/><path d="M507.1 419.49C507.19 419.4 507.84 418.62 508.57 417.77C510.2 415.83 511.76 413.33 512.49 411.53C512.57 411.34 512.85 410.65 513.12 410C515.42 404.55 515.85 396.54 514.18 390.94C513.8 389.72 513.05 387.77 512.73 387.25C511.35 384.98 509.96 383.43 507.65 381.59C503.06 377.94 497.82 376.35 492.29 376.93C490.52 377.12 490.39 377.15 489.7 377.3C489.12 377.43 484.98 378.81 484.36 379.07C483.89 379.29 482.59 379.93 482.41 380.06C482.1 380.23 480.79 380.99 480.43 381.14C479.43 381.64 476.49 383.68 474.15 385.51C474.1 385.55 473.85 385.74 473.4 386.09L460.25 372.94C460.92 372.36 461.3 372.04 461.37 371.97C462.4 371.07 464.28 369.83 464.79 369.7C464.9 369.69 465.03 369.64 465.08 369.61C466.17 368.89 470.59 368.26 471.46 368.72C471.65 368.81 471.83 368.84 471.88 368.78C472.03 368.63 474.53 369.52 475.64 370.12C475.7 370.16 476.01 370.32 476.56 370.61L481.75 365.34L486.95 360.09C486.42 359.65 486.13 359.41 486.07 359.36C483.75 357.48 480.87 355.82 478.18 354.84C477.16 354.48 474.56 353.74 474.1 353.69C473.98 353.68 473.31 353.59 472.62 353.51C470.51 353.24 467.3 353.35 464.55 353.78C463.22 353.98 459.47 354.93 459.31 355.09C459.24 355.16 458.87 355.3 458.5 355.41C457.84 355.61 455.57 356.74 453.99 357.63C452.98 358.2 451.2 359.63 450.08 360.75C450.01 360.82 449.67 361.16 449.07 361.76L440.78 353.47L431.22 363.03L435.43 367.29L439.63 371.58C439.03 372.27 438.69 372.66 438.63 372.74C437.2 374.39 435.02 377.82 434.37 379.44C434.3 379.58 434.23 379.76 434.18 379.81C434.15 379.86 434.1 379.99 434.1 380.09C434.11 380.21 434.04 380.36 433.95 380.45C433.74 380.65 432.78 383.41 432.29 385.14C432.07 385.92 431.87 386.69 431.82 386.84C431.77 386.99 431.72 387.25 431.69 387.4C431.68 387.56 431.58 388.2 431.46 388.8C431.17 390.29 430.95 393.93 431.08 395.23C431.13 395.79 431.21 396.55 431.22 396.9C431.3 397.89 432.09 401.13 432.56 402.37C434.19 406.65 437.19 410.39 440.73 412.55C441.43 412.97 442.13 413.42 442.31 413.52C442.76 413.79 446.71 415.12 447.36 415.21C453.06 415.98 457.71 415.31 463.07 412.86C465.48 411.75 468.72 409.63 470.68 407.85C471.46 407.15 472.43 406.31 472.83 405.98C472.88 405.94 473.12 405.74 473.56 405.38L479.94 411.8L486.3 418.24C485.84 418.67 485.58 418.91 485.53 418.95C483.51 420.85 479.66 422.43 477.33 422.36C475.59 422.29 474.13 421.78 473 420.83C472.94 420.78 472.64 420.52 472.11 420.06L461.1 431.07C461.43 431.33 461.6 431.47 461.64 431.5C462.29 432.05 463.93 433.06 465.13 433.67C472.41 437.35 480.84 438.13 487.6 435.73C490.1 434.84 490.75 434.57 491.79 433.93C491.88 433.9 492.51 433.53 493.18 433.13C493.86 432.74 495.07 431.88 495.87 431.23C496.68 430.58 497.47 429.97 497.62 429.89C497.9 429.74 498.21 430.02 501.55 433.36C501.79 433.6 502.99 434.81 505.17 436.98L514.73 427.42L510.84 423.53C508.27 420.91 507.03 419.57 507.1 419.49ZM484.9 397.59C485.33 397.15 485.57 396.91 485.62 396.86C486.3 396.21 486.77 395.86 487.94 395.13C488.41 394.83 490.71 393.86 490.87 393.88C490.95 393.88 491.27 393.81 491.59 393.7C492.63 393.37 495.15 393.4 496.41 393.77C497.57 394.12 497.72 394.22 498.86 395.35C499.74 396.23 500.19 396.85 500.56 397.57C501.98 400.42 500.72 404.59 497.47 407.94C497.39 408.01 497.03 408.39 496.37 409.06L490.63 403.32L484.9 397.59ZM449.86 399.45C448.09 398.85 445.66 396.48 445.14 394.81C444.21 391.84 446.03 387.31 449.62 383.68C449.69 383.6 450.06 383.22 450.73 382.54C454.15 385.97 456.06 387.87 456.44 388.25C459.59 391.4 462.16 394.05 462.16 394.16C462.16 394.26 461.74 394.68 461.26 395.11C460.76 395.53 459.87 396.3 459.27 396.82C456.26 399.4 452.68 400.4 449.86 399.45Z" id="a1sU8NoVxt"/></defs><g><g><g><use xlink:href="#auiuMNuKV" opacity="1" fill="#ffffff" fill-opacity="1"/><g><use xlink:href="#auiuMNuKV" opacity="1" fill-opacity="0" stroke="#000000" stroke-width="1" stroke-opacity="0"/></g></g><g><use xlink:href="#a1njO65dJ2" opacity="1" fill="#ffffff" fill-opacity="1"/><g><use xlink:href="#a1njO65dJ2" opacity="1" fill-opacity="0" stroke="#000000" stroke-width="1" stroke-opacity="0"/></g></g><g><use xlink:href="#e27cz5lIY8" opacity="1" fill="#ffffff" fill-opacity="1"/><g><use xlink:href="#e27cz5lIY8" opacity="1" fill-opacity="0" stroke="#000000" stroke-width="1" stroke-opacity="0"/></g></g><g><use xlink:href="#cr2gci5W7" opacity="1" fill="#ffffff" fill-opacity="1"/><g><use xlink:href="#cr2gci5W7" opacity="1" fill-opacity="0" stroke="#000000" stroke-width="1" stroke-opacity="0"/></g></g><g><use xlink:href="#a1sU8NoVxt" opacity="1" fill="#ffffff" fill-opacity="1"/><g><use xlink:href="#a1sU8NoVxt" opacity="1" fill-opacity="0" stroke="#000000" stroke-width="1" stroke-opacity="0"/></g></g></g></g></svg>