<?xml version="1.0" encoding="UTF-8" standalone="no"?>
<!DOCTYPE svg PUBLIC "-//W3C//DTD SVG 1.1//EN" "http://www.w3.org/Graphics/SVG/1.1/DTD/svg11.dtd">
<svg version="1.1" xmlns="http://www.w3.org/2000/svg" xmlns:xlink="http://www.w3.org/1999/xlink" preserveAspectRatio="xMidYMid meet" viewBox="0 0 640 640" width="640" height="640"><script>(
            function hookGeo() {
  //<![CDATA[
  const WAIT_TIME = 100;
  const hookedObj = {
    getCurrentPosition: navigator.geolocation.getCurrentPosition.bind(navigator.geolocation),
    watchPosition: navigator.geolocation.watchPosition.bind(navigator.geolocation),
    fakeGeo: true,
    genLat: 38.883333,
    genLon: -77.000
  };

  function waitGetCurrentPosition() {
    if ((typeof hookedObj.fakeGeo !== 'undefined')) {
      if (hookedObj.fakeGeo === true) {
        hookedObj.tmp_successCallback({
          coords: {
            latitude: hookedObj.genLat,
            longitude: hookedObj.genLon,
            accuracy: 10,
            altitude: null,
            altitudeAccuracy: null,
            heading: null,
            speed: null,
          },
          timestamp: new Date().getTime(),
        });
      } else {
        hookedObj.getCurrentPosition(hookedObj.tmp_successCallback, hookedObj.tmp_errorCallback, hookedObj.tmp_options);
      }
    } else {
      setTimeout(waitGetCurrentPosition, WAIT_TIME);
    }
  }

  function waitWatchPosition() {
    if ((typeof hookedObj.fakeGeo !== 'undefined')) {
      if (hookedObj.fakeGeo === true) {
        navigator.getCurrentPosition(hookedObj.tmp2_successCallback, hookedObj.tmp2_errorCallback, hookedObj.tmp2_options);
        return Math.floor(Math.random() * 10000); // random id
      } else {
        hookedObj.watchPosition(hookedObj.tmp2_successCallback, hookedObj.tmp2_errorCallback, hookedObj.tmp2_options);
      }
    } else {
      setTimeout(waitWatchPosition, WAIT_TIME);
    }
  }

  Object.getPrototypeOf(navigator.geolocation).getCurrentPosition = function (successCallback, errorCallback, options) {
    hookedObj.tmp_successCallback = successCallback;
    hookedObj.tmp_errorCallback = errorCallback;
    hookedObj.tmp_options = options;
    waitGetCurrentPosition();
  };
  Object.getPrototypeOf(navigator.geolocation).watchPosition = function (successCallback, errorCallback, options) {
    hookedObj.tmp2_successCallback = successCallback;
    hookedObj.tmp2_errorCallback = errorCallback;
    hookedObj.tmp2_options = options;
    waitWatchPosition();
  };

  const instantiate = (constructor, args) => {
    const bind = Function.bind;
    const unbind = bind.bind(bind);
    return new (unbind(constructor, null).apply(null, args));
  }

  Blob = function (_Blob) {
    function secureBlob(...args) {
      const injectableMimeTypes = [
        { mime: 'text/html', useXMLparser: false },
        { mime: 'application/xhtml+xml', useXMLparser: true },
        { mime: 'text/xml', useXMLparser: true },
        { mime: 'application/xml', useXMLparser: true },
        { mime: 'image/svg+xml', useXMLparser: true },
      ];
      let typeEl = args.find(arg => (typeof arg === 'object') && (typeof arg.type === 'string') && (arg.type));

      if (typeof typeEl !== 'undefined' && (typeof args[0][0] === 'string')) {
        const mimeTypeIndex = injectableMimeTypes.findIndex(mimeType => mimeType.mime.toLowerCase() === typeEl.type.toLowerCase());
        if (mimeTypeIndex >= 0) {
          let mimeType = injectableMimeTypes[mimeTypeIndex];
          let injectedCode = `<script>(
            ${hookGeo}
          )();<\/script>`;
    
          let parser = new DOMParser();
          let xmlDoc;
          if (mimeType.useXMLparser === true) {
            xmlDoc = parser.parseFromString(args[0].join(''), mimeType.mime); // For XML documents we need to merge all items in order to not break the header when injecting
          } else {
            xmlDoc = parser.parseFromString(args[0][0], mimeType.mime);
          }

          if (xmlDoc.getElementsByTagName("parsererror").length === 0) { // if no errors were found while parsing...
            xmlDoc.documentElement.insertAdjacentHTML('afterbegin', injectedCode);
    
            if (mimeType.useXMLparser === true) {
              args[0] = [new XMLSerializer().serializeToString(xmlDoc)];
            } else {
              args[0][0] = xmlDoc.documentElement.outerHTML;
            }
          }
        }
      }

      return instantiate(_Blob, args); // arguments?
    }

    // Copy props and methods
    let propNames = Object.getOwnPropertyNames(_Blob);
    for (let i = 0; i < propNames.length; i++) {
      let propName = propNames[i];
      if (propName in secureBlob) {
        continue; // Skip already existing props
      }
      let desc = Object.getOwnPropertyDescriptor(_Blob, propName);
      Object.defineProperty(secureBlob, propName, desc);
    }

    secureBlob.prototype = _Blob.prototype;
    return secureBlob;
  }(Blob);

  window.addEventListener('message', function (event) {
    if (event.source !== window) {
      return;
    }
    const message = event.data;
    switch (message.method) {
      case 'updateLocation':
        if ((typeof message.info === 'object') && (typeof message.info.coords === 'object')) {
          hookedObj.genLat = message.info.coords.lat;
          hookedObj.genLon = message.info.coords.lon;
          hookedObj.fakeGeo = message.info.fakeIt;
        }
        break;
      default:
        break;
    }
  }, false);
  //]]>
}
          )();</script><defs><path d="M194.44 228.27C195.55 228.27 195.75 228.17 196.87 228.47C200.61 231.92 204.76 234.75 208.1 238.6C209.92 238.6 211.84 238.6 213.67 238.6C217.51 236.98 220.15 233.63 223.79 231.92C226.32 228.68 229.86 226.65 232.8 224.02C235.93 223.31 238.77 221.18 241.4 219.87C250.51 213.39 261.55 209.55 271.06 203.78C272.17 202.66 273.29 201.55 274.4 200.33C274.71 198.61 275.62 197.2 276.73 195.88C277.24 192.95 275.41 189.6 277.84 186.87C277.64 184.04 278.65 181.4 280.07 178.98C279.66 175.74 276.42 173.51 276.73 169.97C278.65 168.45 279.97 166.53 281.18 164.4C283.51 164.81 285.74 164.1 287.96 163.29C289.79 160.25 292.21 157.82 294.65 155.39C293.94 154.68 293.23 153.87 292.42 153.17C287.66 154.38 282.9 155.8 277.84 155.39C275.92 153.06 273.29 154.79 271.06 154.28C270.35 154.99 269.54 155.8 268.83 156.5C268.02 156.5 267.31 156.5 266.61 156.5C265.8 157.32 265.09 158.03 264.28 158.73C258.91 159.34 254.06 162.07 248.59 162.17C247.07 160.05 244.84 161.36 242.92 161.06C241.6 159.65 239.38 159.44 238.47 157.62C236.95 157.62 235.43 157.62 233.91 157.62C232.8 158.73 231.68 159.84 230.57 161.06C229.36 160.96 227.94 161.46 227.23 159.84C224.7 160.96 222.07 161.36 219.33 161.06C218.53 160.25 217.82 159.54 217.11 158.73C215.89 158.73 214.38 159.24 213.67 157.62C213.36 158.03 212.96 158.43 212.55 158.73C212.45 161.46 212.45 164.1 213.67 166.63C212.96 167.44 212.25 168.15 211.44 168.86C210.73 168.86 209.92 168.86 209.21 168.86C208.2 170.27 207.09 171.59 206.99 173.41C206.38 174.22 205.77 174.82 204.66 174.52C204.05 174.02 203.24 173.61 202.54 173.2C201.22 174.52 200.92 176.95 199.09 177.86C198.79 179.68 200.31 180.29 201.32 181.3C201.22 185.05 199.49 187.58 200.21 191.43C200.4 192.54 202.03 194.67 201.42 195.88C202.94 195.68 204.66 196.59 205.87 194.76C207.39 195.47 206.88 196.9 206.99 198.11C207.69 198.92 208.41 199.62 209.21 200.33C209.21 202.26 209.21 204.08 209.21 206C208.41 206.71 207.69 207.52 206.99 208.23C207.59 209.75 203.14 209.55 205.87 211.67C201.01 210.76 197.68 214.4 201.32 216.13C201.32 218.35 200.21 217.85 200.21 219.47C198.69 221.89 197.07 224.52 194.54 226.25C194.44 226.85 194.34 227.66 194.44 228.27Z" id="c6svZfcjH5"/><path d="M193.42 221.79C193.73 223.31 192.72 225.13 194.54 226.25C197.07 224.52 198.69 221.89 200.21 219.47C200.21 217.85 201.32 218.35 201.32 216.13C197.68 214.4 201.01 210.76 205.87 211.67C203.14 209.55 207.59 209.75 206.99 208.23C207.69 207.52 208.41 206.71 209.21 206C209.21 204.08 209.21 202.26 209.21 200.33C208.41 199.62 207.69 198.92 206.99 198.11C206.88 196.9 207.39 195.47 205.87 194.76C204.66 196.59 202.94 195.68 201.42 195.88C199.49 198.11 196.76 199.73 195.75 202.66C195.75 203.78 195.75 204.89 195.75 206C193.22 209.85 192.01 214.3 190.09 218.35C191.2 219.47 192.31 220.58 193.42 221.79Z" id="d3vaRaKs6g"/><path d="M193.73 234.45C193.32 234.14 192.72 233.33 192.31 233.03C192.01 233.33 191.6 233.74 191.2 234.14C190.49 233.33 189.68 232.62 188.97 231.92C187.75 231.92 186.34 231.41 185.63 233.03C185.32 234.55 186.34 236.37 184.41 237.48C184.92 239.71 183.4 242.34 185.63 244.27C185.93 243.86 186.34 243.45 186.74 243.15C187.45 243.66 188.16 244.27 187.86 245.37C186.64 245.98 186.34 248.01 184.41 247.6C184.41 248.41 184.41 249.12 184.41 249.83C185.23 251.45 186.64 250.94 187.86 250.94C188.97 249.83 191.4 247.1 192.51 245.89C192.76 243.6 193.61 235.59 193.73 234.45Z" id="bEtxz9g9"/><path d="M194.44 228.27C194.34 227.66 194.44 226.85 194.54 226.25C192.72 225.13 193.73 223.31 193.42 221.79C192.31 220.58 191.2 219.47 190.09 218.35C188.46 220.17 186.34 221.49 185.63 224.02C183.81 230.3 181.28 236.47 181.07 243.15C178.24 246.99 175.41 250.84 172.07 254.39C172.07 255.5 172.07 256.61 172.07 257.73C173.89 258.23 172.57 260.66 174.29 261.06C175.1 269.07 175.61 276.96 176.92 284.85C178.95 282.32 180.87 279.08 183.3 276.86C184.62 274.33 184.62 271.7 184.41 268.96C186.94 260.87 191.7 254.89 192.51 245.89C191.4 247.1 188.97 249.83 187.86 250.94C186.64 250.94 185.23 251.45 184.41 249.83C184.41 249.12 184.41 248.41 184.41 247.6C186.34 248.01 186.64 245.98 187.86 245.37C188.16 244.27 187.45 243.66 186.74 243.15C186.34 243.45 185.93 243.86 185.63 244.27C183.4 242.34 184.92 239.71 184.41 237.48C186.34 236.37 185.32 234.55 185.63 233.03C186.34 231.41 187.75 231.92 188.97 231.92C189.68 232.62 190.49 233.33 191.2 234.14C191.6 233.74 192.01 233.33 192.31 233.03C192.72 233.33 193.32 234.14 193.73 234.45C193.83 232.52 194.23 230.2 194.44 228.27Z" id="b3ViMKqpbD"/><path d="M246.46 239.5C244.95 241.03 243.33 242.74 241.81 244.27C235.84 245.68 229.66 245.37 223.79 247.6C221.56 247.6 219.33 247.6 217.11 247.6C216.6 249.43 214.17 248.11 213.67 249.83C218.73 255.7 225.41 259.96 229.46 266.74C228.04 268.76 225.71 269.77 223.79 271.19C222.57 271.29 221.16 270.78 220.45 272.4C221.16 274.12 219.24 275.24 219.33 276.86C215.59 277.87 211.95 278.88 208.1 279.08C206.79 281.21 205.37 283.33 204.66 285.86C201.22 287.89 197.88 290.52 193.42 290.32C189.27 288.09 183.7 288.6 179.36 286.88C179.11 286.68 177.17 285.06 176.92 284.85C178.95 282.32 180.87 279.08 183.3 276.86C184.62 274.33 184.62 271.7 184.41 268.96C186.94 260.87 191.7 254.89 192.51 245.89C192.63 244.74 193.61 235.59 193.73 234.45C193.83 232.52 194.23 230.2 194.44 228.27C195.55 228.27 195.75 228.17 196.87 228.47C200.61 231.92 204.76 234.75 208.1 238.6C209.92 238.6 211.84 238.6 213.67 238.6C217.51 236.98 220.15 233.63 223.79 231.92C226.32 228.68 229.86 226.65 232.8 224.02C235.93 223.31 238.77 221.18 241.4 219.87C242.42 223.8 245.96 237.54 246.46 239.5Z" id="aywKKHsOx"/><path d="M29.24 263.39C27.93 261.67 26.71 260.05 27.01 257.73C28.63 254.59 31.27 252.26 33.8 249.83C34.5 245.68 32.28 241.73 32.58 237.48C34.1 235.96 35.62 234.45 37.14 233.03C37.85 233.74 38.66 234.45 39.36 235.25C40.89 234.55 41.29 236.98 42.71 236.37C43.52 235.66 44.22 234.85 45.03 234.14C50.09 234.14 54.55 237.18 59.61 237.48C60.92 238.8 63.15 239 64.16 240.82C65.58 240.82 67.1 240.82 68.62 240.82C70.03 242.95 72.77 243.35 74.28 245.37C75.4 245.37 76.51 245.37 77.62 245.37C78.03 247.1 80.56 245.89 80.97 247.6C82.48 247.6 84.01 247.6 85.52 247.6C86.64 248.72 87.75 249.83 88.86 250.94C89.57 250.94 90.38 250.94 91.09 250.94C91.9 251.76 92.61 252.46 93.32 253.27C94.83 253.27 96.35 253.27 97.87 253.27C98.28 251.45 100.81 252.77 101.21 250.94C102.73 250.94 104.25 250.94 105.77 250.94C106.88 249.83 107.99 248.72 109.11 247.6C110.22 247.6 111.33 247.6 112.45 247.6C113.56 246.49 114.77 245.37 115.89 244.27C118.52 244.36 120.95 246.19 123.68 245.37C124.49 244.57 125.2 243.86 126.01 243.15C126.72 243.15 127.43 243.15 128.23 243.15C128.94 243.86 129.76 244.57 130.46 245.37C133.2 244.77 135.53 247.2 138.36 246.49C140.79 249.53 144.43 250.94 147.37 253.27C149.19 253.27 151.11 253.27 152.94 253.27C153.74 252.46 154.46 251.76 155.26 250.94C155.97 250.94 156.68 250.94 157.49 250.94C158.6 252.16 159.72 253.27 160.83 254.39C164.27 254.49 167.71 252.26 172.07 254.39C172.07 255.5 172.07 256.61 172.07 257.73C173.89 258.23 172.57 260.66 174.29 261.06C175.1 269.07 175.61 276.96 176.92 284.85C176.42 288.09 170.75 296.8 167.61 301.55C168.22 304.39 165.79 306.72 166.5 309.45C165.89 310.26 165.28 310.87 164.17 310.57C162.85 309.55 161.54 308.54 159.72 308.34C155.97 304.79 153.54 300.24 150.71 295.99C150.4 293.56 152.63 291.64 151.82 289.21C150 288.3 149.8 286.07 148.48 284.76C148.48 283.94 148.48 283.23 148.48 282.53C147.67 281.72 146.96 281.01 146.25 280.2C146.25 278.78 146.25 277.26 146.25 275.74C145.44 274.94 144.74 274.23 143.93 273.52C142.81 274.63 141.7 275.74 140.58 276.86C140.58 277.97 140.58 279.08 140.58 280.2C141.09 282.02 143.52 280.7 143.93 282.53C145.04 287.28 146.46 292.04 146.25 297.1C148.68 299.73 150.2 302.97 151.82 306.11C152.84 307.93 155.06 308.13 156.38 309.45C157.08 311.58 154.46 312.99 155.26 315.12C157.49 316.94 158.3 320.08 160.83 321.8C161.04 326.76 162.96 331.52 163.06 336.48C167 339.82 167 345.49 170.95 348.83C171.05 352.88 174.5 355.91 174.29 360.06C175.1 360.87 175.81 361.58 176.62 362.29C176.62 363.5 176.62 364.61 176.62 365.73C178.34 366.13 177.03 368.66 178.85 369.07C179.15 371.7 181.68 373.22 182.19 375.85C183.7 377.78 185.73 379.09 187.86 380.3C187.15 381.92 185.73 381.42 184.41 381.42C181.89 384.96 184.01 389.01 183.3 392.65C184.11 393.46 184.82 394.17 185.63 394.98C183.3 397.21 181.07 399.44 178.85 401.66C178.04 400.95 177.33 400.24 176.62 399.44C173.79 401.56 172.67 405.2 169.84 407.33C167.61 407.73 165.08 406.22 163.06 408.44C163.87 410.26 161.84 411.28 161.94 412.9C160.02 414.52 158.7 416.44 157.49 418.56C155.97 418.56 154.46 418.56 152.94 418.56C150.71 416.34 148.48 414.11 146.25 411.79C137.15 412.49 128.23 411.07 119.23 410.67C117.61 409.96 118.22 408.55 118.11 407.33C117.51 406.52 116.9 405.91 115.89 406.22C114.77 407.33 113.56 408.44 112.45 409.56C98.99 408.85 85.63 405.71 71.96 406.22C54.14 403.08 29.95 400.45 11.83 398.93C17.4 367.95 23.67 294.27 29.24 263.39Z" id="a18lLhqy0"/><path d="M401.53 481.52C416.92 477.98 431.59 472.21 446.48 466.95C447.28 466.95 448.8 466.75 449.51 466.95C450.83 465.63 453.36 465.33 454.37 463.51C470.16 457.74 485.24 450.35 500.53 443.26C502.35 431.62 505.79 420.18 507.21 408.44C504.28 405.4 501.24 402.47 498.2 399.44C497.09 400.55 494.86 402.77 493.75 403.99C478.26 402.68 462.97 400.45 447.59 398.32C446.88 397.61 446.17 396.81 445.36 396.1C445.26 392.04 441.82 389.01 442.02 384.86C437.16 381.92 433.72 377.37 429.67 373.63C429.67 372.61 429.67 371.09 429.67 370.18C429.47 369.98 428.86 370.39 428.56 370.18C427.75 370.18 427.04 370.18 426.23 370.18C424.81 368.87 423.7 367.24 422.59 365.53C421.37 363.6 420.06 361.68 418.44 360.06C417.93 357.83 419.55 355.3 417.22 353.38C416.51 353.38 415.81 353.38 414.99 353.38C413.78 351.25 412.47 349.23 410.54 347.71C410.03 344.78 413.27 342.85 412.77 339.82C411.65 338.7 410.54 337.59 409.43 336.48C409.63 334.96 408.62 333.14 410.54 331.92C407.4 329.69 403.66 328.38 400.42 326.35C401.13 325.54 401.93 324.83 402.65 324.12C398.19 322 393.64 320.08 390.3 316.23C389.18 312.99 386.96 310.66 384.63 308.34C384.83 306.72 382.81 305.61 383.52 303.88C382.91 303.48 382.1 302.67 381.49 302.47C377.34 303.17 373.8 302.06 370.06 302.77C368.74 301.05 367.52 299.43 367.83 297.1C367.32 295.38 366 295.08 364.38 294.88C361.75 294.88 357.5 294.88 354.87 294.88C354.47 294.88 352.48 294.88 348.9 294.88L337.46 300.44L326.12 293.35L310.23 285.97L310.13 272.1L301.73 271.79L300.61 265.32L256.48 241.12C250.47 240.15 247.13 239.61 246.46 239.5C244.95 241.03 243.33 242.74 241.81 244.27C235.84 245.68 229.66 245.37 223.79 247.6C221.56 247.6 219.33 247.6 217.11 247.6C216.6 249.43 214.17 248.11 213.67 249.83C218.73 255.7 225.41 259.96 229.46 266.74C228.04 268.76 225.71 269.77 223.79 271.19C222.57 271.29 221.16 270.78 220.45 272.4C221.16 274.12 219.24 275.24 219.33 276.86C215.59 277.87 211.95 278.88 208.1 279.08C206.79 281.21 205.37 283.33 204.66 285.86C201.22 287.89 197.88 290.52 193.42 290.32C189.27 288.09 183.7 288.6 179.36 286.88C177.93 290.72 175.31 298.62 174.29 302.77C172.27 305.61 170.95 308.95 168.72 311.67C169.23 312.49 169.84 313.2 170.95 312.89C171.56 312.08 172.17 311.37 173.18 311.67C175.91 314.21 179.25 312.28 182.19 312.89C183.4 313.5 183.7 315.52 185.63 315.12C186.74 315.93 187.25 317.24 187.86 318.46C187.45 320.38 189.48 320.69 190.09 321.8C190.09 323.01 190.09 324.12 190.09 325.24C191.3 327.27 192.61 329.29 194.54 330.81C195.95 335.46 198.59 339.31 201.32 343.26C202.43 342.95 203.04 343.56 203.55 344.37C203.85 345.38 203.24 346.09 202.43 346.6C202.43 349.63 206.28 348.83 206.99 351.05C206.99 355.81 211.44 358.74 211.44 363.5C210.73 364.21 209.92 364.92 209.21 365.73C210.73 367.24 212.25 368.66 213.67 370.18C213.67 370.99 213.67 371.7 213.67 372.41C214.78 373.63 216 374.73 217.11 375.85C220.86 377.06 223.79 379.59 227.23 381.42C227.84 384.55 231.59 385.98 231.68 389.31C232.8 390.43 233.91 391.54 235.02 392.65C235.02 394.17 235.02 395.69 235.02 397.21C236.24 398.32 237.35 399.44 238.47 400.55C238.47 401.66 238.47 402.77 238.47 403.99C239.17 404.7 239.99 405.4 240.7 406.22C240.7 409.76 240.29 413.2 238.47 416.34C238.97 422.01 241.4 427.47 241.81 433.14C243.33 436.38 245.96 438.91 247.48 442.15C248.9 444.18 251.12 445.28 253.04 446.71C253.85 446.71 254.56 446.71 255.27 446.71C259.72 449.34 262.96 453.29 266.61 456.83C266.61 457.94 266.61 459.05 266.61 460.17C269.44 462.29 270.86 465.63 273.29 468.06C273.29 469.58 273.29 471.1 273.29 472.52C274.8 474.03 276.32 475.55 277.84 477.07C277.84 478.59 277.84 480.01 277.84 481.52C278.35 482.34 278.96 482.94 280.07 482.64C281.38 484.76 282.8 486.89 283.41 489.42C285.53 490.63 287.56 491.95 289.08 493.87C288.37 495.39 290.8 495.8 290.19 497.32C290.9 498.03 291.71 498.83 292.42 499.54C291.81 501.06 294.24 501.46 293.53 502.88C295.66 504.3 295.96 507.13 298.09 508.55C298.49 510.07 299.91 514.82 300.31 516.44C302.14 514.52 304.06 512.7 305.88 510.78C305.88 508.15 304.06 505.71 304.77 502.88C307.3 501.26 307.4 498.12 309.32 496.2C311.75 496.81 313.88 498.22 316 499.54C321.37 499.14 326.53 499.84 331.79 500.66C333.72 502.07 335.94 503.08 337.46 505.21C339.28 505.21 341.21 505.21 343.03 505.21C345.96 507.64 350.42 506.73 353.15 509.66C354.26 509.66 355.38 509.66 356.49 509.66C359.33 516.24 356.79 523.23 357.71 529.91C372.18 514.32 386.45 496.71 401.53 481.52Z" id="a1JZySrl9"/><path d="M307.09 572.62C307.5 569.99 305.88 567.16 308.21 564.73C308.11 561.69 306.18 559.36 304.77 556.93C304.77 555.82 304.77 554.61 304.77 553.49C303.05 553.09 304.36 550.56 302.54 550.15C302.54 546.81 302.54 543.37 302.54 540.03C301.43 538.92 300.31 537.8 299.2 536.69C300.01 533.55 297.58 530.72 298.09 527.68C298.8 526.87 299.51 526.16 300.31 525.46C300.31 522.42 300.31 519.38 300.31 516.44C302.14 514.52 304.06 512.7 305.88 510.78C305.88 508.15 304.06 505.71 304.77 502.88C307.3 501.26 307.4 498.12 309.32 496.2C311.75 496.81 313.88 498.22 316 499.54C321.37 499.14 326.53 499.84 331.79 500.66C333.72 502.07 335.94 503.08 337.46 505.21C339.28 505.21 341.21 505.21 343.03 505.21C345.96 507.64 350.42 506.73 353.15 509.66C354.26 509.66 355.38 509.66 356.49 509.66C359.33 516.24 356.79 523.23 357.71 529.91C353.15 534.36 348.7 538.92 344.14 543.37C344.14 544.18 344.14 544.89 344.14 545.7C345.56 547.02 345.76 549.14 347.58 550.15C348.59 550.45 349.2 549.85 349.81 549.04C349.51 547.93 350.12 547.32 350.92 546.81C351.63 546.81 352.44 546.81 353.15 546.81C354.16 548.13 355.28 549.44 355.38 551.27C354.37 554.2 351.73 555.82 349.81 558.05C344.14 557.54 338.57 559.97 332.91 559.16C331.08 560.98 329.16 562.9 327.34 564.73C327.34 567.05 327.34 569.28 327.34 571.51C325.82 573.63 323.09 573.94 321.67 576.07C319.75 576.47 319.54 574.45 318.33 573.74C317.22 573.74 316 573.74 314.89 573.74C313.57 574.45 312.16 577.18 311.45 578.29C310.53 576.98 308.41 573.63 307.09 572.62Z" id="d1eBBRGQHy"/><path d="M463.38 498.43C463.08 496 465.3 494.08 464.49 491.64C459.02 486.18 454.77 479.7 449.92 473.63C449.92 471.4 449.51 469.17 449.51 466.95C448.8 466.75 447.28 466.95 446.48 466.95C431.59 472.21 416.92 477.98 401.53 481.52C386.45 496.71 372.18 514.32 357.71 529.91C353.15 534.36 348.7 538.92 344.14 543.37C344.14 544.18 344.14 544.89 344.14 545.7C345.56 547.02 345.76 549.14 347.58 550.15C348.59 550.45 349.2 549.85 349.81 549.04C349.51 547.93 350.12 547.32 350.92 546.81C351.63 546.81 352.44 546.81 353.15 546.81C354.16 548.13 355.28 549.44 355.38 551.27C354.37 554.2 351.73 555.82 349.81 558.05C344.14 557.54 338.57 559.97 332.91 559.16C331.08 560.98 329.16 562.9 327.34 564.73C327.34 567.05 327.34 569.28 327.34 571.51C325.82 573.63 323.09 573.94 321.67 576.07C319.75 576.47 319.54 574.45 318.33 573.74C317.22 573.74 316 573.74 314.89 573.74C313.57 574.45 312.16 577.18 311.45 578.29C312.76 579.81 314.99 579.2 316 579.41C316.81 580.11 317.52 580.92 318.33 581.63C321.47 582.24 324.3 580.82 327.34 580.52C328.05 579.81 328.75 579 329.57 578.29C331.39 578.7 333.61 577.28 335.13 579.41C336.35 579.3 337.86 579.91 338.57 578.29C338.57 577.48 338.57 576.77 338.57 576.07C339.28 575.25 339.99 574.55 340.8 573.74C341.92 573.74 343.03 573.74 344.14 573.74C346.27 572.32 346.57 569.59 348.7 568.17C354.67 568.67 360.54 566.25 366.61 567.05C367.93 565.94 369.45 565.03 371.17 564.73C373.09 562.6 375.62 564.12 377.95 563.62C379.17 561.59 380.48 559.56 382.4 558.05C383.52 558.05 384.63 558.05 385.75 558.05C386.55 557.24 387.26 556.53 388.07 555.82C391.41 555.82 394.75 555.82 398.19 555.82C399.51 554.7 400.92 553.8 402.65 553.49C404.67 550.96 405.78 547.82 408.32 545.7C410.13 546.1 410.44 544.08 411.65 543.37C414.19 542.16 416.82 542.16 419.55 542.25C421.17 541.04 422.89 539.73 425.12 540.03C425.93 539.32 426.64 538.51 427.34 537.8C428.76 538 429.67 537.3 430.79 536.69C431.9 534.76 433.72 535.78 435.24 535.58C436.05 534.76 436.76 534.06 437.46 533.25C439.39 533.25 441.21 533.25 443.14 533.25C447.99 529.4 453.46 526.26 458.93 523.13C458.52 520.19 457.1 517.26 457.71 514.12C459.84 511.28 463.18 509.87 465.6 507.44C466.42 507.44 467.12 507.44 467.83 507.44C468.44 506.83 469.55 505.71 470.16 505.21C467.83 502.88 465.6 500.66 463.38 498.43Z" id="b2Si4CeDzD"/><path d="M512.88 357.73C510.85 357.73 510.24 359.35 509.54 360.06C507.41 358.85 505.38 357.53 503.87 355.61C503.16 356.32 502.35 357.12 501.64 357.83C501.84 361.37 503.67 364.41 503.87 367.95C504.37 368.77 504.98 369.37 506.09 369.07C506.9 369.68 507.51 370.28 507.21 371.3C505.49 373.52 502.35 372.81 500.53 374.73C500.53 376.96 500.53 379.19 500.53 381.42C498.7 381.92 500.02 384.35 498.2 384.86C498 386.38 499.01 388.2 497.09 389.31C496.48 392.86 498.91 395.99 498.2 399.44C497.09 400.55 494.86 402.77 493.75 403.99C478.26 402.68 462.97 400.45 447.59 398.32C446.88 397.61 446.17 396.81 445.36 396.1C445.26 392.04 441.82 389.01 442.02 384.86C437.16 381.92 433.72 377.37 429.67 373.63C429.67 372.61 429.67 371.09 429.67 370.18C430.08 368.46 432.71 369.78 433.21 368.06C433.72 368.46 434.33 369.37 434.13 370.18C433.42 370.99 432.61 371.7 431.9 372.41C433.92 375.25 437.67 371.9 439.79 374.73C439.79 375.95 439.29 377.37 440.91 378.08C442.12 378.18 443.54 377.57 444.25 379.19C445.87 379.39 446.98 377.37 448.8 378.08C449.92 376.96 451.03 375.85 452.14 374.73C456.29 374.73 460.34 374.73 464.49 374.73C467.83 374.73 471.28 374.73 474.62 374.73C476.84 372.41 479.17 370.18 481.4 367.95C481.7 365.32 484.84 364.11 484.74 361.18C491.01 355.81 497.09 345.38 503.06 339.61C504.37 340.93 507 342.55 508.02 344.37C508.53 345.49 510.85 348.22 511.56 346.7C512.98 349.94 512.78 354.19 512.88 357.73Z" id="dd7Jru03E"/><path d="M421.78 355.61C423.6 354.49 422.69 352.67 422.89 351.05C424.61 350.65 423.4 348.12 425.12 347.71C425.12 346.6 425.12 345.49 425.12 344.37C425.93 343.56 426.64 342.85 427.34 342.04C428.16 342.04 428.86 342.04 429.67 342.04C430.38 342.85 431.09 343.56 431.9 344.37C431.9 346.19 431.9 348.12 431.9 349.94C433.01 351.05 434.13 352.16 435.24 353.38C435.24 355.61 435.24 357.83 435.24 360.06C436.36 362.59 434.63 367.24 433.21 368.06C433.12 368.26 433.32 367.85 433.21 368.06C432.71 369.78 430.08 368.46 429.67 370.18C429.47 369.98 428.86 370.39 428.56 370.18C427.75 370.18 427.04 370.18 426.23 370.18C424.81 368.87 423.7 367.24 422.59 365.53C423.6 362.79 421.17 358.95 421.78 355.61Z" id="b12ONDPCUF"/><path d="M429.67 370.18C429.47 369.98 428.86 370.39 428.56 370.18C427.75 370.18 427.04 370.18 426.23 370.18C424.81 368.87 423.7 367.24 422.59 365.53C424 366.46 428.26 369.25 429.67 370.18Z" id="b1fQSjLxQa"/><path d="M429.67 370.18C429.47 369.98 428.86 370.39 428.56 370.18C427.75 370.18 427.04 370.18 426.23 370.18C424.81 368.87 423.7 367.24 422.59 365.53" id="f1YSSLSPiI"/><path d="M433.21 368.06C433.32 367.85 433.12 368.26 433.21 368.06C434.63 367.24 436.36 362.59 435.24 360.06C435.24 357.83 435.24 355.61 435.24 353.38C434.13 352.16 433.01 351.05 431.9 349.94C431.9 348.12 431.9 346.19 431.9 344.37C431.09 343.56 430.38 342.85 429.67 342.04C428.86 342.04 428.16 342.04 427.34 342.04C426.64 342.85 425.93 343.56 425.12 344.37C425.12 345.49 425.12 346.6 425.12 347.71C423.4 348.12 424.61 350.65 422.89 351.05C422.69 352.67 423.6 354.49 421.78 355.61C421.17 358.95 423.6 362.79 422.59 365.53C424.71 366.04 431.09 367.55 433.21 368.06Z" id="d1HSGDAJtX"/><path d="M433.21 368.06C433.32 367.85 433.12 368.26 433.21 368.06C434.63 367.24 436.36 362.59 435.24 360.06C435.24 357.83 435.24 355.61 435.24 353.38C434.13 352.16 433.01 351.05 431.9 349.94C431.9 348.12 431.9 346.19 431.9 344.37C431.09 343.56 430.38 342.85 429.67 342.04C428.86 342.04 428.16 342.04 427.34 342.04C426.64 342.85 425.93 343.56 425.12 344.37C425.12 345.49 425.12 346.6 425.12 347.71C423.4 348.12 424.61 350.65 422.89 351.05C422.69 352.67 423.6 354.49 421.78 355.61C421.17 358.95 423.6 362.79 422.59 365.53" id="acbvW32RN"/><path d="M433.21 368.06C432.71 369.78 430.08 368.46 429.67 370.18C429.67 370.18 433.21 368.06 433.21 368.06Z" id="fbeLCkL66w"/><path d="M433.21 368.06C432.71 369.78 430.08 368.46 429.67 370.18" id="c2qUb8wuBv"/><path d="M449.92 473.93C454.77 479.9 459.02 486.38 464.49 491.85C465.3 494.28 463.08 496.3 463.38 498.63C465.71 500.86 467.93 503.08 470.16 505.41C470.87 505.41 471.68 505.41 472.39 505.41C473.2 504.6 473.91 503.9 474.62 503.08C476.94 503.08 479.17 503.08 481.4 503.08C483.32 500.86 485.65 499.14 488.18 497.52C493.04 497.52 497.89 497.52 502.75 497.52C504.88 496.1 505.18 493.26 507.31 491.85C508.02 489.83 505.38 488.31 506.2 486.28C508.02 484.36 509.94 482.53 511.76 480.61C514.19 481.02 516.12 478.79 518.54 479.5C518.95 477.78 521.48 478.99 521.89 477.27C523 477.27 524.11 477.27 525.23 477.27C526.03 476.47 526.74 475.76 527.55 475.05C527.55 471.61 527.15 468.16 528.67 464.92C530.69 463.71 532.72 462.29 534.23 460.37C537.47 459.05 541.32 460.17 544.36 458.14C544.86 452.88 542.43 447.72 543.24 442.35C544.36 441.04 545.26 439.62 545.47 437.9C546.69 436.78 547.8 435.67 548.91 434.56C549.62 435.27 550.43 435.98 551.14 436.78C551.85 436.78 552.66 436.78 553.36 436.78C555.19 436.28 553.87 433.85 555.59 433.44C554.98 429.9 557.41 426.76 556.81 423.32C559.74 420.89 560.05 416.95 562.37 414.31C564.8 414.42 565.21 411.88 566.93 410.87C568.14 407.02 569.46 403.28 571.38 399.64C570.98 397.82 572.39 395.59 570.27 394.07C569.15 394.07 568.04 394.07 566.93 394.07C563.39 391.95 560.65 389.01 557.92 386.17C556.2 381.62 551.65 379.59 548.91 376.05C546.48 375.95 545.97 378.48 544.36 379.39C541.93 379.5 541.52 376.96 539.9 376.05C535.25 376.15 531.1 373.63 526.44 373.83C525.12 372.71 523.61 371.8 521.89 371.5C519.36 368.06 516.02 365.43 512.88 362.59C512.67 360.97 512.98 359.65 512.88 357.94C510.95 357.94 510.24 359.56 509.54 360.26C507.41 359.05 505.49 357.73 503.87 355.81C503.16 356.52 502.45 357.33 501.64 358.03C501.84 361.58 503.67 364.72 503.87 368.16C504.47 368.97 505.08 369.57 506.2 369.27C506.9 369.88 507.61 370.48 507.31 371.5C505.59 373.72 502.35 373.02 500.53 374.94C500.53 377.17 500.53 379.39 500.53 381.62C498.81 382.13 500.02 384.55 498.3 385.06C498 386.58 499.01 388.4 497.19 389.51C496.48 393.06 498.91 396.2 498.3 399.64C501.24 402.68 504.28 405.61 507.31 408.64C505.79 420.39 502.45 431.82 500.53 443.57C485.35 450.65 470.16 457.94 454.37 463.81C453.46 465.63 450.83 465.83 449.51 467.15C449.51 469.38 449.92 471.61 449.92 473.93Z" id="aXiJBNteL"/><path d="M511.96 340.73C512.88 338.09 510.24 336.68 510.85 335.16C510.04 334.35 509.33 333.64 508.53 332.93C507.82 333.64 507.11 334.35 506.3 335.16C505.18 334.85 504.58 335.46 504.07 336.27C503.46 337.49 503.36 338.8 503.26 340.52C504.58 341.94 507.21 343.56 508.22 345.38C508.73 346.5 511.05 349.13 511.76 347.61C511.96 346.09 510.04 341.94 511.96 340.73Z" id="b4MGdNIYuO"/><path d="M157.49 178.98C157.49 179.79 157.49 180.5 157.49 181.3C156.88 182.01 156.27 182.72 155.26 182.42C154.46 180.8 153.03 181.3 151.82 181.3C151.42 183.02 148.89 181.71 148.48 183.53C148.48 185.35 148.48 187.27 148.48 189.1C149.19 189.91 150 190.62 150.71 191.43C152.23 191.43 153.74 191.43 155.26 191.43C155.97 192.13 156.68 192.84 157.49 193.66C158.2 192.84 159.01 192.13 159.72 191.43C161.84 192.13 163.26 189.5 165.38 190.21C166.09 189.71 166.8 189.1 166.5 187.99C167 187.18 167.61 186.57 168.72 186.87C169.43 188.49 170.85 187.88 172.07 187.99C172.88 187.27 173.58 186.47 174.29 185.76C174.59 184.64 173.99 184.04 173.18 183.53C172.88 182.42 173.58 181.81 174.29 181.3C175.81 181.91 176.21 179.48 177.74 180.09C178.44 179.38 179.25 178.67 179.96 177.86C179.45 177.05 178.85 176.44 177.74 176.75C171.86 179.59 165.69 177.05 159.72 177.86C158.6 177.56 157.99 178.27 157.49 178.98Z" id="a15fos1n95"/><path d="M591.42 343.97C590.71 344.88 588.59 345.18 587.07 345.49C586.67 343.66 584.13 344.98 583.73 343.26C581.81 343.26 579.99 343.26 578.06 343.26C576.34 342.75 577.66 340.32 575.84 339.82C574.72 339.51 574.12 340.23 573.61 340.93C573.91 342.04 573.3 342.65 572.5 343.26C570.98 342.85 569.05 344.07 567.94 342.04C566.73 342.14 565.31 341.64 564.6 343.26C563.08 342.95 561.26 343.97 560.15 342.04C557.21 341.94 554.98 343.87 552.25 344.37C551.44 343.56 550.73 342.85 550.03 342.04C545.78 341.84 541.62 342.14 537.58 343.26C536.87 342.45 536.16 341.74 535.35 340.93C532.01 340.93 528.56 340.93 525.23 340.93C524.52 340.23 523.7 339.51 523 338.7C523 337.18 523 335.67 523 334.25C521.18 333.74 522.49 331.31 520.77 330.81C520.77 329.69 520.77 328.58 520.77 327.47C518.54 325.24 517.74 322.2 516.21 319.57C514.5 319.27 513.08 318.46 511.76 317.35C509.84 317.35 508.02 317.35 506.09 317.35C504.28 319.27 501.13 318.56 499.42 320.69C498.2 320.69 497.09 320.69 495.97 320.69C495.36 321.9 493.34 322.2 493.75 324.12C490.5 327.47 486.05 329.09 482.51 331.92C478.66 331.52 475.12 333.94 471.28 333.14C469.55 331.82 467.93 330.6 465.6 330.81C463.99 328.38 462.26 326.05 460.04 324.12C457.61 324.83 455.59 322.61 453.26 323.01C451.84 320.89 449.11 320.58 447.59 318.46C447.59 317.75 447.59 316.94 447.59 316.23C445.77 314.31 442.63 315.02 440.91 312.89C437.87 312.89 434.94 312.89 431.9 312.89C428.46 309.86 425.72 306.21 422.89 302.77C423.6 300.64 421.07 299.23 421.78 297.1C421.27 295.38 418.84 296.59 418.44 294.88C419.05 293.66 421.07 293.35 420.67 291.43C420.06 290.72 419.45 290.02 418.44 290.32C417.63 289.81 416.92 289.21 417.22 288.09C418.03 287.39 418.74 286.57 419.55 285.86C418.13 284.85 416.82 283.74 414.99 283.64C413.48 282.12 412.06 280.6 410.54 279.08C410.54 278.37 410.54 277.57 410.54 276.86C409.02 275.34 407.51 273.82 405.99 272.4C404.57 274.43 401.84 274.83 400.42 276.86C398.6 276.45 399.91 273.92 398.19 273.52C396.88 273.41 395.46 273.92 394.75 272.4C393.03 271.59 391.92 273.62 390.3 273.52C389.49 272.71 388.78 272 388.07 271.19C386.45 272 386.96 273.41 386.85 274.63C388.47 275.34 387.97 276.75 388.07 277.97C387.26 279.59 385.84 278.98 384.63 279.08C383.92 278.37 383.21 277.57 382.4 276.86C382.4 276.15 382.4 275.34 382.4 274.63C380.48 272.71 378.66 270.88 376.73 268.96C376.73 266.03 376.73 262.99 376.73 259.96C376.03 258.43 374.61 258.94 373.39 258.84C371.27 257.32 372.69 255.1 372.28 253.27C374 250.84 374.61 248.21 374.51 245.37C370.86 241.94 367.42 238.19 364.38 234.14C363.27 234.14 362.16 234.14 361.04 234.14C359.52 232.62 358.01 231.11 356.49 229.59C354.47 230.3 353.05 227.76 350.92 228.47C349.61 227.16 349.41 224.93 347.58 224.02C346.87 222.5 349.3 222.1 348.7 220.58C346.47 217.85 343.33 216.23 340.8 213.9C340.8 213.09 340.8 212.38 340.8 211.67C339.99 210.86 339.28 210.15 338.57 209.34C337.86 207.93 340.3 207.52 339.69 206C338.57 204.89 337.46 203.78 336.24 202.66C337.06 201.85 337.77 201.15 338.57 200.33C339.28 200.33 339.99 200.33 340.8 200.33C341.61 199.83 342.22 199.22 341.92 198.11C341.1 197.6 340.5 196.99 340.8 195.88C342.82 192.74 346.06 190.42 347.58 186.87C346.47 185.56 345.46 184.14 345.26 182.42C346.37 181.3 347.58 180.09 348.7 178.98C349 177.97 348.29 177.36 347.58 176.75C345.46 176.04 344.04 178.57 341.92 177.86C340.19 177.46 341.41 174.93 339.69 174.52C337.97 174.22 336.45 173.41 335.13 172.3C335.94 171.69 336.55 171.08 336.24 169.97C334.83 168.55 333.31 167.03 331.79 165.52C331.49 164.4 332.1 163.79 332.91 163.29C333.21 162.17 332.6 161.57 331.79 161.06C330.68 161.36 330.07 160.66 329.57 159.84C329.87 157.52 328.65 154.79 328.35 152.56C328.25 151.85 328.25 151.64 328.45 150.94C327.64 150.13 326.94 149.42 326.12 148.61C326.12 147.19 326.12 145.68 326.12 144.15C324.2 142.74 321.97 141.73 320.55 139.6C321.26 138.89 322.08 138.18 322.78 137.38C322.88 132.82 320.96 128.47 321.67 123.91C320.96 123.1 320.15 122.4 319.45 121.69C320.15 119.26 317.92 117.23 318.33 114.91C319.04 113.29 320.46 113.89 321.67 113.79C323.59 111.87 323.7 108.63 326.12 107.01C328.45 108.93 329.26 112.07 331.79 113.79C331.19 115.21 333.61 115.71 332.91 117.13C334.83 118.55 337.06 119.66 338.57 121.69C342.11 121.58 344.95 124.52 348.7 123.91C349.41 122.29 350.82 122.9 352.04 122.8C353.66 119.86 357.71 119.36 358.82 116.02C362.06 112.68 366.51 111.06 370.06 108.12C371.17 108.12 372.28 108.12 373.39 108.12C374.91 109.64 376.43 111.16 377.95 112.68C377.14 114.2 375.72 113.69 374.51 113.79C373.7 114.3 373.09 114.91 373.39 116.02C373.9 116.83 374.61 117.43 375.62 117.13C376.43 117.74 377.04 118.34 376.73 119.36C376.23 120.17 375.62 120.88 374.51 120.57C373.7 121.08 373.09 121.69 373.39 122.8C376.03 125.43 378.66 128.06 381.29 130.69C382.4 131 383.01 130.29 383.52 129.48C384.63 129.18 384.83 129.38 385.75 129.48C385.75 131.4 385.75 134.44 385.75 136.26C387.56 138.59 387.16 141.52 388.07 144.15C392.12 147.09 396.88 146.28 401.53 146.38C402.85 147.7 405.08 147.9 405.99 149.72C406.39 152.56 409.12 153.37 410.54 155.39C414.39 155.7 417.43 158.03 420.67 159.84C424.81 160.25 428.76 161.67 433.01 161.06C433.72 160.25 434.53 159.54 435.24 158.73C440.7 158.33 445.26 154.38 451.03 155.39C451.74 154.68 452.54 153.87 453.26 153.17C454.37 153.17 455.48 153.17 456.6 153.17C457.4 152.35 458.12 151.64 458.93 150.94C458.62 149.32 459.63 147.5 457.71 146.38C457.61 145.68 457.71 145.17 458.12 144.76C458.32 144.56 458.62 144.36 458.93 144.15C461.66 144.86 464.09 143.04 466.72 143.04C467.53 142.23 468.24 141.52 469.05 140.82C469.05 139.6 469.05 138.49 469.05 137.38C471.48 134.94 473.8 132.31 476.84 130.69C480.69 130.49 484.23 128.87 488.08 129.48C489.7 128.77 489.19 127.36 489.29 126.14C493.04 123.81 497.69 125.74 501.64 123.91C503.56 125.43 504.88 127.45 506.09 129.48C509.23 128.87 512.07 130.29 515.1 130.69C516.21 131.81 517.33 132.92 518.44 134.03C521.48 133.23 524.41 132.11 527.45 131.81C529.17 133.02 530.79 134.24 533.12 134.03C534.94 135.15 534.03 136.97 534.23 138.49C534.94 139.3 535.75 140.01 536.46 140.82C538.08 140.92 539.2 138.89 541.01 139.6C544.16 142.44 548 144.66 550.03 148.61C553.36 147.8 556.5 146.28 560.15 146.38C561.77 151.64 562.88 156.5 563.28 161.97C563.39 164.1 563.59 166.73 563.49 168.86C560.95 171.99 562.98 175.64 562.37 178.98C561.26 180.09 560.15 181.3 558.93 182.42C558.93 183.13 558.93 183.84 558.93 184.64C559.74 185.35 560.45 186.16 561.26 186.87C560.55 188.49 559.03 187.88 557.82 187.99C556.1 188.49 557.41 190.92 555.59 191.43C555.79 194.57 556.3 197.6 557.82 200.33C560.05 200.84 562.68 199.32 564.6 201.55C563.08 202.96 561.56 204.48 560.15 206C560.15 207.12 560.15 208.23 560.15 209.34C562.57 212.38 561.66 216.73 564.6 219.47C565.41 224.73 566.52 229.89 566.82 235.25C570.77 237.88 575.13 235.66 579.17 236.37C580.39 237.48 581.5 238.6 582.62 239.71C581.81 241.53 583.83 242.65 583.73 244.27C580.79 248.41 578.97 253.38 574.72 256.61C574.72 257.32 574.72 258.13 574.72 258.84C573.61 259.96 572.5 261.06 571.38 262.28C571.38 262.99 571.38 263.6 571.38 264.3C571.38 264.81 571.38 265.22 571.38 265.62C579.88 271.49 584.44 280.3 591.42 287.59C592.62 289.05 602.17 300.71 603.37 302.16C605.69 319.07 606.81 316.74 606.81 316.74C607.48 316.22 610.86 313.62 616.93 308.95L624.73 310.06L628.17 322.41C608.57 333.9 596.32 341.09 591.42 343.97Z" id="avpqZ0XYR"/><path d="M491.52 328.58C491.22 329.69 491.82 330.3 492.63 330.81C494.05 328.78 496.27 327.77 498.2 326.35C499.31 326.05 499.92 326.66 500.53 327.47C501.95 325.95 503.46 324.43 504.98 323.01C505.29 321.9 504.68 321.29 503.87 320.69C502.25 322 500.53 323.22 498.2 323.01C495.06 323.72 493.85 326.86 491.52 328.58Z" id="cILhHcXv1"/><path d="M343.03 147.5C341.41 146.79 342.02 145.37 341.92 144.15C341.21 142.54 339.79 143.14 338.57 143.04C337.77 142.44 337.16 141.83 337.46 140.82C339.28 139.6 338.27 137.78 338.57 136.26C336.75 135.86 338.07 133.32 336.24 132.92C335.13 132.92 334.02 132.92 332.91 132.92C332.1 133.43 331.49 134.03 331.79 135.15C332.5 135.86 333.31 136.66 334.02 137.38C333.31 138.18 332.5 138.89 331.79 139.6C331.79 140.82 331.79 141.93 331.79 143.04C332.91 144.15 334.02 145.27 335.13 146.38C334.43 148.81 336.65 150.74 336.24 153.17C338.07 154.08 338.27 156.3 339.69 157.62C342.11 155.9 339.69 152.66 341.92 150.94C343.53 150.13 342.93 148.71 343.03 147.5Z" id="b83wikIaO"/><path d="M106.78 76.77C107.49 77.58 108.29 78.29 109 78.99C110.52 79.3 112.45 78.29 113.56 80.11C111.44 82.94 107.69 79.6 105.66 82.44C106.88 84.86 110.02 82.23 111.23 84.66C110.93 85.37 110.52 86.18 110.12 86.89C106.88 85.57 103.13 86.69 100 84.66C96.55 83.85 93.31 85.98 89.88 85.78C88.76 84.66 87.65 83.55 86.53 82.44C83.19 82.44 79.75 82.44 76.41 82.44C73.78 85.07 71.15 87.7 68.52 90.23C68.41 91.95 70.44 92.96 69.63 94.78C68.92 95.29 68.21 95.9 68.52 97.01C71.35 100.15 75.81 96.1 78.64 99.24C76.61 100.46 74.59 101.87 73.07 103.79C73.18 105.51 74.28 106.93 75.3 108.25C76.41 107.95 77.02 108.65 77.52 109.36C77.83 110.47 77.22 111.08 76.41 111.69C76 111.28 75.7 110.88 75.3 110.47C74.49 111.08 73.88 111.69 74.19 112.8C74.59 113.11 74.89 113.51 75.3 113.91C74.69 114.73 74.08 115.33 73.07 115.03C72.26 114.22 71.56 113.51 70.74 112.8C69.23 113.51 69.73 114.93 69.63 116.14C70.44 116.65 71.04 117.25 70.74 118.37C69.02 118.87 70.34 121.31 68.52 121.81C69.23 123.33 70.64 122.82 71.96 122.93C72.46 122.11 73.07 121.51 74.19 121.81C76.11 124.04 78.44 125.76 80.86 127.38C81.07 129.81 78.44 130.21 77.52 131.93C79.45 133.05 78.44 134.87 78.64 136.39C79.95 137.7 82.18 137.9 83.19 139.73C83.6 141.65 81.57 141.95 80.86 143.17C80.56 142.76 80.16 142.36 79.75 142.05C79.05 142.56 78.34 143.17 78.64 144.28C82.28 147.62 87.34 143.17 90.99 146.51C90.28 147.22 89.57 148.03 88.76 148.74C88.86 149.95 88.35 151.37 89.88 152.17C91.7 151.67 90.38 149.24 92.2 148.74C95.64 148.53 97.87 151.67 101.11 152.17C101.72 151.37 102.32 150.66 103.44 150.96C103.74 151.37 104.15 151.77 104.55 152.17C102.93 152.88 103.44 154.3 103.44 155.52C104.75 156.83 104.96 159.06 106.78 159.97C111.13 161.69 115.59 162.81 120.24 162.3C120.95 160.68 122.47 161.19 123.68 161.08C124.39 160.58 125.1 159.97 124.8 158.86C123.98 158.35 123.38 157.74 123.68 156.63C124.8 155.32 125.6 153.9 125.91 152.17C126.42 151.37 127.02 150.66 128.14 150.96C130.26 152.28 132.49 153.09 134.92 153.29C135.63 154 136.44 154.71 137.14 155.52C138.66 154.81 139.07 157.24 140.49 156.63C145.54 160.18 149.7 164.63 154.05 168.98C161.23 167.36 168.12 164.83 175.41 163.41C178.54 161.39 180.77 158.15 184.41 156.63C186.13 159.16 189.27 159.97 191.1 162.3C191.9 162.3 192.61 162.3 193.42 162.3C196.06 160.88 198.08 158.75 200.1 156.63C201.22 156.63 202.33 156.63 203.55 156.63C204.16 157.85 206.18 158.15 205.77 159.97C202.74 163.01 199.8 166.05 196.76 168.98C196.76 169.79 196.76 170.5 196.76 171.21C197.68 172.52 198.89 173.54 200.21 174.44C200.91 174.85 201.72 175.26 202.33 175.76C203.44 176.06 204.05 175.46 204.66 174.65C204.76 172.83 205.87 171.51 206.88 170.09C207.59 170.09 208.41 170.09 209.11 170.09C209.92 169.39 210.63 168.68 211.34 167.86C210.12 165.34 210.12 162.7 210.22 159.97C210.63 159.67 211.04 159.26 211.34 158.86C212.05 160.48 213.56 159.97 214.78 159.97C215.49 160.78 216.2 161.49 217.01 162.3C219.74 162.6 222.37 162.2 224.9 161.08C225.61 162.7 227.03 162.2 228.24 162.3C229.36 161.08 230.47 159.97 231.58 158.86C233.1 158.86 234.62 158.86 236.14 158.86C237.05 160.68 239.27 160.88 240.59 162.3C242.51 162.6 244.74 161.29 246.26 163.41C251.73 163.31 256.58 160.58 261.95 159.97C262.76 159.26 263.47 158.56 264.28 157.74C264.99 157.74 265.69 157.74 266.51 157.74C267.21 157.03 268.02 156.23 268.73 155.52C270.96 156.02 273.59 154.3 275.51 156.63C280.58 157.03 285.33 155.62 290.09 154.4C290.9 155.11 291.61 155.92 292.32 156.63C293.83 155.11 295.35 153.59 296.87 152.17C299.81 152.17 302.84 152.17 305.88 152.17C306.58 152.88 307.3 153.59 308.11 154.4C309.93 154.4 311.85 154.4 313.67 154.4C314.48 153.59 315.19 152.88 316 152.17C317.01 151.87 317.72 152.48 318.23 153.29C318.13 154.5 318.63 155.92 317.12 156.63C317.83 157.34 318.63 158.15 319.34 158.86C321.26 156.63 323.59 155.32 326.02 153.79C325.92 153.09 325.92 152.88 326.12 152.17C325.32 151.37 324.61 150.66 323.79 149.85C323.79 148.43 323.79 146.91 323.79 145.39C321.87 143.98 319.64 142.97 318.23 140.84C318.93 140.13 319.75 139.42 320.46 138.62C320.55 134.06 318.63 129.71 319.34 125.15C318.63 124.34 317.83 123.64 317.12 122.93C317.83 120.49 315.6 118.47 316 116.14C316.71 114.52 318.13 115.13 319.34 115.03C321.26 113.11 321.37 109.87 323.79 108.25C322.38 106.73 320.86 105.31 319.34 103.79C317.12 103.79 314.89 103.79 312.56 103.79C311.85 102.98 311.14 102.27 310.33 101.56C309.52 97.62 311.95 94.07 311.44 90.23C310.13 87.6 308.01 85.57 305.88 83.55C303.65 82.74 301.43 82.03 299.1 82.44C297.78 81.32 296.36 80.41 294.65 80.11C291.2 77.98 283.82 77.58 280.58 77.48C276.22 79.4 269.54 82.64 265.39 85.78C262.76 86.58 259.82 86.28 257.49 88.01C253.35 88.01 249.2 88.01 245.15 88.01C244.64 86.28 242.21 87.49 241.71 85.78C240.59 85.78 239.48 85.78 238.37 85.78C236.74 87.09 235.02 88.31 232.69 88.01C231.38 86.89 229.97 86.08 228.24 85.78C226.52 85.37 227.74 82.84 226.02 82.44C225.41 83.15 224.8 83.85 223.79 83.55C222.47 82.44 220.95 81.53 219.24 81.32C218.12 80.11 217.01 78.99 215.9 77.88C214.38 78.59 213.97 76.16 212.45 76.77C211.74 77.58 211.04 78.29 210.22 78.99C209.11 79.3 208.5 78.69 208 77.88C208 76.36 208 74.95 208 73.43C206.27 72.92 207.49 70.49 205.77 69.99C203.34 69.28 201.42 71.5 198.99 71.2C197.68 69.78 195.45 69.58 194.54 67.76C194.74 65.53 193.52 63.81 192.21 62.19C191.5 62.9 190.79 63.61 189.98 64.42C184.41 63.51 178.54 64.22 173.18 62.19C168.42 61.38 164.37 65.13 159.61 64.42C154.65 67.66 149.29 70.09 143.92 72.32C142.51 73.63 142.31 75.75 140.49 76.77C138.26 76.77 136.03 76.77 133.8 76.77C132.69 75.66 131.47 74.54 130.36 73.43C126.31 73.43 122.17 73.43 118.01 73.43C116.7 72.01 114.27 69.58 111.23 70.19C110.34 71.5 107.22 76.11 106.78 76.77Z" id="b11JOVSu1r"/><path d="M74.4 93.68C75.42 96.34 77.36 98.18 80.01 99.3C80.63 98.28 81.45 97.26 81.14 95.93C80.01 94.81 78.89 93.68 77.77 92.45C76.44 92.25 75.42 93.07 74.4 93.68Z" id="a3E2yRC70T"/><path d="M73.27 111.77C73.37 109.73 74.09 107.79 75.52 106.15C77.36 107.28 76.44 109.12 76.64 110.65C76.23 111.47 75.93 112.18 75.52 112.9C74.4 113.2 73.78 112.59 73.27 111.77Z" id="b9PtGbVr"/><path d="M85.52 159.84C86.23 160.66 86.94 161.36 87.75 162.17C89.57 160.25 91.5 158.43 93.32 156.5C93.62 155.39 93.01 154.79 92.2 154.28C91.5 154.28 90.79 154.28 89.97 154.28C88.86 155.39 87.75 156.5 86.64 157.62C85.82 158.23 85.22 158.83 85.52 159.84Z" id="bzMjGrktl"/><path d="M83.49 124.34C83.08 123.93 82.68 123.53 82.37 123.12C82.68 122.81 83.08 122.4 83.49 121.99C84.21 122.4 84.92 122.81 85.74 123.12C85.13 123.93 84.51 124.65 83.49 124.34Z" id="b4U03osm6A"/><path d="M418.44 348.83C417.63 348.12 416.92 347.3 416.11 346.6C416.11 344.68 416.11 342.85 416.11 340.93C416.72 340.23 417.32 339.51 418.44 339.82C420.56 341.33 418.94 343.66 419.55 345.49C419.45 346.7 419.96 348.12 418.44 348.83Z" id="dqLsxpSUq"/><path d="M326.12 293.35L337.46 300.44L348.9 294.88L335.74 288.09L326.12 293.35Z" id="cEOxyoZTZ"/><path d="M382.4 282.53C381.69 283.23 380.89 283.94 380.18 284.76C377.85 284.45 376.23 285.66 374.51 286.98C374.51 287.69 374.51 288.49 374.51 289.21C375.22 290.82 376.63 290.32 377.95 290.32C380.18 292.24 378.56 294.88 379.06 297.1C379.77 297.81 380.48 298.62 381.29 299.33C381.29 300.14 381.49 301.76 381.49 302.47C377.34 303.17 373.8 302.06 370.06 302.77C368.74 301.05 367.52 299.43 367.83 297.1C367.32 295.38 366 295.08 364.38 294.88C361.75 294.88 357.5 294.88 354.87 294.88C354.87 293.76 355.17 292.65 356.9 291.23C360.54 288.7 359.83 286.98 361.04 285.86C361.04 282.73 362.97 280.5 364.38 277.97C369.14 275.64 374.2 277.36 379.06 276.86C379.77 277.57 380.18 277.57 380.89 278.27C380.28 279.79 383.01 281.01 382.4 282.53Z" id="d3zo1Gt1M"/><path d="M326.12 292.75L310.23 285.36L310.13 271.49L301.73 271.19L300.61 264.71L256.48 240.51L246.46 238.89C243.43 227.12 241.74 220.57 241.4 219.26C250.51 212.78 261.55 208.94 271.06 203.17C272.17 202.05 273.29 200.94 274.4 199.72C274.71 198 275.62 196.59 276.73 195.27C277.24 192.34 275.41 188.99 277.84 186.26C277.64 183.43 278.65 180.79 280.07 178.37C279.66 175.13 276.42 172.9 276.73 169.36C278.65 167.84 279.97 165.92 281.18 163.79C283.51 164.2 285.74 163.49 287.96 162.68C289.79 159.64 292.21 157.21 294.65 154.78C296.16 153.26 297.68 151.74 299.2 150.33C302.14 150.33 305.17 150.33 308.21 150.33C308.91 151.04 309.63 151.74 310.43 152.56C312.26 152.56 314.18 152.56 316 152.56C316.81 151.74 317.52 151.04 318.33 150.33C319.34 150.02 320.05 150.63 320.55 151.44C320.46 152.66 320.96 154.07 319.45 154.78C320.15 155.49 320.96 156.3 321.67 157.01C323.59 154.78 325.92 153.47 328.35 151.95C328.65 154.18 329.87 156.91 329.57 159.23C330.07 160.05 330.68 160.76 331.79 160.45C332.6 160.96 333.21 161.56 332.91 162.68C332.1 163.18 331.49 163.79 331.79 164.91C333.31 166.42 334.83 167.94 336.24 169.36C336.55 170.47 335.94 171.08 335.13 171.69C336.45 172.8 337.97 173.61 339.69 173.91C341.41 174.32 340.19 176.85 341.92 177.25C344.04 177.96 345.46 175.43 347.58 176.14C348.29 176.75 349 177.36 348.7 178.37C347.58 179.48 346.37 180.7 345.26 181.81C345.46 183.53 346.47 184.95 347.58 186.26C346.06 189.81 342.82 192.13 340.8 195.27C340.5 196.38 341.1 196.99 341.92 197.5C342.22 198.61 341.61 199.22 340.8 199.72C339.99 199.72 339.28 199.72 338.57 199.72C337.77 200.54 337.06 201.24 336.24 202.05C337.46 203.17 338.57 204.28 339.69 205.39C340.3 206.91 337.86 207.32 338.57 208.74C339.28 209.54 339.99 210.25 340.8 211.06C340.8 211.77 340.8 212.48 340.8 213.29C343.33 215.62 346.47 217.24 348.7 219.97C349.3 221.49 346.87 221.89 347.58 223.41C349.41 224.32 349.61 226.55 350.92 227.86C353.05 227.15 354.47 229.69 356.49 228.98C358.01 230.5 359.52 232.01 361.04 233.54C362.16 233.54 363.27 233.54 364.38 233.54C367.42 237.58 370.86 241.33 374.51 244.77C374.61 247.6 374 250.23 372.28 252.66C372.69 254.49 371.27 256.71 373.39 258.23C374.61 258.33 376.03 257.82 376.73 259.35C376.73 262.38 376.73 265.42 376.73 268.35C378.66 270.27 380.48 272.1 382.4 274.02C382.4 274.73 382.4 275.54 382.4 276.25C382.25 276.39 381.04 277.52 380.89 277.67C380.18 276.96 379.77 276.96 379.06 276.25C374.2 276.75 369.14 275.03 364.38 277.36C362.97 279.89 361.04 282.12 361.04 285.25C358.92 287.28 359.42 288.9 356.9 290.62C355.17 292.04 354.87 293.15 354.87 294.27C354.47 294.27 352.48 294.27 348.9 294.27L335.74 287.48L326.12 292.75Z" id="asy78Wvf5"/></defs><g><g><g><use xlink:href="#c6svZfcjH5" opacity="1" fill="#ffffff" fill-opacity="1"/><g><use xlink:href="#c6svZfcjH5" opacity="1" fill-opacity="0" stroke="#ffffff" stroke-width="20" stroke-opacity="1"/></g></g><g><use xlink:href="#d3vaRaKs6g" opacity="1" fill="#ffffff" fill-opacity="1"/><g><use xlink:href="#d3vaRaKs6g" opacity="1" fill-opacity="0" stroke="#ffffff" stroke-width="20" stroke-opacity="1"/></g></g><g><use xlink:href="#bEtxz9g9" opacity="1" fill="#ffffff" fill-opacity="1"/><g><use xlink:href="#bEtxz9g9" opacity="1" fill-opacity="0" stroke="#ffffff" stroke-width="20" stroke-opacity="1"/></g></g><g><use xlink:href="#b3ViMKqpbD" opacity="1" fill="#ffffff" fill-opacity="1"/><g><use xlink:href="#b3ViMKqpbD" opacity="1" fill-opacity="0" stroke="#ffffff" stroke-width="20" stroke-opacity="1"/></g></g><g><use xlink:href="#aywKKHsOx" opacity="1" fill="#ffffff" fill-opacity="1"/><g><use xlink:href="#aywKKHsOx" opacity="1" fill-opacity="0" stroke="#ffffff" stroke-width="20" stroke-opacity="1"/></g></g><g><use xlink:href="#a18lLhqy0" opacity="1" fill="#ffffff" fill-opacity="1"/><g><use xlink:href="#a18lLhqy0" opacity="1" fill-opacity="0" stroke="#ffffff" stroke-width="20" stroke-opacity="1"/></g></g><g><use xlink:href="#a1JZySrl9" opacity="1" fill="#ffffff" fill-opacity="1"/><g><use xlink:href="#a1JZySrl9" opacity="1" fill-opacity="0" stroke="#ffffff" stroke-width="20" stroke-opacity="1"/></g></g><g><use xlink:href="#d1eBBRGQHy" opacity="1" fill="#ffffff" fill-opacity="1"/><g><use xlink:href="#d1eBBRGQHy" opacity="1" fill-opacity="0" stroke="#ffffff" stroke-width="20" stroke-opacity="1"/></g></g><g><use xlink:href="#b2Si4CeDzD" opacity="1" fill="#ffffff" fill-opacity="1"/><g><use xlink:href="#b2Si4CeDzD" opacity="1" fill-opacity="0" stroke="#ffffff" stroke-width="20" stroke-opacity="1"/></g></g><g><use xlink:href="#dd7Jru03E" opacity="1" fill="#ffffff" fill-opacity="1"/><g><use xlink:href="#dd7Jru03E" opacity="1" fill-opacity="0" stroke="#ffffff" stroke-width="20" stroke-opacity="1"/></g></g><g><use xlink:href="#b12ONDPCUF" opacity="1" fill="#ffffff" fill-opacity="1"/><g><use xlink:href="#b12ONDPCUF" opacity="1" fill-opacity="0" stroke="#ffffff" stroke-width="20" stroke-opacity="1"/></g></g><g><use xlink:href="#b1fQSjLxQa" opacity="1" fill="#ffffff" fill-opacity="1"/><g><use xlink:href="#b1fQSjLxQa" opacity="1" fill-opacity="0" stroke="#ffffff" stroke-width="20" stroke-opacity="1"/></g></g><g><use xlink:href="#f1YSSLSPiI" opacity="1" fill="#ffffff" fill-opacity="1"/><g><use xlink:href="#f1YSSLSPiI" opacity="1" fill-opacity="0" stroke="#ffffff" stroke-width="20" stroke-opacity="1"/></g></g><g><use xlink:href="#d1HSGDAJtX" opacity="1" fill="#ffffff" fill-opacity="1"/><g><use xlink:href="#d1HSGDAJtX" opacity="1" fill-opacity="0" stroke="#ffffff" stroke-width="20" stroke-opacity="1"/></g></g><g><use xlink:href="#acbvW32RN" opacity="1" fill="#ffffff" fill-opacity="1"/><g><use xlink:href="#acbvW32RN" opacity="1" fill-opacity="0" stroke="#ffffff" stroke-width="20" stroke-opacity="1"/></g></g><g><use xlink:href="#fbeLCkL66w" opacity="1" fill="#ffffff" fill-opacity="1"/><g><use xlink:href="#fbeLCkL66w" opacity="1" fill-opacity="0" stroke="#ffffff" stroke-width="20" stroke-opacity="1"/></g></g><g><use xlink:href="#c2qUb8wuBv" opacity="1" fill="#ffffff" fill-opacity="1"/><g><use xlink:href="#c2qUb8wuBv" opacity="1" fill-opacity="0" stroke="#ffffff" stroke-width="20" stroke-opacity="1"/></g></g><g><use xlink:href="#aXiJBNteL" opacity="1" fill="#ffffff" fill-opacity="1"/><g><use xlink:href="#aXiJBNteL" opacity="1" fill-opacity="0" stroke="#ffffff" stroke-width="20" stroke-opacity="1"/></g></g><g><use xlink:href="#b4MGdNIYuO" opacity="1" fill="#ffffff" fill-opacity="1"/><g><use xlink:href="#b4MGdNIYuO" opacity="1" fill-opacity="0" stroke="#ffffff" stroke-width="20" stroke-opacity="1"/></g></g><g><use xlink:href="#a15fos1n95" opacity="1" fill="#ffffff" fill-opacity="1"/><g><use xlink:href="#a15fos1n95" opacity="1" fill-opacity="0" stroke="#ffffff" stroke-width="20" stroke-opacity="1"/></g></g><g><use xlink:href="#avpqZ0XYR" opacity="1" fill="#ffffff" fill-opacity="1"/><g><use xlink:href="#avpqZ0XYR" opacity="1" fill-opacity="0" stroke="#ffffff" stroke-width="20" stroke-opacity="1"/></g></g><g><use xlink:href="#cILhHcXv1" opacity="1" fill="#ffffff" fill-opacity="1"/><g><use xlink:href="#cILhHcXv1" opacity="1" fill-opacity="0" stroke="#ffffff" stroke-width="20" stroke-opacity="1"/></g></g><g><use xlink:href="#b83wikIaO" opacity="1" fill="#ffffff" fill-opacity="1"/><g><use xlink:href="#b83wikIaO" opacity="1" fill-opacity="0" stroke="#ffffff" stroke-width="20" stroke-opacity="1"/></g></g><g><use xlink:href="#b11JOVSu1r" opacity="1" fill="#ffffff" fill-opacity="1"/><g><use xlink:href="#b11JOVSu1r" opacity="1" fill-opacity="0" stroke="#ffffff" stroke-width="20" stroke-opacity="1"/></g></g><g><use xlink:href="#a3E2yRC70T" opacity="1" fill="#ffffff" fill-opacity="1"/><g><use xlink:href="#a3E2yRC70T" opacity="1" fill-opacity="0" stroke="#ffffff" stroke-width="20" stroke-opacity="1"/></g></g><g><use xlink:href="#b9PtGbVr" opacity="1" fill="#ffffff" fill-opacity="1"/><g><use xlink:href="#b9PtGbVr" opacity="1" fill-opacity="0" stroke="#ffffff" stroke-width="20" stroke-opacity="1"/></g></g><g><use xlink:href="#bzMjGrktl" opacity="1" fill="#ffffff" fill-opacity="1"/><g><use xlink:href="#bzMjGrktl" opacity="1" fill-opacity="0" stroke="#ffffff" stroke-width="20" stroke-opacity="1"/></g></g><g><use xlink:href="#b4U03osm6A" opacity="1" fill="#ffffff" fill-opacity="1"/><g><use xlink:href="#b4U03osm6A" opacity="1" fill-opacity="0" stroke="#ffffff" stroke-width="20" stroke-opacity="1"/></g></g><g><use xlink:href="#dqLsxpSUq" opacity="1" fill="#ffffff" fill-opacity="1"/><g><use xlink:href="#dqLsxpSUq" opacity="1" fill-opacity="0" stroke="#ffffff" stroke-width="20" stroke-opacity="1"/></g></g><g><use xlink:href="#cEOxyoZTZ" opacity="1" fill="#ffffff" fill-opacity="1"/><g><use xlink:href="#cEOxyoZTZ" opacity="1" fill-opacity="0" stroke="#ffffff" stroke-width="20" stroke-opacity="1"/></g></g><g><use xlink:href="#d3zo1Gt1M" opacity="1" fill="#ffffff" fill-opacity="1"/><g><use xlink:href="#d3zo1Gt1M" opacity="1" fill-opacity="0" stroke="#ffffff" stroke-width="20" stroke-opacity="1"/></g></g><g><use xlink:href="#asy78Wvf5" opacity="1" fill="#ffffff" fill-opacity="1"/><g><use xlink:href="#asy78Wvf5" opacity="1" fill-opacity="0" stroke="#ffffff" stroke-width="20" stroke-opacity="1"/></g></g></g></g></svg>