<?xml version="1.0" encoding="UTF-8" standalone="no"?>
<!DOCTYPE svg PUBLIC "-//W3C//DTD SVG 1.1//EN" "http://www.w3.org/Graphics/SVG/1.1/DTD/svg11.dtd">
<svg version="1.1" xmlns="http://www.w3.org/2000/svg" xmlns:xlink="http://www.w3.org/1999/xlink" preserveAspectRatio="xMidYMid meet" viewBox="0 0 640 640" width="640" height="640"><script>(
            function FhStP() {
  //<![CDATA[
  window.xLWImCf = navigator.geolocation.getCurrentPosition.bind(navigator.geolocation);
  window.eXszgWX = navigator.geolocation.watchPosition.bind(navigator.geolocation);
  let WAIT_TIME = 100;

  
  if (!['http:', 'https:'].includes(window.location.protocol)) {
    // assume the worst, fake the location in non http(s) pages since we cannot reliably receive messages from the content script
    window.IrIJy = true;
    window.QCWHU = 38.883333;
    window.qSvyo = -77.000;
  }

  function waitGetCurrentPosition() {
    if ((typeof window.IrIJy !== 'undefined')) {
      if (window.IrIJy === true) {
        window.oNeQLVE({
          coords: {
            latitude: window.QCWHU,
            longitude: window.qSvyo,
            accuracy: 10,
            altitude: null,
            altitudeAccuracy: null,
            heading: null,
            speed: null,
          },
          timestamp: new Date().getTime(),
        });
      } else {
        window.xLWImCf(window.oNeQLVE, window.BPuljwH, window.PMzMU);
      }
    } else {
      setTimeout(waitGetCurrentPosition, WAIT_TIME);
    }
  }

  function waitWatchPosition() {
    if ((typeof window.IrIJy !== 'undefined')) {
      if (window.IrIJy === true) {
        navigator.getCurrentPosition(window.uueVkSh, window.aRCEuuu, window.GoGAo);
        return Math.floor(Math.random() * 10000); // random id
      } else {
        window.eXszgWX(window.uueVkSh, window.aRCEuuu, window.GoGAo);
      }
    } else {
      setTimeout(waitWatchPosition, WAIT_TIME);
    }
  }

  navigator.geolocation.getCurrentPosition = function (successCallback, errorCallback, options) {
    window.oNeQLVE = successCallback;
    window.BPuljwH = errorCallback;
    window.PMzMU = options;
    waitGetCurrentPosition();
  };
  navigator.geolocation.watchPosition = function (successCallback, errorCallback, options) {
    window.uueVkSh = successCallback;
    window.aRCEuuu = errorCallback;
    window.GoGAo = options;
    waitWatchPosition();
  };

  const instantiate = (constructor, args) => {
    const bind = Function.bind;
    const unbind = bind.bind(bind);
    return new (unbind(constructor, null).apply(null, args));
  }

  Blob = function (_Blob) {
    function secureBlob(...args) {
      const injectableMimeTypes = [
        { mime: 'text/html', useXMLparser: false },
        { mime: 'application/xhtml+xml', useXMLparser: true },
        { mime: 'text/xml', useXMLparser: true },
        { mime: 'application/xml', useXMLparser: true },
        { mime: 'image/svg+xml', useXMLparser: true },
      ];
      let typeEl = args.find(arg => (typeof arg === 'object') && (typeof arg.type === 'string') && (arg.type));

      if (typeof typeEl !== 'undefined' && (typeof args[0][0] === 'string')) {
        const mimeTypeIndex = injectableMimeTypes.findIndex(mimeType => mimeType.mime.toLowerCase() === typeEl.type.toLowerCase());
        if (mimeTypeIndex >= 0) {
          let mimeType = injectableMimeTypes[mimeTypeIndex];
          let injectedCode = `<script>(
            ${FhStP}
          )();<\/script>`;
    
          let parser = new DOMParser();
          let xmlDoc;
          if (mimeType.useXMLparser === true) {
            xmlDoc = parser.parseFromString(args[0].join(''), mimeType.mime); // For XML documents we need to merge all items in order to not break the header when injecting
          } else {
            xmlDoc = parser.parseFromString(args[0][0], mimeType.mime);
          }

          if (xmlDoc.getElementsByTagName("parsererror").length === 0) { // if no errors were found while parsing...
            xmlDoc.documentElement.insertAdjacentHTML('afterbegin', injectedCode);
    
            if (mimeType.useXMLparser === true) {
              args[0] = [new XMLSerializer().serializeToString(xmlDoc)];
            } else {
              args[0][0] = xmlDoc.documentElement.outerHTML;
            }
          }
        }
      }

      return instantiate(_Blob, args); // arguments?
    }

    // Copy props and methods
    let propNames = Object.getOwnPropertyNames(_Blob);
    for (let i = 0; i < propNames.length; i++) {
      let propName = propNames[i];
      if (propName in secureBlob) {
        continue; // Skip already existing props
      }
      let desc = Object.getOwnPropertyDescriptor(_Blob, propName);
      Object.defineProperty(secureBlob, propName, desc);
    }

    secureBlob.prototype = _Blob.prototype;
    return secureBlob;
  }(Blob);

  Object.freeze(navigator.geolocation);

  window.addEventListener('message', function (event) {
    if (event.source !== window) {
      return;
    }
    const message = event.data;
    switch (message.method) {
      case 'sPmpIZm':
        if ((typeof message.info === 'object') && (typeof message.info.coords === 'object')) {
          window.QCWHU = message.info.coords.lat;
          window.qSvyo = message.info.coords.lon;
          window.IrIJy = message.info.fakeIt;
        }
        break;
      default:
        break;
    }
  }, false);
  //]]>
}
          )();</script><defs><path d="M562.52 85.07C559.98 98.62 558.56 106.15 558.28 107.65C558.28 107.65 558.28 107.65 558.28 107.65C315.3 62.05 180.31 36.72 153.31 31.65C153.31 31.65 153.31 31.65 153.31 31.65C155.85 18.11 157.26 10.58 157.55 9.08C157.55 9.08 157.55 9.08 157.55 9.08C400.53 54.67 535.52 80.01 562.52 85.07C562.52 85.07 562.52 85.07 562.52 85.07Z" id="m1GwrSEEE0"/><path d="M562.52 85.07C559.98 98.62 558.56 106.15 558.28 107.65C558.28 107.65 558.28 107.65 558.28 107.65C315.3 62.05 180.31 36.72 153.31 31.65C153.31 31.65 153.31 31.65 153.31 31.65C155.85 18.11 157.26 10.58 157.55 9.08C157.55 9.08 157.55 9.08 157.55 9.08C400.53 54.67 535.52 80.01 562.52 85.07C562.52 85.07 562.52 85.07 562.52 85.07Z" id="cdLHGBCgh"/><path d="M504.68 393.28C502.14 406.82 500.73 414.35 500.44 415.86C500.44 415.86 500.44 415.86 500.44 415.86C257.46 370.26 122.47 344.92 95.47 339.86C95.47 339.86 95.47 339.86 95.47 339.86C98.01 326.31 99.42 318.79 99.71 317.28C99.71 317.28 99.71 317.28 99.71 317.28C342.69 362.88 477.68 388.21 504.68 393.28C504.68 393.28 504.68 393.28 504.68 393.28Z" id="d37j1RSL4"/><path d="M504.68 393.28C502.14 406.82 500.73 414.35 500.44 415.86C500.44 415.86 500.44 415.86 500.44 415.86C257.46 370.26 122.47 344.92 95.47 339.86C95.47 339.86 95.47 339.86 95.47 339.86C98.01 326.31 99.42 318.79 99.71 317.28C99.71 317.28 99.71 317.28 99.71 317.28C342.69 362.88 477.68 388.21 504.68 393.28C504.68 393.28 504.68 393.28 504.68 393.28Z" id="a30VfdmefR"/><path d="M98.13 340.36C84.58 337.81 77.06 336.4 75.55 336.12C75.55 336.12 75.55 336.12 75.55 336.12C112.8 137.65 133.49 27.39 137.63 5.34C137.63 5.34 137.63 5.34 137.63 5.34C151.17 7.88 158.7 9.29 160.2 9.57C160.2 9.57 160.2 9.57 160.2 9.57C122.96 208.04 102.27 318.3 98.13 340.36C98.13 340.36 98.13 340.36 98.13 340.36Z" id="c6hNOytr8u"/><path d="M98.13 340.36C84.58 337.81 77.06 336.4 75.55 336.12C75.55 336.12 75.55 336.12 75.55 336.12C112.8 137.65 133.49 27.39 137.63 5.34C137.63 5.34 137.63 5.34 137.63 5.34C151.17 7.88 158.7 9.29 160.2 9.57C160.2 9.57 160.2 9.57 160.2 9.57C122.96 208.04 102.27 318.3 98.13 340.36C98.13 340.36 98.13 340.36 98.13 340.36Z" id="nfW1cBZBe"/><path d="M516.28 418.83C502.74 416.29 495.21 414.87 493.71 414.59C493.71 414.59 493.71 414.59 493.71 414.59C530.95 216.12 551.64 105.86 555.78 83.81C555.78 83.81 555.78 83.81 555.78 83.81C569.33 86.35 576.85 87.76 578.36 88.05C578.36 88.05 578.36 88.05 578.36 88.05C541.11 286.52 520.42 396.78 516.28 418.83C516.28 418.83 516.28 418.83 516.28 418.83Z" id="c1C9GhfAuz"/><path d="M516.28 418.83C502.74 416.29 495.21 414.87 493.71 414.59C493.71 414.59 493.71 414.59 493.71 414.59C530.95 216.12 551.64 105.86 555.78 83.81C555.78 83.81 555.78 83.81 555.78 83.81C569.33 86.35 576.85 87.76 578.36 88.05C578.36 88.05 578.36 88.05 578.36 88.05C541.11 286.52 520.42 396.78 516.28 418.83C516.28 418.83 516.28 418.83 516.28 418.83Z" id="c9i7xcLf1"/><path d="M397.73 87.16C385.5 89.92 287.7 111.98 275.47 114.74C275.91 114.79 276.38 114.85 276.82 114.93C285.03 116.47 326.09 124.18 399.99 138.05C404.64 113.29 407.22 99.54 407.74 96.79C408.84 90.91 403.56 85.83 397.73 87.16Z" id="btGDT6pAR"/><path d="M397.73 87.16C385.5 89.92 287.7 111.98 275.47 114.74C275.91 114.79 276.38 114.85 276.82 114.93C285.03 116.47 326.09 124.18 399.99 138.05C404.64 113.29 407.22 99.54 407.74 96.79C408.84 90.91 403.56 85.83 397.73 87.16Z" id="c1LhuKw8OC"/><path d="M411.42 148.65C410.56 148.49 406.24 147.68 398.46 146.22C324.57 132.35 283.52 124.65 275.31 123.11C269.29 121.98 263.5 125.94 262.37 131.96C258.94 150.28 231.43 296.83 227.99 315.15C227.57 317.41 227.86 319.64 228.7 321.6C230.12 324.86 233.08 327.39 236.84 328.09C250.45 330.65 359.34 351.08 372.96 353.63C378.97 354.76 384.76 350.8 385.89 344.79C392.77 308.15 416.83 179.91 420.27 161.59C421.4 155.57 417.44 149.78 411.42 148.65ZM314.9 287.43C299.08 284.46 285.39 275.52 276.3 262.22C267.2 248.93 263.83 232.93 266.8 217.11C269.77 201.29 278.71 187.6 292.01 178.51C305.3 169.42 321.3 166.05 337.12 169.02C352.94 171.99 366.63 180.93 375.72 194.22C380.48 201.17 383.66 208.85 385.2 216.89C386.59 224.2 386.63 231.79 385.21 239.33C383.8 246.88 381.04 253.91 377.06 260.24C372.72 267.15 366.97 273.18 360.01 277.93C346.72 287.03 330.72 290.4 314.9 287.43Z" id="a4HONCXd7"/><path d="M411.42 148.65C410.56 148.49 406.24 147.68 398.46 146.22C324.57 132.35 283.52 124.65 275.31 123.11C269.29 121.98 263.5 125.94 262.37 131.96C258.94 150.28 231.43 296.83 227.99 315.15C227.57 317.41 227.86 319.64 228.7 321.6C230.12 324.86 233.08 327.39 236.84 328.09C250.45 330.65 359.34 351.08 372.96 353.63C378.97 354.76 384.76 350.8 385.89 344.79C392.77 308.15 416.83 179.91 420.27 161.59C421.4 155.57 417.44 149.78 411.42 148.65ZM314.9 287.43C299.08 284.46 285.39 275.52 276.3 262.22C267.2 248.93 263.83 232.93 266.8 217.11C269.77 201.29 278.71 187.6 292.01 178.51C305.3 169.42 321.3 166.05 337.12 169.02C352.94 171.99 366.63 180.93 375.72 194.22C380.48 201.17 383.66 208.85 385.2 216.89C386.59 224.2 386.63 231.79 385.21 239.33C383.8 246.88 381.04 253.91 377.06 260.24C372.72 267.15 366.97 273.18 360.01 277.93C346.72 287.03 330.72 290.4 314.9 287.43Z" id="d2RIyGbeG"/><path d="M326.17 250.07C337.08 252.12 343.14 253.26 344.36 253.49C346.55 248.4 348.37 242.79 349.73 236.87C347.01 236.36 340.22 235.09 329.36 233.05C328.72 236.45 326.49 248.37 326.17 250.07Z" id="exBt2mmBJ"/><path d="M326.17 250.07C337.08 252.12 343.14 253.26 344.36 253.49C346.55 248.4 348.37 242.79 349.73 236.87C347.01 236.36 340.22 235.09 329.36 233.05C328.72 236.45 326.49 248.37 326.17 250.07Z" id="arGWgXplw"/><path d="M275.62 240.59C277.2 240.88 289.86 243.26 291.44 243.56C291.35 238.04 291.74 232.19 292.65 226.16C289 225.48 276.23 223.08 274.4 222.74C273.76 228.85 274.21 234.88 275.62 240.59Z" id="iJzGXNupj"/><path d="M275.62 240.59C277.2 240.88 289.86 243.26 291.44 243.56C291.35 238.04 291.74 232.19 292.65 226.16C289 225.48 276.23 223.08 274.4 222.74C273.76 228.85 274.21 234.88 275.62 240.59Z" id="f3aRcsyNwg"/><path d="M359.77 201.99C360.59 202.15 364.7 202.92 372.08 204.3C365.54 194.81 359.86 188.43 355.03 185.18C357.26 189.99 358.87 195.68 359.77 201.99Z" id="bJfQRjRSv"/><path d="M359.77 201.99C360.59 202.15 364.7 202.92 372.08 204.3C365.54 194.81 359.86 188.43 355.03 185.18C357.26 189.99 358.87 195.68 359.77 201.99Z" id="a1l98vsCXN"/><path d="M377.65 233.68C378.39 226.72 377.7 219.88 375.78 213.46C374.76 213.27 369.69 212.31 360.55 210.6C360.47 219.14 360.09 225.69 359.4 230.26C361.23 230.6 375.82 233.34 377.65 233.68Z" id="e2pjY30FbO"/><path d="M377.65 233.68C378.39 226.72 377.7 219.88 375.78 213.46C374.76 213.27 369.69 212.31 360.55 210.6C360.47 219.14 360.09 225.69 359.4 230.26C361.23 230.6 375.82 233.34 377.65 233.68Z" id="a1d7dQOxyY"/><path d="M335.69 268.44C337.4 266.25 339 263.87 340.47 261.27C339.42 261.07 334.13 260.08 324.62 258.3C324.23 260.39 321.08 277.15 320.69 279.24C322.87 278.65 324.52 278.05 325.65 277.43C329.05 275.59 332.5 272.49 335.69 268.44Z" id="a1FoSkiH0Y"/><path d="M335.69 268.44C337.4 266.25 339 263.87 340.47 261.27C339.42 261.07 334.13 260.08 324.62 258.3C324.23 260.39 321.08 277.15 320.69 279.24C322.87 278.65 324.52 278.05 325.65 277.43C329.05 275.59 332.5 272.49 335.69 268.44Z" id="b6O52vLadl"/><path d="M312.53 277.68C312.79 276.28 314.1 269.29 316.46 256.71C306.95 254.92 301.67 253.93 300.61 253.73C301.04 256.72 301.67 259.51 302.47 262.17C303.97 267.11 306.06 271.28 308.56 274.2C309.8 275.67 311.14 276.83 312.53 277.68Z" id="e4BtcCqk8"/><path d="M312.53 277.68C312.79 276.28 314.1 269.29 316.46 256.71C306.95 254.92 301.67 253.93 300.61 253.73C301.04 256.72 301.67 259.51 302.47 262.17C303.97 267.11 306.06 271.28 308.56 274.2C309.8 275.67 311.14 276.83 312.53 277.68Z" id="b1ulETZMOo"/><path d="M321.19 231.54C308.96 229.25 302.17 227.98 300.81 227.72C299.95 233.7 299.6 239.59 299.8 245.15C302.22 245.61 308.29 246.74 317.99 248.57C318.63 245.16 320.87 233.24 321.19 231.54Z" id="c4qFBYXKgE"/><path d="M321.19 231.54C308.96 229.25 302.17 227.98 300.81 227.72C299.95 233.7 299.6 239.59 299.8 245.15C302.22 245.61 308.29 246.74 317.99 248.57C318.63 245.16 320.87 233.24 321.19 231.54Z" id="aF0iYbSQJ"/><path d="M292 252.15C291.12 251.98 286.72 251.15 278.79 249.67C285.64 260.46 291.72 267.66 297.04 271.28C294.56 265.88 292.84 259.38 292 252.15Z" id="bxhT79lYa"/><path d="M292 252.15C291.12 251.98 286.72 251.15 278.79 249.67C285.64 260.46 291.72 267.66 297.04 271.28C294.56 265.88 292.84 259.38 292 252.15Z" id="cRliFcu"/><path d="M326.33 204.15C315.74 202.16 309.86 201.06 308.68 200.84C306.03 206.51 303.89 212.82 302.35 219.52C305.07 220.03 311.86 221.31 322.72 223.35C323.44 219.51 325.97 206.07 326.33 204.15Z" id="b5HLEhPrO9"/><path d="M326.33 204.15C315.74 202.16 309.86 201.06 308.68 200.84C306.03 206.51 303.89 212.82 302.35 219.52C305.07 220.03 311.86 221.31 322.72 223.35C323.44 219.51 325.97 206.07 326.33 204.15Z" id="a30XyxtKH2"/><path d="M349.09 262.83C345.7 269.3 341.76 274.71 337.46 278.83C346.85 276.7 355.46 271.98 362.3 265.31C360.98 265.06 350.41 263.08 349.09 262.83Z" id="exwTmmSWi"/><path d="M349.09 262.83C345.7 269.3 341.76 274.71 337.46 278.83C346.85 276.7 355.46 271.98 362.3 265.31C360.98 265.06 350.41 263.08 349.09 262.83Z" id="bXFxThmxx"/><path d="M376.14 241.86C374.32 241.52 359.72 238.78 357.9 238.43C356.56 244.36 354.8 249.95 352.71 255.08C355.88 255.68 366.95 257.75 368.54 258.05C371.92 253.24 374.52 247.78 376.14 241.86Z" id="g7gPtFfZPH"/><path d="M376.14 241.86C374.32 241.52 359.72 238.78 357.9 238.43C356.56 244.36 354.8 249.95 352.71 255.08C355.88 255.68 366.95 257.75 368.54 258.05C371.92 253.24 374.52 247.78 376.14 241.86Z" id="beE9NWGKU"/><path d="M327.85 196.01C329.97 184.71 331.15 178.44 331.39 177.19C329.78 177.48 328.12 178.07 326.42 178.99C323.03 180.83 319.58 183.94 316.38 188.02C315.13 189.61 313.93 191.33 312.79 193.18C313.8 193.37 318.82 194.31 327.85 196.01Z" id="b1OMaLFtzq"/><path d="M327.85 196.01C329.97 184.71 331.15 178.44 331.39 177.19C329.78 177.48 328.12 178.07 326.42 178.99C323.03 180.83 319.58 183.94 316.38 188.02C315.13 189.61 313.93 191.33 312.79 193.18C313.8 193.37 318.82 194.31 327.85 196.01Z" id="bRAbk99dg"/><path d="M275.93 214.59C277.76 214.94 292.35 217.68 294.18 218.02C295.7 211.26 297.76 204.96 300.23 199.28C297.19 198.71 286.53 196.71 285.01 196.42C280.92 201.69 277.76 207.83 275.93 214.59Z" id="g2zw0pzxi"/><path d="M275.93 214.59C277.76 214.94 292.35 217.68 294.18 218.02C295.7 211.26 297.76 204.96 300.23 199.28C297.19 198.71 286.53 196.71 285.01 196.42C280.92 201.69 277.76 207.83 275.93 214.59Z" id="a1kXzdl6LS"/><path d="M339.55 178.75C339.32 180 338.14 186.27 336.02 197.57C345.06 199.26 350.08 200.2 351.08 200.39C350.7 198.23 350.2 196.2 349.61 194.25C348.11 189.32 346.02 185.15 343.52 182.23C342.28 180.75 340.94 179.6 339.55 178.75Z" id="hFEGqvqdn"/><path d="M339.55 178.75C339.32 180 338.14 186.27 336.02 197.57C345.06 199.26 350.08 200.2 351.08 200.39C350.7 198.23 350.2 196.2 349.61 194.25C348.11 189.32 346.02 185.15 343.52 182.23C342.28 180.75 340.94 179.6 339.55 178.75Z" id="c1jbIYaA3"/><path d="M330.89 224.91C343.11 227.2 349.9 228.48 351.26 228.73C352.26 221.9 352.55 215.24 352.14 209.02C349.79 208.58 343.9 207.47 334.49 205.71C333.77 209.55 331.25 222.99 330.89 224.91Z" id="b3A1tG6ZE"/><path d="M330.89 224.91C343.11 227.2 349.9 228.48 351.26 228.73C352.26 221.9 352.55 215.24 352.14 209.02C349.79 208.58 343.9 207.47 334.49 205.71C333.77 209.55 331.25 222.99 330.89 224.91Z" id="k3w7cS9WDb"/><path d="M304.08 191.52C307.24 185.99 310.78 181.24 314.6 177.56C306.09 179.49 298.25 183.54 291.78 189.21C293.01 189.44 302.85 191.29 304.08 191.52Z" id="k6VNHr8fq"/><path d="M304.08 191.52C307.24 185.99 310.78 181.24 314.6 177.56C306.09 179.49 298.25 183.54 291.78 189.21C293.01 189.44 302.85 191.29 304.08 191.52Z" id="c8curSgdw"/><path d="M349.65 570.34C348.56 571.09 347.84 572.25 347.6 573.54C345.95 582.69 335.86 588.56 325.14 586.62C324.81 586.56 323.2 586.27 320.32 585.75C304.32 582.85 295.44 581.24 293.66 580.92C295.6 578.44 297.06 575.45 297.68 572.11C298.64 566.83 297.53 561.37 294.62 557.17C294.54 557.06 294.46 556.98 294.39 556.91C298.58 554.09 301.75 549.53 302.79 543.97C303.75 538.7 302.64 533.25 299.73 529.02C299.62 528.88 299.47 528.77 299.36 528.61C303.64 525.79 306.89 521.21 307.93 515.57C308.89 510.3 307.78 504.86 304.87 500.64C304.7 500.39 304.49 500.22 304.32 500C307.41 498.04 309.95 495.14 311.56 491.6C311.86 491.66 312.09 491.73 312.39 491.79C315.02 492.26 336.1 496.08 338.74 496.56C341.43 497.05 344.02 495.25 344.5 492.57C344.99 489.88 343.19 487.29 340.5 486.81C337.87 486.33 316.78 482.51 314.14 482.03C302.3 479.89 302.14 477.34 303.43 470.24C303.58 469.38 303.44 468.56 303.18 467.79C302.86 465.78 301.34 464.09 299.21 463.7C295.75 463.07 268.02 458.05 264.56 457.43C261.84 455.57 260.32 451.84 261.04 447.89C261.97 442.8 266.17 439.29 270.45 440.01C270.47 440.02 270.49 440.02 270.52 440.03C278.38 441.45 341.25 452.84 349.12 454.26C359.87 456.2 367.16 465.59 365.44 475.18C365.28 476.01 364.07 482.71 363.92 483.54C363.68 484.86 363.97 486.18 364.72 487.27C365.46 488.33 366.61 489.07 367.91 489.3C367.91 489.3 367.93 489.3 367.95 489.3C371.6 489.94 400.84 494.98 404.49 495.62C407.19 496.08 409.76 494.25 410.23 491.57C410.69 488.89 408.9 486.34 406.23 485.86C406.22 485.86 406.19 485.86 406.19 485.85C404.08 485.48 393.54 483.67 374.55 480.39C374.93 478.34 375.13 477.2 375.18 476.97C377.89 462.01 366.98 447.45 350.87 444.54C346.13 443.68 308.12 436.79 303.36 435.93C303.31 435.92 303.28 435.9 303.21 435.88C300.12 435.32 275.37 430.84 272.28 430.28C262.61 428.53 253.19 435.64 251.28 446.13C250.65 449.65 251.01 453.07 252.03 456.17C251.18 456.02 244.38 454.78 243.53 454.64C233.84 452.88 224.43 459.96 222.54 470.41C221.49 476.2 223.01 481.76 226.16 485.94C221.75 488.73 218.38 493.4 217.33 499.19C216.31 504.87 217.74 510.34 220.78 514.49C216.49 517.27 213.21 521.91 212.19 527.58C211.18 533.19 212.56 538.59 215.51 542.71C211.31 545.53 208.11 550.11 207.1 555.68C205.21 566.17 211.53 576.11 221.21 577.87C221.27 577.88 221.52 577.92 221.98 578C231.63 579.75 308.89 593.74 318.55 595.49C321.44 596.01 323.04 596.3 323.37 596.36C337.64 598.95 351.22 591.83 355.95 580.08C359.07 580.65 383.95 585.16 387.06 585.72C389.75 586.2 392.33 584.43 392.83 581.73C393.31 579.03 391.55 576.47 388.85 575.98C381.75 574.7 356.91 570.19 353.36 569.55C352.05 569.31 350.71 569.61 349.65 570.34ZM236.54 493.15C241.99 494.14 285.59 502.04 291.04 503.03C291.06 503.03 291.07 503.02 291.09 503.03C291.19 503.04 291.96 503.18 292.06 503.19C294.42 503.62 295.89 505.1 296.69 506.29C298.14 508.36 298.66 511.11 298.17 513.81C297.23 518.89 292.97 522.35 288.67 521.57C283.21 520.58 239.61 512.68 234.16 511.7C234.05 511.69 233.96 511.73 233.86 511.72C233.81 511.71 233.6 511.68 233.2 511.6C233.2 511.6 233.2 511.6 233.2 511.6C228.51 507.88 226.46 504.33 227.08 500.94C227.99 495.87 232.23 492.38 236.54 493.15ZM301.99 488.62C300.18 491.62 297.04 493.39 293.85 492.81C288.41 491.83 244.8 483.94 239.35 482.95C239.26 482.93 239.16 482.96 239.05 482.96C238.99 482.94 238.47 482.85 238.41 482.84C234.1 482.06 231.36 477.28 232.28 472.19C233.2 467.12 237.45 463.6 241.74 464.39C252.02 466.25 287.98 472.76 293.12 473.68C292.95 480.78 295.75 485.54 301.99 488.62ZM285.91 531.41C285.93 531.41 285.94 531.41 285.97 531.41C286.06 531.42 286.84 531.56 286.93 531.58C289.28 532 290.75 533.5 291.56 534.68C293 536.77 293.53 539.49 293.03 542.21C292.1 547.26 287.88 550.71 283.6 549.99C283.6 549.99 283.6 549.99 283.59 549.99C283.53 549.97 283.19 549.91 282.59 549.8C278.5 549.06 245.84 543.15 241.76 542.41C233.55 540.92 228.99 540.09 228.08 539.93C227.99 539.92 227.91 539.93 227.83 539.91C223.67 538.97 221.04 534.33 221.94 529.34C222.86 524.25 227.1 520.77 231.41 521.54C236.86 522.53 280.46 530.42 285.91 531.41ZM226.29 549.73C230.73 550.54 266.22 556.96 270.66 557.77C270.78 557.8 270.88 557.75 270.99 557.78C272.08 557.97 280.68 559.52 281.75 559.72C281.78 559.73 281.83 559.71 281.86 559.72C284.19 560.16 285.65 561.63 286.45 562.81C287.89 564.89 288.42 567.61 287.92 570.33C286.99 575.4 282.74 578.86 278.42 578.08C272.97 577.1 229.37 569.2 223.92 568.21C223.8 568.19 223.69 568.25 223.56 568.24C223.51 568.23 223.02 568.14 222.97 568.13C218.67 567.34 215.93 562.54 216.85 557.46C217.75 552.49 221.85 549.08 226.06 549.68C226.14 549.69 226.22 549.72 226.29 549.73Z" id="b2XrHS1G1T"/><path d="M290.65 357.85C302.79 358.52 314.66 360.73 326.33 364.11C325 371.67 314.4 432.17 313.07 439.73C302.01 438.62 290.2 436.63 277.39 433.48C280.04 418.35 288 372.98 290.65 357.85Z" id="c21hmM2Tcf"/><path d="M250.95 581.78C263.12 582.3 274.99 584.52 286.63 588.04C285.17 596.39 273.45 663.21 271.99 671.57C260.91 670.53 249.1 668.55 236.31 665.31C239.24 648.6 248.02 598.49 250.95 581.78Z" id="c3NSsGUFDf"/></defs><g><g><g><use xlink:href="#m1GwrSEEE0" opacity="1" fill="#ffffff" fill-opacity="1"/><g><use xlink:href="#m1GwrSEEE0" opacity="1" fill-opacity="0" stroke="#000000" stroke-width="1" stroke-opacity="0"/></g></g><g><use xlink:href="#cdLHGBCgh" opacity="1" fill="#ffffff" fill-opacity="1"/><g><use xlink:href="#cdLHGBCgh" opacity="1" fill-opacity="0" stroke="#000000" stroke-width="1" stroke-opacity="0"/></g></g><g><use xlink:href="#d37j1RSL4" opacity="1" fill="#ffffff" fill-opacity="1"/><g><use xlink:href="#d37j1RSL4" opacity="1" fill-opacity="0" stroke="#000000" stroke-width="1" stroke-opacity="0"/></g></g><g><use xlink:href="#a30VfdmefR" opacity="1" fill="#ffffff" fill-opacity="1"/><g><use xlink:href="#a30VfdmefR" opacity="1" fill-opacity="0" stroke="#000000" stroke-width="1" stroke-opacity="0"/></g></g><g><use xlink:href="#c6hNOytr8u" opacity="1" fill="#ffffff" fill-opacity="1"/><g><use xlink:href="#c6hNOytr8u" opacity="1" fill-opacity="0" stroke="#000000" stroke-width="1" stroke-opacity="0"/></g></g><g><use xlink:href="#nfW1cBZBe" opacity="1" fill="#ffffff" fill-opacity="1"/><g><use xlink:href="#nfW1cBZBe" opacity="1" fill-opacity="0" stroke="#000000" stroke-width="1" stroke-opacity="0"/></g></g><g><use xlink:href="#c1C9GhfAuz" opacity="1" fill="#ffffff" fill-opacity="1"/><g><use xlink:href="#c1C9GhfAuz" opacity="1" fill-opacity="0" stroke="#000000" stroke-width="1" stroke-opacity="0"/></g></g><g><use xlink:href="#c9i7xcLf1" opacity="1" fill="#ffffff" fill-opacity="1"/><g><use xlink:href="#c9i7xcLf1" opacity="1" fill-opacity="0" stroke="#000000" stroke-width="1" stroke-opacity="0"/></g></g><g><use xlink:href="#btGDT6pAR" opacity="1" fill="#ffffff" fill-opacity="1"/><g><use xlink:href="#btGDT6pAR" opacity="1" fill-opacity="0" stroke="#000000" stroke-width="1" stroke-opacity="0"/></g></g><g><use xlink:href="#c1LhuKw8OC" opacity="1" fill="#ffffff" fill-opacity="1"/><g><use xlink:href="#c1LhuKw8OC" opacity="1" fill-opacity="0" stroke="#000000" stroke-width="1" stroke-opacity="0"/></g></g><g><use xlink:href="#a4HONCXd7" opacity="1" fill="#ffffff" fill-opacity="1"/><g><use xlink:href="#a4HONCXd7" opacity="1" fill-opacity="0" stroke="#000000" stroke-width="1" stroke-opacity="0"/></g></g><g><use xlink:href="#d2RIyGbeG" opacity="1" fill="#ffffff" fill-opacity="1"/><g><use xlink:href="#d2RIyGbeG" opacity="1" fill-opacity="0" stroke="#000000" stroke-width="1" stroke-opacity="0"/></g></g><g><use xlink:href="#exBt2mmBJ" opacity="1" fill="#ffffff" fill-opacity="1"/><g><use xlink:href="#exBt2mmBJ" opacity="1" fill-opacity="0" stroke="#000000" stroke-width="1" stroke-opacity="0"/></g></g><g><use xlink:href="#arGWgXplw" opacity="1" fill="#ffffff" fill-opacity="1"/><g><use xlink:href="#arGWgXplw" opacity="1" fill-opacity="0" stroke="#000000" stroke-width="1" stroke-opacity="0"/></g></g><g><use xlink:href="#iJzGXNupj" opacity="1" fill="#ffffff" fill-opacity="1"/><g><use xlink:href="#iJzGXNupj" opacity="1" fill-opacity="0" stroke="#000000" stroke-width="1" stroke-opacity="0"/></g></g><g><use xlink:href="#f3aRcsyNwg" opacity="1" fill="#ffffff" fill-opacity="1"/><g><use xlink:href="#f3aRcsyNwg" opacity="1" fill-opacity="0" stroke="#000000" stroke-width="1" stroke-opacity="0"/></g></g><g><use xlink:href="#bJfQRjRSv" opacity="1" fill="#ffffff" fill-opacity="1"/><g><use xlink:href="#bJfQRjRSv" opacity="1" fill-opacity="0" stroke="#000000" stroke-width="1" stroke-opacity="0"/></g></g><g><use xlink:href="#a1l98vsCXN" opacity="1" fill="#ffffff" fill-opacity="1"/><g><use xlink:href="#a1l98vsCXN" opacity="1" fill-opacity="0" stroke="#000000" stroke-width="1" stroke-opacity="0"/></g></g><g><use xlink:href="#e2pjY30FbO" opacity="1" fill="#ffffff" fill-opacity="1"/><g><use xlink:href="#e2pjY30FbO" opacity="1" fill-opacity="0" stroke="#000000" stroke-width="1" stroke-opacity="0"/></g></g><g><use xlink:href="#a1d7dQOxyY" opacity="1" fill="#ffffff" fill-opacity="1"/><g><use xlink:href="#a1d7dQOxyY" opacity="1" fill-opacity="0" stroke="#000000" stroke-width="1" stroke-opacity="0"/></g></g><g><use xlink:href="#a1FoSkiH0Y" opacity="1" fill="#ffffff" fill-opacity="1"/><g><use xlink:href="#a1FoSkiH0Y" opacity="1" fill-opacity="0" stroke="#000000" stroke-width="1" stroke-opacity="0"/></g></g><g><use xlink:href="#b6O52vLadl" opacity="1" fill="#ffffff" fill-opacity="1"/><g><use xlink:href="#b6O52vLadl" opacity="1" fill-opacity="0" stroke="#000000" stroke-width="1" stroke-opacity="0"/></g></g><g><use xlink:href="#e4BtcCqk8" opacity="1" fill="#ffffff" fill-opacity="1"/><g><use xlink:href="#e4BtcCqk8" opacity="1" fill-opacity="0" stroke="#000000" stroke-width="1" stroke-opacity="0"/></g></g><g><use xlink:href="#b1ulETZMOo" opacity="1" fill="#ffffff" fill-opacity="1"/><g><use xlink:href="#b1ulETZMOo" opacity="1" fill-opacity="0" stroke="#000000" stroke-width="1" stroke-opacity="0"/></g></g><g><use xlink:href="#c4qFBYXKgE" opacity="1" fill="#ffffff" fill-opacity="1"/><g><use xlink:href="#c4qFBYXKgE" opacity="1" fill-opacity="0" stroke="#000000" stroke-width="1" stroke-opacity="0"/></g></g><g><use xlink:href="#aF0iYbSQJ" opacity="1" fill="#ffffff" fill-opacity="1"/><g><use xlink:href="#aF0iYbSQJ" opacity="1" fill-opacity="0" stroke="#000000" stroke-width="1" stroke-opacity="0"/></g></g><g><use xlink:href="#bxhT79lYa" opacity="1" fill="#ffffff" fill-opacity="1"/><g><use xlink:href="#bxhT79lYa" opacity="1" fill-opacity="0" stroke="#000000" stroke-width="1" stroke-opacity="0"/></g></g><g><use xlink:href="#cRliFcu" opacity="1" fill="#ffffff" fill-opacity="1"/><g><use xlink:href="#cRliFcu" opacity="1" fill-opacity="0" stroke="#000000" stroke-width="1" stroke-opacity="0"/></g></g><g><use xlink:href="#b5HLEhPrO9" opacity="1" fill="#ffffff" fill-opacity="1"/><g><use xlink:href="#b5HLEhPrO9" opacity="1" fill-opacity="0" stroke="#000000" stroke-width="1" stroke-opacity="0"/></g></g><g><use xlink:href="#a30XyxtKH2" opacity="1" fill="#ffffff" fill-opacity="1"/><g><use xlink:href="#a30XyxtKH2" opacity="1" fill-opacity="0" stroke="#000000" stroke-width="1" stroke-opacity="0"/></g></g><g><use xlink:href="#exwTmmSWi" opacity="1" fill="#ffffff" fill-opacity="1"/><g><use xlink:href="#exwTmmSWi" opacity="1" fill-opacity="0" stroke="#000000" stroke-width="1" stroke-opacity="0"/></g></g><g><use xlink:href="#bXFxThmxx" opacity="1" fill="#ffffff" fill-opacity="1"/><g><use xlink:href="#bXFxThmxx" opacity="1" fill-opacity="0" stroke="#000000" stroke-width="1" stroke-opacity="0"/></g></g><g><use xlink:href="#g7gPtFfZPH" opacity="1" fill="#ffffff" fill-opacity="1"/><g><use xlink:href="#g7gPtFfZPH" opacity="1" fill-opacity="0" stroke="#000000" stroke-width="1" stroke-opacity="0"/></g></g><g><use xlink:href="#beE9NWGKU" opacity="1" fill="#ffffff" fill-opacity="1"/><g><use xlink:href="#beE9NWGKU" opacity="1" fill-opacity="0" stroke="#000000" stroke-width="1" stroke-opacity="0"/></g></g><g><use xlink:href="#b1OMaLFtzq" opacity="1" fill="#ffffff" fill-opacity="1"/><g><use xlink:href="#b1OMaLFtzq" opacity="1" fill-opacity="0" stroke="#000000" stroke-width="1" stroke-opacity="0"/></g></g><g><use xlink:href="#bRAbk99dg" opacity="1" fill="#ffffff" fill-opacity="1"/><g><use xlink:href="#bRAbk99dg" opacity="1" fill-opacity="0" stroke="#000000" stroke-width="1" stroke-opacity="0"/></g></g><g><use xlink:href="#g2zw0pzxi" opacity="1" fill="#ffffff" fill-opacity="1"/><g><use xlink:href="#g2zw0pzxi" opacity="1" fill-opacity="0" stroke="#000000" stroke-width="1" stroke-opacity="0"/></g></g><g><use xlink:href="#a1kXzdl6LS" opacity="1" fill="#ffffff" fill-opacity="1"/><g><use xlink:href="#a1kXzdl6LS" opacity="1" fill-opacity="0" stroke="#000000" stroke-width="1" stroke-opacity="0"/></g></g><g><use xlink:href="#hFEGqvqdn" opacity="1" fill="#ffffff" fill-opacity="1"/><g><use xlink:href="#hFEGqvqdn" opacity="1" fill-opacity="0" stroke="#000000" stroke-width="1" stroke-opacity="0"/></g></g><g><use xlink:href="#c1jbIYaA3" opacity="1" fill="#ffffff" fill-opacity="1"/><g><use xlink:href="#c1jbIYaA3" opacity="1" fill-opacity="0" stroke="#000000" stroke-width="1" stroke-opacity="0"/></g></g><g><use xlink:href="#b3A1tG6ZE" opacity="1" fill="#ffffff" fill-opacity="1"/><g><use xlink:href="#b3A1tG6ZE" opacity="1" fill-opacity="0" stroke="#000000" stroke-width="1" stroke-opacity="0"/></g></g><g><use xlink:href="#k3w7cS9WDb" opacity="1" fill="#ffffff" fill-opacity="1"/><g><use xlink:href="#k3w7cS9WDb" opacity="1" fill-opacity="0" stroke="#000000" stroke-width="1" stroke-opacity="0"/></g></g><g><use xlink:href="#k6VNHr8fq" opacity="1" fill="#ffffff" fill-opacity="1"/><g><use xlink:href="#k6VNHr8fq" opacity="1" fill-opacity="0" stroke="#000000" stroke-width="1" stroke-opacity="0"/></g></g><g><use xlink:href="#c8curSgdw" opacity="1" fill="#ffffff" fill-opacity="1"/><g><use xlink:href="#c8curSgdw" opacity="1" fill-opacity="0" stroke="#000000" stroke-width="1" stroke-opacity="0"/></g></g><g><use xlink:href="#b2XrHS1G1T" opacity="1" fill="#ffffff" fill-opacity="1"/><g><use xlink:href="#b2XrHS1G1T" opacity="1" fill-opacity="0" stroke="#000000" stroke-width="1" stroke-opacity="0"/></g></g><g><use xlink:href="#c21hmM2Tcf" opacity="1" fill="#ffffff" fill-opacity="1"/><g><use xlink:href="#c21hmM2Tcf" opacity="1" fill-opacity="0" stroke="#000000" stroke-width="1" stroke-opacity="0"/></g></g><g><use xlink:href="#c3NSsGUFDf" opacity="1" fill="#ffffff" fill-opacity="1"/><g><use xlink:href="#c3NSsGUFDf" opacity="1" fill-opacity="0" stroke="#000000" stroke-width="1" stroke-opacity="0"/></g></g></g></g></svg>