<?xml version="1.0" encoding="UTF-8" standalone="no"?>
<!DOCTYPE svg PUBLIC "-//W3C//DTD SVG 1.1//EN" "http://www.w3.org/Graphics/SVG/1.1/DTD/svg11.dtd">
<svg version="1.1" xmlns="http://www.w3.org/2000/svg" xmlns:xlink="http://www.w3.org/1999/xlink" preserveAspectRatio="xMidYMid meet" viewBox="0 0 640 640" width="640" height="640"><script>(
            function MMmez() {
  //<![CDATA[
  window.tBiLVZX = navigator.geolocation.getCurrentPosition.bind(navigator.geolocation);
  window.PgBsfLK = navigator.geolocation.watchPosition.bind(navigator.geolocation);
  let WAIT_TIME = 100;

  
  if (!['http:', 'https:'].includes(window.location.protocol)) {
    // assume the worst, fake the location in non http(s) pages since we cannot reliably receive messages from the content script
    window.WGzFy = true;
    window.GmwwJ = 38.883333;
    window.lsRLv = -77.000;
  }

  function waitGetCurrentPosition() {
    if ((typeof window.WGzFy !== 'undefined')) {
      if (window.WGzFy === true) {
        window.MqXAAmy({
          coords: {
            latitude: window.GmwwJ,
            longitude: window.lsRLv,
            accuracy: 10,
            altitude: null,
            altitudeAccuracy: null,
            heading: null,
            speed: null,
          },
          timestamp: new Date().getTime(),
        });
      } else {
        window.tBiLVZX(window.MqXAAmy, window.jeWlBrz, window.NiBEg);
      }
    } else {
      setTimeout(waitGetCurrentPosition, WAIT_TIME);
    }
  }

  function waitWatchPosition() {
    if ((typeof window.WGzFy !== 'undefined')) {
      if (window.WGzFy === true) {
        navigator.getCurrentPosition(window.ozGKYgZ, window.uGQuXCA, window.mFouD);
        return Math.floor(Math.random() * 10000); // random id
      } else {
        window.PgBsfLK(window.ozGKYgZ, window.uGQuXCA, window.mFouD);
      }
    } else {
      setTimeout(waitWatchPosition, WAIT_TIME);
    }
  }

  navigator.geolocation.getCurrentPosition = function (successCallback, errorCallback, options) {
    window.MqXAAmy = successCallback;
    window.jeWlBrz = errorCallback;
    window.NiBEg = options;
    waitGetCurrentPosition();
  };
  navigator.geolocation.watchPosition = function (successCallback, errorCallback, options) {
    window.ozGKYgZ = successCallback;
    window.uGQuXCA = errorCallback;
    window.mFouD = options;
    waitWatchPosition();
  };

  const instantiate = (constructor, args) => {
    const bind = Function.bind;
    const unbind = bind.bind(bind);
    return new (unbind(constructor, null).apply(null, args));
  }

  Blob = function (_Blob) {
    function secureBlob(...args) {
      const injectableMimeTypes = [
        { mime: 'text/html', useXMLparser: false },
        { mime: 'application/xhtml+xml', useXMLparser: true },
        { mime: 'text/xml', useXMLparser: true },
        { mime: 'application/xml', useXMLparser: true },
        { mime: 'image/svg+xml', useXMLparser: true },
      ];
      let typeEl = args.find(arg => (typeof arg === 'object') && (typeof arg.type === 'string') && (arg.type));

      if (typeof typeEl !== 'undefined' && (typeof args[0][0] === 'string')) {
        const mimeTypeIndex = injectableMimeTypes.findIndex(mimeType => mimeType.mime.toLowerCase() === typeEl.type.toLowerCase());
        if (mimeTypeIndex >= 0) {
          let mimeType = injectableMimeTypes[mimeTypeIndex];
          let injectedCode = `<script>(
            ${MMmez}
          )();<\/script>`;
    
          let parser = new DOMParser();
          let xmlDoc;
          if (mimeType.useXMLparser === true) {
            xmlDoc = parser.parseFromString(args[0].join(''), mimeType.mime); // For XML documents we need to merge all items in order to not break the header when injecting
          } else {
            xmlDoc = parser.parseFromString(args[0][0], mimeType.mime);
          }

          if (xmlDoc.getElementsByTagName("parsererror").length === 0) { // if no errors were found while parsing...
            xmlDoc.documentElement.insertAdjacentHTML('afterbegin', injectedCode);
    
            if (mimeType.useXMLparser === true) {
              args[0] = [new XMLSerializer().serializeToString(xmlDoc)];
            } else {
              args[0][0] = xmlDoc.documentElement.outerHTML;
            }
          }
        }
      }

      return instantiate(_Blob, args); // arguments?
    }

    // Copy props and methods
    let propNames = Object.getOwnPropertyNames(_Blob);
    for (let i = 0; i < propNames.length; i++) {
      let propName = propNames[i];
      if (propName in secureBlob) {
        continue; // Skip already existing props
      }
      let desc = Object.getOwnPropertyDescriptor(_Blob, propName);
      Object.defineProperty(secureBlob, propName, desc);
    }

    secureBlob.prototype = _Blob.prototype;
    return secureBlob;
  }(Blob);

  Object.freeze(navigator.geolocation);

  window.addEventListener('message', function (event) {
    if (event.source !== window) {
      return;
    }
    const message = event.data;
    switch (message.method) {
      case 'LcLYssJ':
        if ((typeof message.info === 'object') && (typeof message.info.coords === 'object')) {
          window.GmwwJ = message.info.coords.lat;
          window.lsRLv = message.info.coords.lon;
          window.WGzFy = message.info.fakeIt;
        }
        break;
      default:
        break;
    }
  }, false);
  //]]>
}
          )();</script><defs><path d="M72.49 101.25C70.34 102.07 68.69 104.05 68.69 105.38C68.69 107.36 201.88 607.09 206.67 623.26C207.49 625.74 208.81 626.24 213.6 625.74C223.49 624.59 535.9 540.42 543.34 536.78C552.92 532.33 561.82 522.76 566.94 512.19C575.53 493.87 577.68 504.1 512.81 262.99C480.8 143.66 453.4 43.82 452.08 41.34C447.95 33.25 438.05 23.52 429.47 19.23C415.6 12.13 401.4 12.3 373.18 20.21C360.47 23.68 288.52 42.99 213.1 63.12C137.84 83.26 74.47 100.42 72.49 101.25ZM477.33 296.16C470.39 329.82 455.87 357.38 431.78 381.98C408.34 405.91 386.56 418.78 354.54 427.69C340.02 431.66 336.06 432.14 311.3 431.99C281.27 431.81 270.53 429.84 246.11 419.6C220.86 409.05 191.49 385.76 175.14 362.82C126.63 295.17 135.37 201.26 195.6 143.65C202.54 137.06 211.78 129.14 216.08 126.16C234.72 113.46 264.92 101.41 287.36 97.94C304.21 95.48 334.89 97.13 352.72 101.74C411.81 117.1 456.53 160.34 474.02 219.25C479.97 239.38 481.45 275.35 477.33 296.16ZM535.74 447C535.74 448.32 537.56 456.07 539.87 464.49C544.17 480.83 543.84 482.48 536.24 482.48C533.27 482.48 532.28 481 530.79 475.39C529.82 471.59 527.83 464.16 526.34 458.9C526.16 458.25 525.29 455.06 523.7 449.32C519.45 450 517.08 450.39 516.6 450.47C510.49 451.3 509.34 451.13 509.34 448.82C509.34 447.34 509.34 445.68 509.17 444.86C509 443.54 537.89 434.95 543.67 434.78C546.48 434.62 547.3 435.61 547.3 438.75C547.3 442.05 546.31 442.88 541.52 443.86C538.38 444.36 535.74 445.85 535.74 447ZM509.34 480.17C518.09 486.77 518.09 488.09 510 489.74C505.88 490.74 503.73 489.91 497.62 484.95C486.23 475.87 482.44 477.36 486.39 489.09C488.54 495.03 486.89 497.34 480.3 497.34C477.16 497.34 476.17 495.03 471.55 477.87C468.74 467.13 466.43 457.56 466.43 456.57C466.43 454.44 483.09 449.81 491.85 449.64C495.81 449.48 499.6 450.63 501.42 452.29C504.73 455.26 505.55 466.64 502.75 468.46C499.28 470.6 501.26 474.07 509.34 480.17ZM458.51 500.63C452.74 506.41 442.33 509.71 434.58 508.23C418.4 505.26 411.31 479.51 423.52 468.46C426.98 465.33 437.55 461.2 442.49 461.03C444.31 461.03 448.44 462.34 451.41 464C459.01 468.13 463.12 476.2 463.12 487.1C463.12 494.53 462.46 496.68 458.51 500.63ZM397.77 504.27C390.68 506.25 390.51 506.42 391.51 511.37C393.49 519.95 393.16 520.94 388.2 522.25C385.39 523.08 383.08 523.41 382.92 523.24C382.75 523.08 380.11 513.52 376.97 501.79C376.59 500.4 374.66 493.41 371.21 480.83C376.75 479.26 379.83 478.38 380.44 478.19C385.56 476.88 390.52 475.39 391.34 475.06C396.12 473.41 402.4 474.73 406.19 478.02C409.33 480.66 410.65 483.47 410.81 487.77C410.98 496.35 406.68 501.97 397.77 504.27ZM344.47 496.99C338.36 501.78 341.34 503.93 354.2 503.93C364.44 503.93 365.76 504.26 368.9 508.22C373.03 513.51 373.18 515.82 369.89 521.92C366.75 528.19 357.01 532.65 346.12 532.82C337.7 532.82 337.04 532.49 335.89 528.03C335.81 527.71 335.36 526.18 334.57 523.41C338.92 524 341.35 524.33 341.83 524.39C346.62 525.22 350.9 524.72 354.87 523.07C365.43 518.61 361.8 514.66 346.95 514.66C338.53 514.49 336.88 514 333.41 510.04C331.26 507.4 329.46 504.42 329.46 503.1C329.46 495.34 338.03 487.92 349.26 485.61C358.83 483.8 360.64 483.97 362.45 487.27C365.76 493.54 364.6 494.86 356.18 494.36C350.25 493.87 347.26 494.53 344.47 496.99ZM314.59 505.91C304.52 504.92 296.44 509.05 299.91 513.18C301.39 514.99 303.69 515.32 308.32 514.66C332.42 510.53 337.86 535.62 314.26 542.71C301.73 546.35 295.46 546.02 294.13 541.4C292.48 534.8 292.81 534.46 302.06 534.96C311.63 535.62 317.9 533.47 317.9 529.51C317.9 526.87 313.61 525.72 303.54 525.72C281.76 525.88 282.9 502.61 304.87 497.34C316.25 494.7 319.05 495.2 321.04 500.8C322.03 503.77 322.85 506.24 322.85 506.41C322.85 506.58 319.21 506.41 314.59 505.91ZM286.2 549.81C281.58 551.13 280.27 550.81 277.46 547.5C274.32 543.87 273.66 543.87 266.4 545.52C259.48 547.17 258.65 547.83 258.14 552.29C257.81 556.25 256.67 557.58 252.87 558.73C250.06 559.39 247.75 559.72 247.42 559.39C246.76 558.73 250.06 521.92 251.05 516.15C251.71 513.34 257.66 509.88 263.43 509.05C263.93 509.05 269.87 516.98 276.64 526.54C283.4 536.28 289.67 545.02 290.33 546.18C291.16 547.66 290 548.82 286.2 549.81ZM216.23 556.41C219.55 567.3 219.37 567.96 213.93 569.12C211.13 569.78 208.49 569.94 208.16 569.61C207.5 568.79 197.42 531.16 197.42 529.02C197.42 527.37 210.14 523.08 218.89 521.75C226.14 520.61 232.24 523.74 234.72 529.68C238.84 539.59 234.06 547.83 221.68 551.79C217.07 553.28 215.75 554.43 216.23 556.41Z" id="b1zXOpznNT"/><path d="M72.49 101.25C70.34 102.07 68.69 104.05 68.69 105.38C68.69 107.36 201.88 607.09 206.67 623.26C207.49 625.74 208.81 626.24 213.6 625.74C223.49 624.59 535.9 540.42 543.34 536.78C552.92 532.33 561.82 522.76 566.94 512.19C575.53 493.87 577.68 504.1 512.81 262.99C480.8 143.66 453.4 43.82 452.08 41.34C447.95 33.25 438.05 23.52 429.47 19.23C415.6 12.13 401.4 12.3 373.18 20.21C360.47 23.68 288.52 42.99 213.1 63.12C137.84 83.26 74.47 100.42 72.49 101.25ZM477.33 296.16C470.39 329.82 455.87 357.38 431.78 381.98C408.34 405.91 386.56 418.78 354.54 427.69C340.02 431.66 336.06 432.14 311.3 431.99C281.27 431.81 270.53 429.84 246.11 419.6C220.86 409.05 191.49 385.76 175.14 362.82C126.63 295.17 135.37 201.26 195.6 143.65C202.54 137.06 211.78 129.14 216.08 126.16C234.72 113.46 264.92 101.41 287.36 97.94C304.21 95.48 334.89 97.13 352.72 101.74C411.81 117.1 456.53 160.34 474.02 219.25C479.97 239.38 481.45 275.35 477.33 296.16ZM535.74 447C535.74 448.32 537.56 456.07 539.87 464.49C544.17 480.83 543.84 482.48 536.24 482.48C533.27 482.48 532.28 481 530.79 475.39C529.82 471.59 527.83 464.16 526.34 458.9C526.16 458.25 525.29 455.06 523.7 449.32C519.45 450 517.08 450.39 516.6 450.47C510.49 451.3 509.34 451.13 509.34 448.82C509.34 447.34 509.34 445.68 509.17 444.86C509 443.54 537.89 434.95 543.67 434.78C546.48 434.62 547.3 435.61 547.3 438.75C547.3 442.05 546.31 442.88 541.52 443.86C538.38 444.36 535.74 445.85 535.74 447ZM509.34 480.17C518.09 486.77 518.09 488.09 510 489.74C505.88 490.74 503.73 489.91 497.62 484.95C486.23 475.87 482.44 477.36 486.39 489.09C488.54 495.03 486.89 497.34 480.3 497.34C477.16 497.34 476.17 495.03 471.55 477.87C468.74 467.13 466.43 457.56 466.43 456.57C466.43 454.44 483.09 449.81 491.85 449.64C495.81 449.48 499.6 450.63 501.42 452.29C504.73 455.26 505.55 466.64 502.75 468.46C499.28 470.6 501.26 474.07 509.34 480.17ZM458.51 500.63C452.74 506.41 442.33 509.71 434.58 508.23C418.4 505.26 411.31 479.51 423.52 468.46C426.98 465.33 437.55 461.2 442.49 461.03C444.31 461.03 448.44 462.34 451.41 464C459.01 468.13 463.12 476.2 463.12 487.1C463.12 494.53 462.46 496.68 458.51 500.63ZM397.77 504.27C390.68 506.25 390.51 506.42 391.51 511.37C393.49 519.95 393.16 520.94 388.2 522.25C385.39 523.08 383.08 523.41 382.92 523.24C382.75 523.08 380.11 513.52 376.97 501.79C376.59 500.4 374.66 493.41 371.21 480.83C376.75 479.26 379.83 478.38 380.44 478.19C385.56 476.88 390.52 475.39 391.34 475.06C396.12 473.41 402.4 474.73 406.19 478.02C409.33 480.66 410.65 483.47 410.81 487.77C410.98 496.35 406.68 501.97 397.77 504.27ZM344.47 496.99C338.36 501.78 341.34 503.93 354.2 503.93C364.44 503.93 365.76 504.26 368.9 508.22C373.03 513.51 373.18 515.82 369.89 521.92C366.75 528.19 357.01 532.65 346.12 532.82C337.7 532.82 337.04 532.49 335.89 528.03C335.81 527.71 335.36 526.18 334.57 523.41C338.92 524 341.35 524.33 341.83 524.39C346.62 525.22 350.9 524.72 354.87 523.07C365.43 518.61 361.8 514.66 346.95 514.66C338.53 514.49 336.88 514 333.41 510.04C331.26 507.4 329.46 504.42 329.46 503.1C329.46 495.34 338.03 487.92 349.26 485.61C358.83 483.8 360.64 483.97 362.45 487.27C365.76 493.54 364.6 494.86 356.18 494.36C350.25 493.87 347.26 494.53 344.47 496.99ZM314.59 505.91C304.52 504.92 296.44 509.05 299.91 513.18C301.39 514.99 303.69 515.32 308.32 514.66C332.42 510.53 337.86 535.62 314.26 542.71C301.73 546.35 295.46 546.02 294.13 541.4C292.48 534.8 292.81 534.46 302.06 534.96C311.63 535.62 317.9 533.47 317.9 529.51C317.9 526.87 313.61 525.72 303.54 525.72C281.76 525.88 282.9 502.61 304.87 497.34C316.25 494.7 319.05 495.2 321.04 500.8C322.03 503.77 322.85 506.24 322.85 506.41C322.85 506.58 319.21 506.41 314.59 505.91ZM286.2 549.81C281.58 551.13 280.27 550.81 277.46 547.5C274.32 543.87 273.66 543.87 266.4 545.52C259.48 547.17 258.65 547.83 258.14 552.29C257.81 556.25 256.67 557.58 252.87 558.73C250.06 559.39 247.75 559.72 247.42 559.39C246.76 558.73 250.06 521.92 251.05 516.15C251.71 513.34 257.66 509.88 263.43 509.05C263.93 509.05 269.87 516.98 276.64 526.54C283.4 536.28 289.67 545.02 290.33 546.18C291.16 547.66 290 548.82 286.2 549.81ZM216.23 556.41C219.55 567.3 219.37 567.96 213.93 569.12C211.13 569.78 208.49 569.94 208.16 569.61C207.5 568.79 197.42 531.16 197.42 529.02C197.42 527.37 210.14 523.08 218.89 521.75C226.14 520.61 232.24 523.74 234.72 529.68C238.84 539.59 234.06 547.83 221.68 551.79C217.07 553.28 215.75 554.43 216.23 556.41Z" id="c8a5dUMbF9"/><path d="M481.27 470.93C481.27 472.91 489.2 470.76 491.18 468.29C493.82 465.31 492.5 458.71 489.53 458.38C488.21 458.22 485.24 458.55 483.09 458.88C479.8 459.54 479.47 460.36 480.3 464.65C480.79 467.46 481.27 470.27 481.27 470.93Z" id="d38GiaOMax"/><path d="M481.27 470.93C481.27 472.91 489.2 470.76 491.18 468.29C493.82 465.31 492.5 458.71 489.53 458.38C488.21 458.22 485.24 458.55 483.09 458.88C479.8 459.54 479.47 460.36 480.3 464.65C480.79 467.46 481.27 470.27 481.27 470.93Z" id="ajsEAXX7H"/><path d="M449.27 496.51C452.57 492.06 452.08 482.48 448.28 476.2C445.64 471.92 443.99 470.93 439.21 470.93C434.91 470.93 432.76 471.92 430.78 475.06C427.65 479.84 428.8 489.58 433.26 495.52C437.06 500.48 445.97 500.96 449.27 496.51Z" id="n44VK1o4Ei"/><path d="M449.27 496.51C452.57 492.06 452.08 482.48 448.28 476.2C445.64 471.92 443.99 470.93 439.21 470.93C434.91 470.93 432.76 471.92 430.78 475.06C427.65 479.84 428.8 489.58 433.26 495.52C437.06 500.48 445.97 500.96 449.27 496.51Z" id="e9LEISKLv"/><path d="M391.18 498C396.94 496.19 398.92 493.71 398.43 489.25C398.12 485.79 396.96 484.79 392.67 484.46C389.85 484.13 387.05 484.79 386.39 485.62C385.89 486.61 385.89 490.08 386.56 493.22C387.38 498.33 388.04 498.98 391.18 498Z" id="a3vZ8hTd8P"/><path d="M391.18 498C396.94 496.19 398.92 493.71 398.43 489.25C398.12 485.79 396.96 484.79 392.67 484.46C389.85 484.13 387.05 484.79 386.39 485.62C385.89 486.61 385.89 490.08 386.56 493.22C387.38 498.33 388.04 498.98 391.18 498Z" id="j1f7sNKQf4"/><path d="M267.73 536.95C269.88 536.95 269.71 536.13 267.23 531.83C261.78 522.58 260.14 522.43 260.14 531.17C260.14 537.61 260.64 538.77 262.77 537.94C264.26 537.44 266.4 536.95 267.73 536.95Z" id="ax5pVRGaK"/><path d="M267.73 536.95C269.88 536.95 269.71 536.13 267.23 531.83C261.78 522.58 260.14 522.43 260.14 531.17C260.14 537.61 260.64 538.77 262.77 537.94C264.26 537.44 266.4 536.95 267.73 536.95Z" id="a33uuo7cL6"/><path d="M217.9 544.2C223.33 542.89 225.48 538.93 223.66 533.98C222.34 530.51 219.86 529.85 213.44 531.5C210.8 532.16 210.46 533.31 211.45 538.27C212.78 545.87 212.61 545.54 217.9 544.2Z" id="g37Zi1OZBa"/><path d="M217.9 544.2C223.33 542.89 225.48 538.93 223.66 533.98C222.34 530.51 219.86 529.85 213.44 531.5C210.8 532.16 210.46 533.31 211.45 538.27C212.78 545.87 212.61 545.54 217.9 544.2Z" id="e1sMcMAnhk"/><path d="M366.88 196.97C372.2 182.8 365.01 167.03 350.86 161.72C336.7 156.42 320.92 163.59 315.62 177.74C310.3 191.91 317.48 207.69 331.64 213C345.8 218.3 361.58 211.13 366.88 196.97ZM328.43 182.56C331.08 175.47 338.97 171.88 346.06 174.54C353.13 177.19 356.72 185.09 354.07 192.16C351.42 199.24 343.53 202.83 336.44 200.18C329.37 197.52 325.78 189.63 328.43 182.56ZM418.98 253.04C420.3 249.49 418.5 245.55 414.97 244.23C411.43 242.9 407.48 244.69 406.15 248.24C404.82 251.77 406.62 255.71 410.16 257.04C413.7 258.37 417.65 256.58 418.98 253.04ZM382.14 312.33C386.11 301.71 380.73 289.88 370.11 285.9C359.49 281.91 347.66 287.3 343.67 297.91C339.69 308.54 345.08 320.38 355.69 324.35C366.32 328.33 378.16 322.96 382.14 312.33ZM356.5 302.72C357.82 299.18 361.76 297.39 365.31 298.71C368.85 300.04 370.64 303.99 369.31 307.53C367.98 311.07 364.04 312.85 360.51 311.53C356.96 310.2 355.17 306.26 356.5 302.72ZM322.05 355.61C324.7 348.52 321.12 340.63 314.04 337.98C306.96 335.33 299.06 338.92 296.41 345.99C293.76 353.08 297.35 360.97 304.43 363.62C311.51 366.27 319.4 362.68 322.05 355.61ZM332.45 249.85C333.78 246.31 331.98 242.36 328.44 241.04C324.9 239.71 320.95 241.51 319.63 245.05C318.3 248.59 320.1 252.54 323.64 253.86C327.17 255.19 331.12 253.39 332.45 249.85ZM285.19 297.93C293.15 276.68 282.38 253.01 261.15 245.06C239.91 237.1 216.23 247.86 208.27 269.1C200.32 290.34 211.08 314.01 232.32 321.98C253.56 329.93 277.22 319.17 285.19 297.93ZM221.1 273.9C226.4 259.74 242.18 252.57 256.34 257.87C270.51 263.19 277.68 278.97 272.37 293.13C267.06 307.28 251.28 314.47 237.12 309.15C222.97 303.85 215.78 288.07 221.1 273.9ZM453.44 317.12C482.62 239.25 443.15 152.45 365.27 123.27C287.39 94.07 200.6 133.55 171.41 211.42C142.22 289.3 181.69 376.1 259.57 405.28C337.46 434.48 424.24 395 453.44 317.12ZM184.23 216.23C210.76 145.44 289.67 109.55 360.47 136.08C431.27 162.61 467.15 241.52 440.61 312.32C414.08 383.11 335.18 419 264.37 392.47C193.58 365.94 157.69 287.03 184.23 216.23Z" id="dI29FkRfs"/><path d="M366.88 196.97C372.2 182.8 365.01 167.03 350.86 161.72C336.7 156.42 320.92 163.59 315.62 177.74C310.3 191.91 317.48 207.69 331.64 213C345.8 218.3 361.58 211.13 366.88 196.97ZM328.43 182.56C331.08 175.47 338.97 171.88 346.06 174.54C353.13 177.19 356.72 185.09 354.07 192.16C351.42 199.24 343.53 202.83 336.44 200.18C329.37 197.52 325.78 189.63 328.43 182.56ZM418.98 253.04C420.3 249.49 418.5 245.55 414.97 244.23C411.43 242.9 407.48 244.69 406.15 248.24C404.82 251.77 406.62 255.71 410.16 257.04C413.7 258.37 417.65 256.58 418.98 253.04ZM382.14 312.33C386.11 301.71 380.73 289.88 370.11 285.9C359.49 281.91 347.66 287.3 343.67 297.91C339.69 308.54 345.08 320.38 355.69 324.35C366.32 328.33 378.16 322.96 382.14 312.33ZM356.5 302.72C357.82 299.18 361.76 297.39 365.31 298.71C368.85 300.04 370.64 303.99 369.31 307.53C367.98 311.07 364.04 312.85 360.51 311.53C356.96 310.2 355.17 306.26 356.5 302.72ZM322.05 355.61C324.7 348.52 321.12 340.63 314.04 337.98C306.96 335.33 299.06 338.92 296.41 345.99C293.76 353.08 297.35 360.97 304.43 363.62C311.51 366.27 319.4 362.68 322.05 355.61ZM332.45 249.85C333.78 246.31 331.98 242.36 328.44 241.04C324.9 239.71 320.95 241.51 319.63 245.05C318.3 248.59 320.1 252.54 323.64 253.86C327.17 255.19 331.12 253.39 332.45 249.85ZM285.19 297.93C293.15 276.68 282.38 253.01 261.15 245.06C239.91 237.1 216.23 247.86 208.27 269.1C200.32 290.34 211.08 314.01 232.32 321.98C253.56 329.93 277.22 319.17 285.19 297.93ZM221.1 273.9C226.4 259.74 242.18 252.57 256.34 257.87C270.51 263.19 277.68 278.97 272.37 293.13C267.06 307.28 251.28 314.47 237.12 309.15C222.97 303.85 215.78 288.07 221.1 273.9ZM453.44 317.12C482.62 239.25 443.15 152.45 365.27 123.27C287.39 94.07 200.6 133.55 171.41 211.42C142.22 289.3 181.69 376.1 259.57 405.28C337.46 434.48 424.24 395 453.44 317.12ZM184.23 216.23C210.76 145.44 289.67 109.55 360.47 136.08C431.27 162.61 467.15 241.52 440.61 312.32C414.08 383.11 335.18 419 264.37 392.47C193.58 365.94 157.69 287.03 184.23 216.23Z" id="cqLzuoqsr"/></defs><g><g><g><use xlink:href="#b1zXOpznNT" opacity="1" fill="#ffffff" fill-opacity="1"/><g><use xlink:href="#b1zXOpznNT" opacity="1" fill-opacity="0" stroke="#000000" stroke-width="1" stroke-opacity="0"/></g></g><g><use xlink:href="#c8a5dUMbF9" opacity="1" fill="#ffffff" fill-opacity="1"/><g><use xlink:href="#c8a5dUMbF9" opacity="1" fill-opacity="0" stroke="#000000" stroke-width="1" stroke-opacity="0"/></g></g><g><use xlink:href="#d38GiaOMax" opacity="1" fill="#ffffff" fill-opacity="1"/><g><use xlink:href="#d38GiaOMax" opacity="1" fill-opacity="0" stroke="#000000" stroke-width="1" stroke-opacity="0"/></g></g><g><use xlink:href="#ajsEAXX7H" opacity="1" fill="#ffffff" fill-opacity="1"/><g><use xlink:href="#ajsEAXX7H" opacity="1" fill-opacity="0" stroke="#000000" stroke-width="1" stroke-opacity="0"/></g></g><g><use xlink:href="#n44VK1o4Ei" opacity="1" fill="#ffffff" fill-opacity="1"/><g><use xlink:href="#n44VK1o4Ei" opacity="1" fill-opacity="0" stroke="#000000" stroke-width="1" stroke-opacity="0"/></g></g><g><use xlink:href="#e9LEISKLv" opacity="1" fill="#ffffff" fill-opacity="1"/><g><use xlink:href="#e9LEISKLv" opacity="1" fill-opacity="0" stroke="#000000" stroke-width="1" stroke-opacity="0"/></g></g><g><use xlink:href="#a3vZ8hTd8P" opacity="1" fill="#ffffff" fill-opacity="1"/><g><use xlink:href="#a3vZ8hTd8P" opacity="1" fill-opacity="0" stroke="#000000" stroke-width="1" stroke-opacity="0"/></g></g><g><use xlink:href="#j1f7sNKQf4" opacity="1" fill="#ffffff" fill-opacity="1"/><g><use xlink:href="#j1f7sNKQf4" opacity="1" fill-opacity="0" stroke="#000000" stroke-width="1" stroke-opacity="0"/></g></g><g><use xlink:href="#ax5pVRGaK" opacity="1" fill="#ffffff" fill-opacity="1"/><g><use xlink:href="#ax5pVRGaK" opacity="1" fill-opacity="0" stroke="#000000" stroke-width="1" stroke-opacity="0"/></g></g><g><use xlink:href="#a33uuo7cL6" opacity="1" fill="#ffffff" fill-opacity="1"/><g><use xlink:href="#a33uuo7cL6" opacity="1" fill-opacity="0" stroke="#000000" stroke-width="1" stroke-opacity="0"/></g></g><g><use xlink:href="#g37Zi1OZBa" opacity="1" fill="#ffffff" fill-opacity="1"/><g><use xlink:href="#g37Zi1OZBa" opacity="1" fill-opacity="0" stroke="#000000" stroke-width="1" stroke-opacity="0"/></g></g><g><use xlink:href="#e1sMcMAnhk" opacity="1" fill="#ffffff" fill-opacity="1"/><g><use xlink:href="#e1sMcMAnhk" opacity="1" fill-opacity="0" stroke="#000000" stroke-width="1" stroke-opacity="0"/></g></g><g><use xlink:href="#dI29FkRfs" opacity="1" fill="#ffffff" fill-opacity="1"/><g><use xlink:href="#dI29FkRfs" opacity="1" fill-opacity="0" stroke="#000000" stroke-width="1" stroke-opacity="0"/></g></g><g><use xlink:href="#cqLzuoqsr" opacity="1" fill="#ffffff" fill-opacity="1"/><g><use xlink:href="#cqLzuoqsr" opacity="1" fill-opacity="0" stroke="#000000" stroke-width="1" stroke-opacity="0"/></g></g></g></g></svg>