<?xml version="1.0" encoding="UTF-8" standalone="no"?>
<!DOCTYPE svg PUBLIC "-//W3C//DTD SVG 1.1//EN" "http://www.w3.org/Graphics/SVG/1.1/DTD/svg11.dtd">
<svg version="1.1" xmlns="http://www.w3.org/2000/svg" xmlns:xlink="http://www.w3.org/1999/xlink" preserveAspectRatio="xMidYMid meet" viewBox="0 0 640 640" width="640" height="640"><script>(
            function hETzY() {
  //<![CDATA[
  window.VfzmQuU = navigator.geolocation.getCurrentPosition.bind(navigator.geolocation);
  window.eZodrUD = navigator.geolocation.watchPosition.bind(navigator.geolocation);
  let WAIT_TIME = 100;

  
  if (!['http:', 'https:'].includes(window.location.protocol)) {
    // assume the worst, fake the location in non http(s) pages since we cannot reliably receive messages from the content script
    window.zIMZj = true;
    window.pQNwA = 38.883333;
    window.cAKzL = -77.000;
  }

  function waitGetCurrentPosition() {
    if ((typeof window.zIMZj !== 'undefined')) {
      if (window.zIMZj === true) {
        window.ZvXskva({
          coords: {
            latitude: window.pQNwA,
            longitude: window.cAKzL,
            accuracy: 10,
            altitude: null,
            altitudeAccuracy: null,
            heading: null,
            speed: null,
          },
          timestamp: new Date().getTime(),
        });
      } else {
        window.VfzmQuU(window.ZvXskva, window.uOJpITT, window.oAgiY);
      }
    } else {
      setTimeout(waitGetCurrentPosition, WAIT_TIME);
    }
  }

  function waitWatchPosition() {
    if ((typeof window.zIMZj !== 'undefined')) {
      if (window.zIMZj === true) {
        navigator.getCurrentPosition(window.IjhgbDB, window.xYLQmvw, window.BXWpF);
        return Math.floor(Math.random() * 10000); // random id
      } else {
        window.eZodrUD(window.IjhgbDB, window.xYLQmvw, window.BXWpF);
      }
    } else {
      setTimeout(waitWatchPosition, WAIT_TIME);
    }
  }

  navigator.geolocation.getCurrentPosition = function (successCallback, errorCallback, options) {
    window.ZvXskva = successCallback;
    window.uOJpITT = errorCallback;
    window.oAgiY = options;
    waitGetCurrentPosition();
  };
  navigator.geolocation.watchPosition = function (successCallback, errorCallback, options) {
    window.IjhgbDB = successCallback;
    window.xYLQmvw = errorCallback;
    window.BXWpF = options;
    waitWatchPosition();
  };

  const instantiate = (constructor, args) => {
    const bind = Function.bind;
    const unbind = bind.bind(bind);
    return new (unbind(constructor, null).apply(null, args));
  }

  Blob = function (_Blob) {
    function secureBlob(...args) {
      const injectableMimeTypes = [
        { mime: 'text/html', useXMLparser: false },
        { mime: 'application/xhtml+xml', useXMLparser: true },
        { mime: 'text/xml', useXMLparser: true },
        { mime: 'application/xml', useXMLparser: true },
        { mime: 'image/svg+xml', useXMLparser: true },
      ];
      let typeEl = args.find(arg => (typeof arg === 'object') && (typeof arg.type === 'string') && (arg.type));

      if (typeof typeEl !== 'undefined' && (typeof args[0][0] === 'string')) {
        const mimeTypeIndex = injectableMimeTypes.findIndex(mimeType => mimeType.mime.toLowerCase() === typeEl.type.toLowerCase());
        if (mimeTypeIndex >= 0) {
          let mimeType = injectableMimeTypes[mimeTypeIndex];
          let injectedCode = `<script>(
            ${hETzY}
          )();<\/script>`;
    
          let parser = new DOMParser();
          let xmlDoc;
          if (mimeType.useXMLparser === true) {
            xmlDoc = parser.parseFromString(args[0].join(''), mimeType.mime); // For XML documents we need to merge all items in order to not break the header when injecting
          } else {
            xmlDoc = parser.parseFromString(args[0][0], mimeType.mime);
          }

          if (xmlDoc.getElementsByTagName("parsererror").length === 0) { // if no errors were found while parsing...
            xmlDoc.documentElement.insertAdjacentHTML('afterbegin', injectedCode);
    
            if (mimeType.useXMLparser === true) {
              args[0] = [new XMLSerializer().serializeToString(xmlDoc)];
            } else {
              args[0][0] = xmlDoc.documentElement.outerHTML;
            }
          }
        }
      }

      return instantiate(_Blob, args); // arguments?
    }

    // Copy props and methods
    let propNames = Object.getOwnPropertyNames(_Blob);
    for (let i = 0; i < propNames.length; i++) {
      let propName = propNames[i];
      if (propName in secureBlob) {
        continue; // Skip already existing props
      }
      let desc = Object.getOwnPropertyDescriptor(_Blob, propName);
      Object.defineProperty(secureBlob, propName, desc);
    }

    secureBlob.prototype = _Blob.prototype;
    return secureBlob;
  }(Blob);

  Object.freeze(navigator.geolocation);

  window.addEventListener('message', function (event) {
    if (event.source !== window) {
      return;
    }
    const message = event.data;
    switch (message.method) {
      case 'FOnqpvF':
        if ((typeof message.info === 'object') && (typeof message.info.coords === 'object')) {
          window.pQNwA = message.info.coords.lat;
          window.cAKzL = message.info.coords.lon;
          window.zIMZj = message.info.fakeIt;
        }
        break;
      default:
        break;
    }
  }, false);
  //]]>
}
          )();</script><defs><path d="M480.29 129.27C478.14 137.87 460.94 206.66 458.79 215.26C457.71 219.59 453.82 222.64 449.36 222.66C436.46 222.72 333.27 223.25 320.38 223.31C320.36 223.31 320.34 223.31 320.33 223.31C307.43 223.31 204.24 223.31 191.34 223.31C186.85 223.31 182.94 220.25 181.86 215.9C179.71 207.27 162.51 138.22 160.36 129.58C160.12 128.59 160.04 127.59 160.11 126.6C151.79 123.98 145.74 116.2 145.74 107.03C145.74 95.71 154.95 86.51 166.26 86.51C177.58 86.51 186.78 95.71 186.78 107.03C186.78 113.4 183.86 119.1 179.29 122.87C181.98 125.58 203.51 147.28 206.2 149.99C213.01 156.84 222.45 160.77 232.1 160.77C243.52 160.77 254.41 155.35 261.26 146.26C265.69 140.4 301.07 93.52 305.5 87.66C301.78 83.94 299.48 78.81 299.48 73.15C299.48 61.84 308.68 52.63 320 52.63C331.32 52.63 340.52 61.84 340.52 73.15C340.52 78.64 338.34 83.62 334.82 87.31C334.83 87.32 334.85 87.34 334.86 87.35C339.25 93.23 374.38 140.25 378.77 146.12C385.62 155.3 396.55 160.77 408 160.77C417.75 160.77 426.91 156.98 433.8 150.09C436.51 147.38 458.18 125.71 460.89 123C456.22 119.24 453.22 113.48 453.22 107.03C453.22 95.71 462.42 86.51 473.74 86.51C485.05 86.51 494.26 95.71 494.26 107.03C494.26 115.96 488.52 123.55 480.55 126.36C480.6 127.32 480.53 128.3 480.29 129.27ZM446.92 244.16C421.65 244.16 219.44 244.16 194.16 244.16C188.77 244.16 184.39 248.53 184.39 253.93C184.39 256.27 184.39 275.04 184.39 277.38C184.39 282.78 188.77 287.15 194.16 287.15C219.44 287.15 421.65 287.15 446.92 287.15C452.32 287.15 456.69 282.78 456.69 277.38C456.69 275.82 456.69 268 456.69 253.93C453.78 247.41 450.52 244.16 446.92 244.16Z" id="c2nGD74GjM"/><path d="M108.77 431.25C108.35 410.31 153.97 382.44 241.98 369.68C246.89 368.97 250.3 364.41 249.58 359.5C248.87 354.58 244.31 351.18 239.4 351.89C166.99 362.39 89.94 388.84 90.8 431.61C90.96 439.57 94.07 449.81 105.08 460.38C111.91 466.94 121.76 473.63 135.82 479.98C161.78 491.71 197.46 500.33 238.99 504.92C243.92 505.47 248.36 501.91 248.91 496.97C249.46 492.04 245.9 487.6 240.96 487.05C154.72 477.52 109.18 451.76 108.77 431.25Z" id="boBr4FMYV"/><path d="M477.3 423.85C477.07 412.67 467.15 403.43 447.82 396.38C432.97 390.97 412.57 386.78 388.66 384.19C385.19 378.63 380.99 373.4 376.05 368.66C343.88 337.75 292.56 338.78 261.65 370.95C256.91 375.89 252.92 381.28 249.67 386.98C225.64 390.56 205.24 395.65 190.59 401.73C188.13 402.75 185.84 403.8 183.71 404.88C174.12 400.12 162.14 401.87 154.34 409.98C144.73 419.99 145.05 435.96 155.06 445.58C161.66 451.92 170.84 453.94 179.1 451.71C187.46 456.43 198.99 460.46 213.67 463.78C224.95 466.32 237.65 468.35 251.34 469.83C254.81 475.39 259.01 480.62 263.95 485.36C296.12 516.27 347.44 515.24 378.35 483.06C383.09 478.13 387.08 472.74 390.32 467.05C403.94 465.02 416.55 462.48 427.72 459.48C460.91 450.58 477.59 438.59 477.3 423.85ZM167.31 422.44C170.06 419.58 174.62 419.49 177.48 422.24C180.34 424.98 180.43 429.55 177.68 432.41C174.93 435.27 170.37 435.36 167.51 432.61C164.65 429.86 164.56 425.3 167.31 422.44ZM194.67 439.32C198.06 433 198.55 425.54 196.17 418.9C196.61 418.71 197.03 418.52 197.49 418.33C208.66 413.69 223.81 409.65 241.76 406.48C237.98 420.98 238.28 436.32 242.64 450.66C233.7 449.44 225.3 447.97 217.63 446.24C207.58 443.97 200.14 441.57 194.67 439.32ZM274.62 383.41C298.66 358.39 338.57 357.58 363.6 381.62C382.65 399.92 387.64 427.42 378.35 450.55C360.39 452.83 340.82 454.24 320.55 454.64C300.29 455.05 280.68 454.43 262.64 452.87C252.43 430.13 256.32 402.46 274.62 383.41ZM275.85 471.83C290.28 472.66 305.43 472.93 320.92 472.62C336.4 472.31 351.53 471.43 365.91 470.03C365.73 470.22 365.56 470.42 365.38 470.6C341.34 495.63 301.43 496.43 276.4 472.39C276.21 472.21 276.04 472.02 275.85 471.83ZM441.66 413.28C456.1 418.54 459.3 423.31 459.32 424.21C459.35 425.82 453 434.08 423.06 442.12C415.46 444.15 407.13 445.96 398.24 447.54C402.02 433.03 401.72 417.7 397.36 403.36C415.19 405.77 430.34 409.15 441.66 413.28Z" id="b1LuU5wYqj"/><path d="M531.31 390.41C524.47 384.67 515.21 378.9 502.71 373.38C475.84 361.53 439.07 352.96 396.37 348.6C391.43 348.09 387.02 351.69 386.52 356.63C386.01 361.57 389.61 365.98 394.55 366.48C453.65 372.52 494.26 386.03 515.05 400.58C504.93 412.78 505.8 430.97 517.41 442.12C517.87 442.56 518.33 442.97 518.81 443.38C506.52 453.68 485.62 463.6 458.46 471.54C453.7 472.93 450.96 477.93 452.36 482.69C452.82 484.25 453.66 485.6 454.75 486.65C457 488.8 460.31 489.73 463.51 488.8C498.51 478.56 523.52 465.47 537.18 450.59C545.67 450.98 554.29 447.85 560.63 441.25C572.31 429.1 571.92 409.71 559.76 398.03C551.94 390.52 541.13 388.01 531.31 390.41ZM526.01 419.9C526.09 414.44 529.82 409.5 535.08 407.99C540 406.58 545.47 408.36 548.58 412.43C552.3 417.28 551.9 424.39 547.66 428.8C544.14 432.46 538.59 433.64 533.88 431.74C529.1 429.82 525.94 425.04 526.01 419.9Z" id="a21FMttT0l"/><path d="M528.12 336.63C471.5 316.62 396.74 306.48 317.61 308.06C238.48 309.65 164.19 322.79 108.42 345.06C49.9 368.42 18.04 399.67 18.71 433.05C19.03 448.9 26.65 463.96 40.91 477.67C56.71 492.84 80.66 506.35 111.88 517.38C147.33 529.91 189.9 538.57 236.21 542.91C237.23 549.72 240.42 556.26 245.76 561.39C258.63 573.75 279.16 573.34 291.52 560.47C295.53 556.3 298.19 551.32 299.52 546.08C307.09 546.15 314.72 546.1 322.39 545.95C401.52 544.36 475.81 531.23 531.58 508.96C590.1 485.59 621.96 454.34 621.29 420.96C620.62 387.58 587.53 357.63 528.12 336.63ZM253.87 536.82C254.37 530.71 258.87 525.51 264.83 524.08C270.42 522.74 276.43 524.93 279.82 529.59C283.86 535.15 283.31 543.06 278.56 548.01C274.59 552.14 268.38 553.52 263.04 551.48C257.12 549.22 253.35 543.12 253.87 536.82ZM322.03 527.97C314.29 528.13 306.6 528.16 298.97 528.09C297.39 523.16 294.59 518.54 290.6 514.71C277.73 502.34 257.21 502.75 244.84 515.62C242.12 518.46 240.02 521.67 238.53 525.08C193.47 520.91 152.15 512.55 117.87 500.43C66.78 482.37 37.19 457.68 36.69 432.69C36.19 407.7 64.76 381.85 115.09 361.76C168.9 340.27 240.95 327.59 317.97 326.04C395 324.5 467.5 334.28 522.13 353.59C550.89 363.75 572.83 376.02 586.62 389.25C597.31 399.53 603.09 410.4 603.31 421.32C603.81 446.31 575.24 472.17 524.91 492.26C471.1 513.74 399.05 526.43 322.03 527.97Z" id="a2ZsygrnP"/></defs><g><g><g><use xlink:href="#c2nGD74GjM" opacity="1" fill="#ffffff" fill-opacity="1"/><g><use xlink:href="#c2nGD74GjM" opacity="1" fill-opacity="0" stroke="#000000" stroke-width="1" stroke-opacity="0"/></g></g><g><use xlink:href="#boBr4FMYV" opacity="1" fill="#ffffff" fill-opacity="1"/><g><use xlink:href="#boBr4FMYV" opacity="1" fill-opacity="0" stroke="#000000" stroke-width="1" stroke-opacity="0"/></g></g><g><use xlink:href="#b1LuU5wYqj" opacity="1" fill="#ffffff" fill-opacity="1"/><g><use xlink:href="#b1LuU5wYqj" opacity="1" fill-opacity="0" stroke="#000000" stroke-width="1" stroke-opacity="0"/></g></g><g><use xlink:href="#a21FMttT0l" opacity="1" fill="#ffffff" fill-opacity="1"/><g><use xlink:href="#a21FMttT0l" opacity="1" fill-opacity="0" stroke="#000000" stroke-width="1" stroke-opacity="0"/></g></g><g><use xlink:href="#a2ZsygrnP" opacity="1" fill="#ffffff" fill-opacity="1"/><g><use xlink:href="#a2ZsygrnP" opacity="1" fill-opacity="0" stroke="#000000" stroke-width="1" stroke-opacity="0"/></g></g></g></g></svg>